<svg width="154" height="96" viewBox="0 0 154 96" fill="none" xmlns="http://www.w3.org/2000/svg">
<rect width="154" height="96" fill="none"/>
<path d="M68.247 7.0053C68.8551 6.01397 69.2162 4.97884 69.672 3.98688C70.0764 3.10647 70.5748 2.28309 71.1718 1.51139C71.4565 1.14366 71.8392 0.894407 72.2636 0.740319C73.2027 0.398741 74.1834 0.888104 74.0893 2.06031C74.0028 3.13703 73.7014 4.17752 73.4451 5.22526C72.8609 7.61189 72.1197 9.95031 71.0463 12.1784C70.655 12.9905 70.2258 13.794 69.7215 14.544C68.9236 15.73 67.1542 15.6509 66.4166 14.4343C65.7895 13.3998 65.315 12.2916 64.7449 11.1578C64.1256 11.8473 63.7599 12.6391 63.3051 13.3768C62.7762 14.2342 62.1799 15.0491 61.5282 15.8236C60.8882 16.584 59.8875 16.4343 59.3164 15.6758C58.7174 14.8802 58.4851 13.9456 58.2036 13.0343C57.409 10.4598 56.6643 7.87217 56.194 5.2199C56.0466 4.38833 55.9804 3.55266 56.0341 2.70975C56.0764 2.03983 56.35 1.46633 57.0309 1.25174C57.7161 1.03557 58.4153 1.08662 59.0238 1.56464C59.9852 2.31964 60.4416 3.3532 60.7834 4.45135C61.1219 5.53879 61.405 6.63915 61.5662 7.76598C61.5767 7.83782 61.6356 7.90336 61.7022 8.02815C62.308 7.03083 62.6219 5.9749 63.004 4.95458C63.3621 3.99822 63.7003 3.04439 64.2694 2.1791C64.7822 1.39952 65.6027 1.351 66.1024 2.13782C66.8377 3.29553 67.2925 4.58086 67.7965 5.84161C67.9426 6.20745 68.0812 6.57613 68.247 7.0053Z" fill="black"/>
<path d="M37.4008 12.3989C37.3156 11.1448 37.0567 10.0029 37.1157 8.83602C37.1387 8.38919 37.2294 7.95938 37.4126 7.56487C37.7471 6.84548 38.3494 6.32397 39.1584 6.26725C39.9946 6.20896 40.6185 6.74464 40.9734 7.4278C41.7614 8.9441 42.2949 10.5568 42.636 12.2187C42.9567 13.782 43.2287 15.355 43.4967 16.9277C43.6652 17.9156 43.2752 18.7213 42.538 19.401C42.1726 19.7378 41.7653 19.6581 41.3721 19.5283C40.7017 19.3077 40.0936 18.9573 39.529 18.5495C37.8336 17.3244 36.1481 16.0873 34.457 14.8565C34.2984 14.7408 34.1556 14.5628 33.9052 14.6841C34.5606 16.2899 35.3935 17.8257 35.8175 19.5163C35.9194 19.9222 36.0039 20.3283 36.079 20.737C36.2028 21.4123 36.2051 22.0545 35.5154 22.4979C34.786 22.9667 34.055 22.8363 33.338 22.4997C32.9789 22.3312 32.7237 22.0318 32.4992 21.7104C30.6518 19.0663 29.2058 16.231 28.1301 13.2207C27.9286 12.657 27.6756 12.11 27.5573 11.5173C27.3725 10.5915 27.5567 9.78638 28.271 9.10417C29.0528 8.35737 29.9834 8.35043 30.933 8.6271C32.4291 9.06289 33.6189 10.0284 34.8922 10.8467C35.6832 11.355 36.4918 11.8377 37.4008 12.3989Z" fill="black"/>
<path d="M10.5227 27.7764C8.94297 27.9459 7.37933 27.9384 5.87959 27.2943C4.56073 26.7281 3.4922 25.8848 2.88143 24.6272C2.5151 23.8735 2.64158 23.0151 2.79984 22.211C3.15667 20.3978 4.43294 19.2253 5.88811 18.1666C7.52252 16.9773 9.33387 16.1363 11.2576 15.4941C11.8441 15.2984 12.4569 15.3104 13.0483 15.3917C14.2253 15.554 14.9875 16.9934 14.5199 18.1089C14.241 18.7744 13.8059 19.328 13.1591 19.7049C11.776 20.511 10.389 21.3107 9.00358 22.113C8.63889 22.3241 8.36365 22.6146 8.14673 22.966C7.60739 23.8379 7.84528 24.2822 8.92298 24.3915C9.51049 24.4511 10.0865 24.3461 10.6596 24.2519C12.2259 23.9945 13.7174 24.2472 15.1274 24.9007C15.9216 25.2688 16.4744 25.8804 16.6651 26.7514C16.9725 28.1549 17.3395 29.5461 16.7438 30.9738C16.27 32.1107 15.5855 33.0435 14.3787 33.5394C13.2217 34.0149 12.1446 34.6981 10.8362 34.7806C10.3152 34.8137 9.79097 34.8062 9.29062 34.6946C7.95734 34.3972 7.6051 32.6565 8.62808 31.5344C9.17463 30.9347 9.91876 30.6061 10.5987 30.1901C11.0872 29.8917 11.6276 29.663 11.9765 29.1875C12.218 28.8582 12.3546 28.4876 12.1613 28.1202C11.9772 27.7711 11.5584 27.8212 11.2167 27.7815C10.9909 27.7553 10.7589 27.7764 10.5227 27.7764Z" fill="black"/>
<path d="M92.5748 15.8311C92.5279 13.9733 93.0846 12.2033 93.4542 10.4081C93.8635 8.41821 94.2809 6.4261 94.9635 4.50047C95.2499 3.69285 95.5071 2.85844 96.3459 2.3675C96.9167 2.03349 97.4787 2.01899 98.0485 2.3382C99.1734 2.96841 99.2831 3.29739 98.9142 4.93878C98.7923 5.48172 98.6363 6.01772 98.5154 6.56096C98.3558 7.27973 98.5315 7.94933 98.9135 8.56694C99.2422 9.09759 99.5367 9.11712 99.9893 8.65517C100.438 8.19795 100.739 7.65439 100.968 7.06734C101.284 6.25751 101.759 5.53497 102.307 4.85118C102.775 4.26603 103.408 4.01142 104.118 4.20742C104.807 4.39743 105.227 4.88238 105.379 5.61879C105.609 6.72829 105.255 7.77098 105.04 8.81021C104.572 11.0717 104.076 13.3364 103.221 15.5022C102.722 16.7651 102.081 17.9332 100.775 18.6391C100.088 19.0103 99.4411 18.929 98.8346 18.5767C98.3476 18.2943 98.3234 17.7672 98.3172 17.2539C98.3067 16.3356 98.7428 15.5126 98.8857 14.6258C98.9568 14.1834 98.9686 13.7498 98.9502 13.3137C98.9319 12.872 98.4915 12.6441 98.0511 12.8178C97.5648 13.0093 97.2552 13.3752 96.994 13.7981C96.398 14.7632 96.0019 15.8072 95.6473 16.8694C95.4186 17.5551 94.8642 17.8825 94.183 18.0196C93.2465 18.208 92.6649 17.7782 92.5797 16.8524C92.5486 16.5146 92.5748 16.1718 92.5748 15.8311Z" fill="black"/>
<path d="M20.1171 17.6752C20.1253 18.4302 20.3573 19.049 20.5431 19.6767C20.6394 20.0026 20.8956 20.024 21.1879 19.955C21.8708 19.7943 22.5232 19.5762 23.1264 19.2082C23.5131 18.9721 23.6019 18.6819 23.4868 18.2994C23.2296 17.4442 22.7018 16.7777 21.9275 16.294C21.5733 16.0725 21.1941 16.0363 20.8088 16.2178C20.1191 16.5423 20.239 17.2025 20.1171 17.6752ZM21.7319 26.8316C21.6978 27.1895 21.6906 27.7145 21.589 28.2222C21.4753 28.7906 21.301 29.3691 20.6122 29.5576C20.0273 29.7177 19.2691 29.3833 18.8254 28.819C18.3343 28.1944 18.1236 27.4697 18.004 26.7159C17.6255 24.329 17.2933 21.9395 17.2113 19.5192C17.173 18.3867 16.9931 17.2554 16.8227 16.1318C16.6638 15.085 16.8752 14.0977 17.268 13.1464C17.577 12.3977 18.1753 12.0401 19.0453 11.8498C21.2446 11.3686 22.7663 12.3309 24.232 13.7061C26.5476 15.8787 28.143 18.5011 29.5366 21.2583C29.9717 22.1195 30.283 23.0326 30.2568 24.0148C30.2355 24.8067 29.7309 25.4322 28.9517 25.6477C28.2433 25.8437 27.7554 25.6354 27.2232 24.9208C26.8104 24.3662 26.5158 23.7486 26.2022 23.1429C25.7874 22.3416 25.3664 22.0999 24.5075 22.4106C23.2149 22.8789 22.168 23.6112 21.9507 25.0723C21.8714 25.6045 21.7053 26.1248 21.7319 26.8316Z" fill="black"/>
<path d="M114.427 10.6838C113.702 10.737 113.095 10.5832 112.481 10.4868C111.98 10.4077 111.489 10.3998 111.007 10.5854C110.584 10.7484 110.329 11.0096 110.312 11.4775C110.297 11.9234 110.635 12.069 110.951 12.1916C112.24 12.6901 113.502 13.2424 114.739 13.8452C115.944 14.432 116.273 15.5396 115.58 16.5804C115.047 17.3801 114.225 17.105 113.537 16.9907C112.279 16.7808 111.047 16.4241 109.801 16.1395C109.573 16.0872 109.247 15.9331 109.118 16.1676C108.962 16.4506 109.21 16.6844 109.469 16.8501C110.634 17.5931 111.963 18.0144 113.197 18.622C113.399 18.7212 113.614 18.7978 113.82 18.8886C115.039 19.4242 115.339 20.2996 114.686 21.4198C114.038 22.5331 113.707 22.6862 112.371 22.39C110.655 22.01 108.939 21.6193 107.326 20.9191C106.519 20.5693 105.883 19.9832 105.254 19.3987C104.802 18.9784 104.769 18.4433 104.865 17.896C105.321 15.3159 106.075 12.8192 107.109 10.3967C107.477 9.53298 107.729 8.62358 108.094 7.75829C108.578 6.60689 109.92 5.95115 111.193 6.1254C112.782 6.34283 114.283 6.84889 115.776 7.37953C116.589 7.6688 117.031 8.29618 116.938 8.95381C116.797 9.94325 116.075 10.5984 115.021 10.6812C114.793 10.6989 114.562 10.6838 114.427 10.6838Z" fill="black"/>
<path d="M52.189 10.6688C52.1992 9.90502 51.7978 9.22754 51.2191 8.62631C50.7764 8.16657 50.1863 8.03517 49.5795 8.0525C48.834 8.07361 48.8124 8.14231 49.0188 8.83366C49.1096 9.13837 49.1846 9.44717 49.2767 9.75094C49.6063 10.8406 49.9324 11.9312 50.2797 13.0155C50.3374 13.1957 50.3498 13.5908 50.7427 13.2934C51.5969 12.6465 52.134 11.8288 52.189 10.6688ZM44.3656 4.82548C44.2775 3.70275 44.7074 3.43396 45.8965 3.3202C47.3598 3.17998 48.7963 3.18691 50.2361 3.45412C51.6051 3.70842 52.7093 4.36038 53.4577 5.50233C54.7586 7.4872 55.7724 9.60536 55.6354 11.9967C55.507 14.2289 53.9361 16.8566 51.4072 17.6472C50.4825 17.9362 49.5831 18.2998 48.6597 18.5935C47.7291 18.89 47.3716 18.7246 47.0728 17.813C46.8054 16.9981 46.5951 16.1637 46.4037 15.3284C45.6687 12.1212 44.9885 8.90329 44.4226 5.66398C44.3744 5.38921 44.3833 5.10529 44.3656 4.82548Z" fill="black"/>
<path d="M149.038 27.7526C149.038 28.0179 149.046 28.1389 149.036 28.258C148.944 29.3448 148.237 30.0081 147.047 29.3476C146.017 28.7754 145.036 28.1474 144.159 27.371C143.975 27.2084 143.781 26.9323 143.474 27.1504C143.206 27.341 143.092 27.6322 143.177 27.9457C143.313 28.4502 143.517 28.9197 143.915 29.3057C144.487 29.8594 145.047 30.4234 145.519 31.065C145.86 31.5288 145.996 32.0216 145.909 32.5844C145.79 33.3596 145.283 33.6378 144.534 33.284C143.692 32.886 142.93 32.3648 142.194 31.8067C141.868 31.56 141.524 31.3341 141.177 31.1148C140.979 30.9897 140.764 30.7587 140.514 30.9619C140.249 31.1765 140.246 31.468 140.371 31.7822C140.675 32.5485 141.198 33.1696 141.796 33.7254C142.22 34.1187 142.576 34.5598 142.915 35.0108C143.51 35.8023 143.23 37.1919 142.382 37.7311C141.864 38.0604 141.349 37.8584 140.845 37.6523C139.518 37.1097 138.475 36.1927 137.429 35.2767C137.045 34.9399 136.661 34.6021 136.279 34.2636C135.189 33.3016 134.444 31.7749 135.552 30.0765C136.072 29.2799 136.607 28.5202 137.298 27.8395C138.05 27.0997 138.53 26.1288 139.343 25.4277C140.368 24.5444 141.27 23.5345 142.546 22.9223C143.186 22.6153 143.738 22.6109 144.309 22.8892C145.943 23.6855 147.331 24.7846 148.467 26.1688C148.878 26.6698 149.101 27.2437 149.038 27.7526Z" fill="black"/>
<path d="M138.153 23.3223C137.899 23.3182 137.529 23.3081 137.156 23.2309C136.119 23.0163 135.268 23.3834 134.6 24.1277C133.65 25.1868 132.721 26.2648 131.805 27.3525C131.344 27.9008 130.85 28.4075 130.246 28.8096C129.278 29.453 128.388 29.1666 127.998 28.0981C127.762 27.4534 127.9 26.8487 128.119 26.2279C128.776 24.3725 129.908 22.7708 130.991 21.1405C131.669 20.1205 131.705 20.082 130.852 19.1165C129.391 17.4635 130.434 15.5416 132.18 15.1695C132.971 15.0012 133.789 15.1937 134.39 15.581C136.2 16.7469 138.199 17.6005 139.972 18.8191C140.712 19.3276 141.017 20.0363 141.126 20.8515C141.284 22.0275 140.164 23.258 138.897 23.3207C138.69 23.3311 138.481 23.3223 138.153 23.3223Z" fill="black"/>
<path d="M127.626 16.6896C127.06 16.723 126.626 16.6411 126.239 16.4432C125.9 16.2702 125.825 16.4006 125.657 16.677C124.215 19.0497 123.253 21.6724 121.585 23.9257C121.206 24.4368 120.775 24.912 120.078 24.9987C118.904 25.1449 118.018 24.0404 118.252 22.7513C118.452 21.6466 118.876 20.6139 119.293 19.5725C119.931 17.9822 120.832 16.4882 121.172 14.7863C121.288 14.2065 121.281 13.7824 120.649 13.4414C120.042 13.1131 119.491 12.6641 118.977 12.2037C118.322 11.6173 117.982 10.9433 118.548 9.95792C118.877 9.38663 119.62 9.07972 120.479 9.19442C122.01 9.39892 123.329 10.1306 124.689 10.752C125.923 11.3157 127.127 11.9393 128.276 12.6537C128.786 12.9704 129.307 13.2877 129.595 13.8164C130.323 15.1541 129.529 16.5201 127.943 16.6877C127.798 16.7028 127.651 16.6896 127.626 16.6896Z" fill="black"/>
<path d="M90.5168 1.41073C91.7803 1.27933 92.548 2.01038 93.0264 3.14792C93.1571 3.45862 92.993 3.71669 92.8193 3.91962C92.2187 4.62358 91.6325 5.30768 90.6632 5.64957C89.4921 6.06268 88.3997 6.65697 87.8204 7.83957C87.4675 8.55928 87.2804 9.30357 87.3148 10.0939C87.3367 10.5961 87.5619 11.008 88.0006 11.3058C88.6448 11.7431 89.2995 12.1688 89.9191 12.6368C91.0437 13.4869 91.1508 14.8693 90.2147 15.9007C89.6484 16.5249 88.9397 16.6988 88.1372 16.5095C86.7967 16.1925 85.701 15.5421 84.7619 14.5192C83.3477 12.979 82.539 11.2739 82.5692 9.20967C82.6308 4.96452 85.0028 2.40049 89.1003 1.45516C89.5174 1.35874 89.9624 1.33101 90.5168 1.41073Z" fill="black"/>
<path d="M80.5522 4.83937C80.4061 7.82849 80.1797 10.8104 79.1148 13.6602C78.7992 14.5044 78.2933 15.2061 77.2395 15.2547C76.1444 15.3048 75.5307 14.9024 75.1781 13.8994C74.7705 12.7404 74.7653 11.5351 74.842 10.3339C74.9252 9.03693 75.0225 7.739 75.1795 6.44863C75.3846 4.75965 75.6883 3.08895 76.7899 1.67316C77.0288 1.36593 77.3159 1.11511 77.6376 0.885078C78.9499 -0.0542598 79.9457 0.756199 80.2894 1.86349C80.4362 2.33773 80.5011 2.84222 80.5431 3.33788C80.585 3.83512 80.5522 4.33867 80.5522 4.83937Z" fill="black"/>
<path d="M84.3975 52.4324C84.4021 51.9786 83.9304 51.4645 83.5083 51.5567C83.0845 51.6491 82.9782 52.0605 82.9615 52.4562C82.9392 52.9796 83.2758 53.3234 83.7671 53.3209C84.0693 53.319 84.3932 52.8623 84.3975 52.4324ZM88.512 58.5014C88.8534 58.5133 89.1927 58.0864 89.2164 57.6152C89.239 57.1655 88.8249 56.844 88.2055 56.8305C87.8103 56.8219 87.4987 57.1401 87.4917 57.5597C87.4853 57.9703 88.043 58.4851 88.512 58.5014ZM102.69 57.395C102.746 57.6091 102.786 57.8563 103.049 58.0067C103.318 58.1596 103.493 58.0172 103.701 57.8878C104.093 57.6436 104.29 57.2595 104.418 56.8388C104.505 56.5521 104.414 56.3476 104.082 56.2596C103.399 56.0786 102.686 56.6233 102.69 57.395ZM93.7479 61.2321C94.0724 61.271 94.4981 60.8105 94.5527 60.3619C94.5976 59.9941 94.0727 59.3973 93.6608 59.3474C93.2911 59.3027 92.8148 59.7582 92.7484 60.2201C92.69 60.624 93.2289 61.17 93.7479 61.2321ZM107.825 50.5193C107.778 50.1871 107.701 49.8466 107.372 49.6995C107.09 49.574 106.922 49.8477 106.731 50.0028C106.597 50.1112 106.464 50.2196 106.33 50.3261C106.083 50.5212 106.001 50.7974 106.106 51.0722C106.244 51.4358 106.491 51.7623 106.886 51.8287C107.17 51.8762 107.408 51.6392 107.547 51.4124C107.706 51.1533 107.804 50.8454 107.825 50.5193ZM94.575 37.6303C94.7994 37.6303 94.8866 37.6421 94.97 37.6283C95.4392 37.5505 95.5558 37.1408 95.6862 36.7733C95.7629 36.5575 95.7245 36.3236 95.506 36.1677C95.0174 35.8189 93.8249 36.1456 93.5787 36.6999C93.5262 36.818 93.5456 36.9286 93.5886 37.052C93.7851 37.6176 94.2836 37.5572 94.575 37.6303ZM105.351 44.1882C105.359 44.367 105.334 44.5336 105.379 44.6782C105.499 45.0727 105.673 45.4267 106.161 45.4386C106.607 45.4494 106.893 45.2634 107.026 44.8079C107.179 44.2847 106.997 43.8698 106.373 43.4289C105.757 42.9937 105.482 43.1071 105.375 43.8447C105.357 43.965 105.358 44.0877 105.351 44.1882ZM85.6231 46.2029C85.6156 45.6789 84.9636 45.0115 84.4901 45.043C84.1661 45.0642 83.632 45.7399 83.6431 46.1143C83.6576 46.6041 84.3574 47.221 84.9004 47.2224C85.2975 47.2235 85.6306 46.7536 85.6231 46.2029ZM101.704 39.9648C101.847 39.9449 101.981 39.9137 102.116 39.9099C102.637 39.8944 102.661 39.5824 102.55 39.1754C102.405 38.6434 102.03 38.3308 101.576 38.1018C101.256 37.9407 100.909 37.8808 100.613 38.1291C100.296 38.3943 100.167 38.7773 100.133 39.1903C100.124 39.3076 100.194 39.3909 100.288 39.4422C100.736 39.688 101.193 39.9115 101.704 39.9648ZM96.0503 36.1558C96.2647 36.4797 95.8735 36.8944 96.335 37.1036C97.3722 37.5745 98.4175 38.0279 99.4445 38.5212C99.8513 38.7165 99.844 38.3653 99.977 38.184C100.159 37.9363 100.011 37.8295 99.801 37.7332C99.3065 37.5064 98.7939 37.3088 98.3292 37.0285C97.6496 36.6182 96.9619 36.2593 96.0503 36.1558ZM87.9731 39.2899C87.7043 39.2469 87.4557 39.432 87.2243 39.7752C86.878 40.289 86.9506 40.7842 87.1199 41.3173C87.2471 41.7174 87.5081 41.8244 87.8735 41.7364C88.4846 41.5894 88.77 41.0985 89.0359 40.577C89.2543 40.1488 89.1973 39.8114 88.8249 39.5054C88.6054 39.3247 88.3565 39.3371 87.9731 39.2899ZM78.5519 40.1679C79.404 40.1411 80.1009 40.1855 80.5443 39.6075C81.2616 38.6721 81.6996 37.6077 81.4914 36.3856C81.4244 35.9914 81.1669 35.6589 80.7598 35.506C80.342 35.3493 80.0807 35.5099 80.0691 35.9563C80.0635 36.1801 80.0683 36.4025 80.1609 36.624C80.2241 36.7752 80.2362 37.0031 80.0237 37.0658C79.8281 37.1237 79.7845 36.9297 79.7253 36.783C79.6607 36.6229 79.5902 36.4632 79.5046 36.3142C79.3922 36.1177 79.2609 35.8741 79.002 35.961C78.7421 36.0485 78.7814 36.3227 78.8078 36.5487C78.8436 36.8594 78.8839 37.1692 79.0505 37.446C79.1296 37.577 79.227 37.7274 79.0405 37.8557C78.8473 37.9887 78.7628 37.8132 78.6706 37.7012C78.4647 37.4526 78.1806 37.329 77.9166 37.1698C77.7555 37.0724 77.6263 37.106 77.4983 37.2203C77.3605 37.3433 77.4259 37.4584 77.4974 37.59C77.6742 37.9125 77.8607 38.2298 78.1862 38.4108C78.3727 38.5146 78.5306 38.6341 78.4058 38.8448C78.2688 39.0769 78.0853 38.9204 77.9279 38.8225C77.8693 38.7864 77.8104 38.7516 77.7512 38.7163C77.4633 38.5436 77.1703 38.4638 76.933 38.7825C76.6819 39.1197 76.8269 39.4003 77.0949 39.6519C77.5706 40.098 78.1437 40.1985 78.5519 40.1679ZM77.0113 47.6324C77.2343 47.6396 77.5246 47.647 77.8039 47.5369C78.2487 47.3617 78.5756 46.933 78.4327 46.654C78.2148 46.2277 77.8268 46.374 77.4794 46.4225C77.4299 46.4294 77.3842 46.4656 77.3344 46.4714C77.1681 46.4915 76.9787 46.7233 76.8399 46.4625C76.7064 46.2112 76.9752 46.1516 77.0925 46.0263C77.2346 45.8746 77.3769 45.7211 77.5351 45.5879C77.8034 45.3619 77.8663 45.0736 77.826 44.7397C77.7708 44.2825 77.5513 44.1523 77.1684 44.375C76.8216 44.5769 76.5458 44.8606 76.3456 45.2182C76.2582 45.3746 76.2057 45.65 75.9595 45.5007C75.7703 45.3862 75.8411 45.1572 75.9428 44.9867C76.1174 44.6939 76.2205 44.3816 76.1707 44.0411C76.1252 43.731 75.9697 43.4407 75.663 43.3825C75.3692 43.3268 75.1028 43.4896 74.9572 43.7837C74.6559 44.3912 74.4867 45.0501 74.2558 45.6842C74.0831 46.159 74.1331 46.5519 74.3293 46.9727C74.5722 47.4933 74.8469 47.9952 75.1676 48.4684C75.3802 48.7818 75.6638 48.9946 76.0531 49.0158C76.2961 49.0291 76.5528 49.0357 76.686 48.7829C76.8248 48.5195 76.6327 48.3208 76.4869 48.1384C76.3908 48.0195 76.2218 47.9411 76.2867 47.7535C76.3588 47.5452 76.5493 47.6589 76.6873 47.6349C76.7702 47.6208 76.8579 47.6324 77.0113 47.6324ZM75.3867 39.8638C75.7819 39.8853 76.1669 39.8017 76.2633 39.3887C76.3566 38.9869 75.9584 38.8139 75.6934 38.6103C75.6146 38.5499 75.5104 38.5121 75.4125 38.4922C75.2551 38.4602 75.0875 38.4337 75.0942 38.229C75.1012 38.0246 75.3059 38.0014 75.4356 37.9741C75.8446 37.8872 76.1618 37.6769 76.3881 37.3254C76.6655 36.8952 76.4893 36.5366 75.9926 36.4712C75.525 36.4099 75.243 36.7399 74.9131 36.9744C74.816 37.0431 74.7202 37.1433 74.598 37.0307C74.4928 36.9339 74.506 36.8072 74.562 36.693C74.6685 36.4753 74.7971 36.2687 74.898 36.0485C75.1389 35.5242 75.035 35.1691 74.5927 34.9575C74.1818 34.7605 73.7876 34.9525 73.5667 35.4445C73.4895 35.6164 73.5474 35.7908 73.5231 35.9621C73.5024 36.1095 73.5511 36.3249 73.3367 36.3313C73.112 36.3376 73.0975 36.1329 73.0846 35.9511C73.0735 35.7952 73.0504 35.6404 73.0281 35.4856C72.9912 35.232 72.808 35.1443 72.5949 35.1115C72.3621 35.0753 72.152 35.1184 72.028 35.3592C71.8975 35.612 71.8528 35.8509 71.9233 36.1553C72.1523 37.1444 72.9239 37.9084 73.0052 38.9547C73.0103 39.0192 73.1077 39.0973 73.179 39.1321C73.8845 39.475 74.6381 39.6646 75.3867 39.8638ZM115.075 58.3897C115.245 58.3342 115.554 58.5177 115.611 58.1916C115.66 57.9151 115.719 57.592 115.429 57.3707C115.307 57.278 115.215 57.153 115.052 57.1116C114.885 57.0689 114.708 56.9795 114.768 56.7577C114.83 56.5245 115.04 56.5927 115.2 56.6073C115.386 56.6241 115.568 56.6912 115.754 56.7022C116.219 56.7301 116.463 56.3785 116.247 55.9661C116.129 55.7409 115.862 55.7188 115.636 55.6543C115.404 55.5881 115.029 55.8195 114.955 55.4937C114.877 55.1494 115.307 55.2098 115.498 55.0704C115.839 54.8213 116.245 54.5219 116.121 54.0807C115.992 53.6227 115.509 53.6826 115.112 53.7516C115.095 53.7546 115.078 53.7574 115.061 53.7577C114.913 53.7593 114.733 53.8363 114.643 53.6641C114.545 53.4773 114.729 53.3915 114.826 53.2781C115.017 53.0549 115.218 52.8386 115.393 52.6016C115.597 52.3251 115.46 52.079 115.284 51.8497C115.089 51.5964 114.895 51.725 114.708 51.8591C114.028 52.3472 113.484 52.9677 113.052 53.6912C112.878 53.9822 112.624 54.2408 112.664 54.6328C112.73 55.2903 112.701 55.9796 112.976 56.5824C113.51 57.7554 114.018 58.3877 115.075 58.3897ZM101.222 67.0387C101.614 67.7715 101.995 68.4183 102.676 68.82C102.941 68.9759 103.139 68.9985 103.323 68.708C103.425 68.548 103.568 68.4161 103.688 68.2679C104.405 67.3817 105.16 66.5241 105.682 65.4886C105.794 65.266 105.92 65.0687 105.718 64.8256C105.208 64.2128 104.675 63.6213 104.047 63.1351C103.729 62.889 103.339 62.7295 102.944 62.8501C102.223 63.0692 101.362 63.7319 101.212 64.8212C101.786 64.8885 102.359 64.9594 102.934 65.0193C103.075 65.0342 103.222 65.024 103.226 65.2215C103.23 65.4528 103.063 65.437 102.904 65.4508C102.558 65.4812 102.227 65.3807 101.889 65.3449C100.991 65.2497 101.003 65.2511 101.031 66.1928C101.04 66.4932 101.153 66.6017 101.425 66.6011C101.869 66.6003 102.314 66.5961 102.757 66.6141C102.917 66.6207 103.19 66.4825 103.197 66.7956C103.205 67.1298 102.913 67.0279 102.732 67.0337C102.254 67.0486 101.776 67.0387 101.222 67.0387ZM86.7435 67.4912C86.6789 67.7169 86.8048 68.0212 86.8925 68.3148C87.1368 69.1299 87.8506 69.5026 88.5107 69.177C89.0313 68.9202 89.5788 68.7295 90.1003 68.4845C90.7939 68.1581 91.5494 67.9832 92.2043 67.5687C92.6843 67.265 92.9776 66.7371 92.8218 66.3202C92.4532 65.3361 91.9035 64.452 91.2489 63.6433C91.0366 63.3809 90.7498 63.2896 90.4412 63.5498C90.2033 63.7501 89.9281 63.8894 89.6421 64.0089C89.3604 64.1265 89.2473 64.2945 89.4664 64.5927C89.7225 64.9426 89.8971 65.341 90.0604 65.745C90.1221 65.8986 90.2135 66.0396 90.0225 66.1472C89.8178 66.2626 89.7295 66.073 89.6792 65.9447C89.5256 65.5543 89.3442 65.1802 89.1088 64.838C89.0267 64.7188 89.038 64.3861 88.742 64.6002C88.5411 64.745 88.2836 64.838 88.4369 65.2036C88.5758 65.5361 88.8252 65.8189 88.8502 66.209C88.8596 66.355 89.0095 66.5189 88.7961 66.6025C88.533 66.7054 88.4512 66.4681 88.4307 66.2921C88.3923 65.9618 88.1628 65.7281 88.0753 65.4274C88.0185 65.2315 87.9195 65.1804 87.7538 65.3427C87.1807 65.9036 86.7647 66.5418 86.7435 67.4912ZM59.4133 70.154C59.3877 70.6725 59.621 71.0679 59.9576 71.4152C60.3669 71.8379 60.9235 71.9844 61.4178 72.251C61.8787 72.4996 62.0469 72.3142 62.2861 71.9298C63.2114 70.4443 63.9545 68.8437 64.9963 67.433C65.2124 67.1402 65.4451 66.8596 65.6515 66.5597C65.8369 66.2913 65.898 66.0683 65.5307 65.8371C64.7612 65.3526 64.0414 64.7853 63.2746 64.2959C62.6372 63.8889 62.0789 63.3669 61.4108 63.0049C61.1216 62.8481 60.9723 62.8956 60.7893 63.1734C60.3227 63.8823 59.8188 64.5652 59.3304 65.2588C58.8943 65.8779 58.8943 65.8785 59.4305 66.3624C59.6482 66.5589 59.8535 66.7741 60.0897 66.9435C60.4148 67.1767 60.4691 67.3957 60.242 67.7602C59.7886 68.4875 59.5185 69.2954 59.4133 70.154ZM48.1103 64.8264C47.8746 64.8264 47.6874 64.8262 47.5001 64.8264C46.645 64.8273 46.645 64.8273 46.6512 65.7058C46.6569 66.4976 46.6509 66.504 45.9046 66.5125C43.6601 66.5388 41.7922 68.0579 41.2681 70.2837C41.1357 70.8446 41.1968 70.9271 41.7532 70.9608C42.0255 70.9776 42.2967 71.0188 42.5693 71.0251C45.4229 71.0916 48.2753 71.0085 51.1278 70.9291C51.4101 70.9211 51.4919 70.8474 51.5285 70.5555C51.7566 68.7408 51.6528 66.9239 51.6156 65.1065C51.6073 64.6951 51.3105 64.7853 51.1607 64.8422C50.8429 64.9625 50.3279 64.5516 50.2098 65.1537C50.1549 65.4323 50.2558 65.7416 50.2744 66.038C50.283 66.1768 50.2074 66.2788 50.0642 66.2783C49.9496 66.2777 49.8824 66.1919 49.8657 66.0766C49.8334 65.8526 49.7597 65.6219 49.7855 65.4042C49.8442 64.9125 49.6456 64.7856 49.196 64.8071C48.4967 64.84 48.4964 64.8154 48.4388 65.5477C48.4267 65.7049 48.4189 65.8639 48.3885 66.0176C48.357 66.1787 48.3638 66.4251 48.1106 66.3575C47.9069 66.3031 47.9263 66.097 47.9551 65.9138C48.0089 65.5695 48.0541 65.2238 48.1103 64.8264ZM37.8368 51.5401C39.03 51.4919 40.212 51.3583 41.394 51.1657C42.5313 50.98 43.6864 50.8181 44.8087 51.3605C45.1504 51.5255 45.5362 51.6317 45.9331 51.6745C47.2789 51.8196 48.5901 51.6066 49.856 51.1947C50.8144 50.8826 51.7712 50.8484 52.7401 50.9287C54.8829 51.1059 56.9953 50.982 59.074 50.3937C60.9332 49.8676 62.7801 49.7417 64.6498 50.4067C65.648 50.7618 66.6984 50.9373 67.7639 50.6931C68.5891 50.5041 69.4151 50.5096 70.2543 50.5786C70.8118 50.6247 71.3811 50.6443 71.937 50.4933C72.0713 50.4569 72.2284 50.4459 72.2599 50.2914C72.2941 50.1239 72.1286 50.0557 72.0196 49.987C71.5838 49.7117 71.1285 49.4733 70.6262 49.3513C70.4825 49.3163 70.3175 49.241 70.1876 49.3764C70.0084 49.563 69.7851 49.5274 69.5655 49.5472C68.8619 49.6118 68.1694 49.4664 67.4714 49.4468C65.8148 49.3996 64.1574 49.4507 62.5002 49.337C61.152 49.2446 59.8061 49.4382 58.4608 49.5354C56.808 49.6548 55.1525 49.6477 53.498 49.6424C52.062 49.6377 50.633 49.7224 49.2006 49.8071C47.8754 49.8858 46.5449 49.7255 45.2174 49.6863C43.5309 49.6366 41.8415 49.6228 40.152 49.7183C39.3898 49.7611 38.5678 49.6752 37.9398 49.223C37.3624 48.807 36.9871 48.9929 36.5533 49.3417C36.2975 49.5472 36.0523 49.7655 35.8538 50.0339C35.5166 50.4889 35.5616 50.7767 35.9872 51.1445C36.5396 51.6215 37.1891 51.5611 37.8368 51.5401ZM65.8032 56.8291C66.5477 56.7985 67.0859 56.3143 67.6434 55.9026C68.0733 55.5853 68.4828 55.2771 69.0037 55.1044C69.7232 54.8654 70.4836 54.7325 71.1253 54.256C71.5251 53.9593 71.5098 53.6867 71.2415 53.3419C71.0903 53.1479 70.8987 53.0047 70.6969 52.8687C70.5543 52.7726 70.4567 52.7875 70.3375 52.9009C69.3271 53.8636 68.0391 54.036 66.7665 54.0625C61.5036 54.1712 56.2395 53.9651 50.9745 54.315C47.343 54.5561 43.6931 54.5785 40.0495 54.4808C39.389 54.4629 38.6717 54.4278 38.1298 54.0617C37.6522 53.7389 37.2868 53.8139 36.834 53.9593C36.2679 54.1414 36.161 54.4397 36.6136 54.8207C37.1068 55.2363 37.6089 55.6523 38.2845 55.7721C38.609 55.8298 38.9773 55.9249 39.2004 56.2042C39.816 56.9745 40.5602 56.9665 41.4196 56.7408C42.5566 56.4428 43.6627 56.4412 44.8071 56.9555C46.1494 57.5583 47.5407 57.6097 48.9449 56.8843C50.0879 56.2941 51.3808 56.2193 52.563 56.7488C53.6775 57.2474 54.7166 57.2535 55.8022 56.7891C56.0067 56.7016 56.2142 56.6214 56.4152 56.5259C57.221 56.1432 58.0107 56.2251 58.7694 56.6437C59.9237 57.2805 61.0172 57.2521 62.1424 56.5209C62.8923 56.0337 63.7231 56.0441 64.5311 56.4751C64.9261 56.6859 65.3391 56.8509 65.8032 56.8291ZM69.9845 55.3055C69.7267 55.3028 69.5063 55.4071 69.2749 55.4622C68.4912 55.6488 67.9479 56.2356 67.3267 56.6826C66.3206 57.4066 65.3327 57.4165 64.2604 56.8324C63.6241 56.4856 62.9176 56.5201 62.3022 56.9251C61.1089 57.7104 59.9019 57.7498 58.6696 57.0763C57.9063 56.6589 57.1774 56.647 56.378 57.0131C55.0919 57.6019 53.8093 57.8663 52.4137 57.1627C51.3498 56.6263 50.1538 56.756 49.097 57.2951C47.7856 57.9642 46.4868 57.9427 45.1251 57.5603C44.5824 57.408 44.1169 57.07 43.5422 56.9949C42.6352 56.8766 41.7755 57.1163 40.9102 57.2904C40.2045 57.4328 39.6352 57.267 39.1447 56.7386C38.9663 56.5469 38.7844 56.3303 38.4766 56.3543C38.4091 56.6705 38.546 56.9331 38.5799 57.2077C38.7438 58.5398 39.7517 59.7668 40.9137 60.0498C42.4253 60.4185 43.9668 60.6306 45.5142 60.6831C47.6166 60.7545 49.7217 60.7377 51.8261 60.7865C53.4291 60.8238 55.0362 60.7366 56.6404 60.6221C59.1308 60.4441 61.6293 60.4621 64.1238 60.379C65.3666 60.3373 66.6048 60.2325 67.7825 59.7563C68.3841 59.5132 68.9332 59.2025 69.2604 58.6068C69.8149 57.5967 70.126 56.5226 69.9845 55.3055ZM70.0991 46.747C70.1677 45.8472 70.0598 44.9627 69.9088 44.0795C69.7845 43.3513 69.5252 42.7231 68.9354 42.2424C68.5452 41.9249 68.1008 41.7028 67.7082 41.3992C67.0511 40.8916 66.2972 40.7398 65.5024 40.694C64.8072 40.654 64.1625 40.9302 63.4872 41.0088C62.1193 41.1675 60.8856 40.7222 59.7222 40.0602C58.3236 39.2645 56.8925 38.884 55.3163 39.4287C54.116 39.8437 52.9749 39.5686 51.8322 39.1213C50.361 38.5449 48.8801 38.6749 47.5391 39.4668C45.6126 40.6043 43.5874 41.2503 41.3663 41.4511C39.7657 41.596 38.5519 42.5675 37.8362 44.0651C37.219 45.3567 37.4063 46.7622 37.4264 48.1373C37.4283 48.2634 37.5228 48.3084 37.5865 48.3867C38.2412 49.1899 39.184 49.2862 40.0665 49.2639C41.7266 49.2216 43.3856 49.2319 45.0444 49.2423C46.0168 49.2487 46.9886 49.3938 47.9599 49.3842C49.4441 49.3695 50.9274 49.2349 52.4115 49.2247C54.2557 49.212 56.0998 49.2101 57.9415 49.1179C59.2546 49.0522 60.5668 48.8428 61.8766 48.8649C63.4307 48.8914 64.9853 49.0478 66.5413 48.9971C67.4857 48.9662 68.4145 49.1736 69.3573 49.1138C69.7652 49.0876 70.0057 48.9576 70.0598 48.4805C70.1257 47.8998 70.0781 47.3234 70.0991 46.747ZM85.0002 44.7281C85.1288 44.8134 85.2136 44.8719 85.3005 44.9273C86.0224 45.3867 86.2196 46.114 85.8548 46.9708C85.548 47.6903 85.2343 47.8093 84.2538 47.5011C84.0109 47.4246 84.0106 47.5093 83.9791 47.6914C83.805 48.7079 83.6084 49.7175 83.6307 50.7615C83.6369 51.0487 83.7154 51.1539 83.9393 51.2551C84.8485 51.6668 85.0664 52.287 84.6047 53.1713C84.4936 53.3835 84.4992 53.5411 84.6101 53.7494C84.9973 54.4759 85.4493 55.1712 86.0286 55.7277C86.5468 56.2257 87.0889 56.7375 87.9949 56.4335C88.9584 56.1106 89.7163 56.9182 89.5527 57.9482C89.5277 58.1058 89.5592 58.2018 89.6873 58.3041C90.3459 58.8298 91.018 59.33 91.7811 59.6903C92.1236 59.8523 92.4355 60.0076 92.5791 59.4448C92.6106 59.3209 92.7852 59.2149 92.9157 59.1413C93.6024 58.7531 94.5067 59.0339 94.8532 59.7792C94.9716 60.033 95.0919 60.0976 95.3462 60.1075C97.8299 60.2052 100.026 59.3777 102.048 57.962C102.253 57.8183 102.302 57.6786 102.284 57.4229C102.213 56.442 103.118 55.5638 103.991 55.795C104.363 55.8935 104.498 55.7605 104.686 55.4904C105.346 54.5437 105.739 53.4577 106.249 52.433C106.37 52.1899 106.289 52.0161 106.112 51.845C105.816 51.5586 105.65 51.2275 105.651 50.7814C105.654 50.1556 106.135 49.9114 106.504 49.6214C106.792 49.3955 106.828 49.1717 106.791 48.8688C106.688 48.0377 106.582 47.2072 106.482 46.3759C106.445 46.0713 106.357 45.8453 105.992 45.8519C105.678 45.8577 105.469 45.6624 105.267 45.4248C104.93 45.0269 104.847 44.5433 104.96 44.0922C105.18 43.2125 104.817 42.5868 104.279 41.9941C104.245 41.956 104.223 41.9061 104.192 41.8644C103.557 41.0088 103.363 40.9476 102.355 41.2801C102.258 41.3118 102.162 41.3529 102.062 41.3717C99.9199 41.777 98.3852 41.4266 97.3754 39.2786C97.25 39.0109 97.1475 38.953 96.8752 39.0705C96.392 39.2791 95.9055 39.5057 95.3693 39.5327C94.215 39.5904 93.3648 38.9809 92.6044 38.1835C92.4656 38.0381 92.3663 37.8458 92.0989 37.9363C91.2505 38.2235 90.4573 38.6175 89.751 39.1804C89.6286 39.278 89.4583 39.3821 89.5266 39.6055C89.7763 40.42 89.3544 41.024 88.8957 41.5932C88.5575 42.0126 88.0955 42.2797 87.5525 42.1942C87.2684 42.1492 87.0932 42.2173 86.9291 42.4132C86.296 43.1701 85.6656 43.9294 85.0002 44.7281ZM77.0828 36.9893C77.1412 36.7904 77.8779 36.5785 78.3474 36.9107C78.3474 36.725 78.3458 36.5871 78.3477 36.4494C78.3584 35.6661 78.7529 35.3689 79.4611 35.6321C79.6053 35.6857 79.6359 35.673 79.6989 35.5358C80.0446 34.7848 80.9595 34.9112 81.4545 35.4572C82.0551 36.1191 82.1178 36.9002 81.8821 37.7133C81.7042 38.3283 81.4422 38.9171 81.2374 39.5247C81.1793 39.6971 81.0665 39.8707 81.2882 40.0727C82.5367 41.208 83.6468 42.5139 85.1918 43.2752C85.4339 43.3944 85.5556 43.4195 85.738 43.1976C86.0791 42.7835 86.349 42.3048 86.7717 41.9638C86.9644 41.8081 86.7819 41.673 86.7424 41.5466C86.5406 40.9015 86.4114 40.2835 86.8021 39.6409C87.27 38.8708 87.8708 38.6407 88.8268 39.0002C89.084 39.097 89.2269 39.0832 89.4446 38.8893C90.2004 38.216 91.1001 37.8005 92.0496 37.4929C92.3257 37.4038 92.5961 37.297 92.8738 37.2148C93.0207 37.1714 93.0968 37.1113 93.1299 36.9416C93.3193 35.9715 94.3708 35.3438 95.4018 35.62C95.3903 35.354 95.3986 35.1002 95.3655 34.8521C95.1285 33.0694 95.5485 31.5119 97.0404 30.4706C98.4877 29.4605 100.045 29.3344 101.688 30.1133C102.873 30.6754 103.271 31.6319 103.418 32.8548C103.625 34.5776 103.081 35.9442 101.751 36.999C101.602 37.1165 101.472 37.2581 101.335 37.39C101.31 37.4131 101.294 37.4446 101.26 37.4907C102.008 37.784 102.7 38.1424 102.936 39.0156C102.968 39.1323 103.023 39.264 102.998 39.3718C102.84 40.0415 103.247 40.4173 103.687 40.7542C104.302 41.2254 104.722 41.8633 105.165 42.4839C105.287 42.6547 105.378 42.754 105.647 42.7388C106.85 42.6704 107.978 44.3035 107.282 45.2096C106.69 45.9802 106.957 46.6692 107.023 47.4097C107.048 47.6845 107.084 47.964 107.126 48.2383C107.193 48.685 107.139 49.1449 107.712 49.4225C108.221 49.6684 108.311 50.2919 108.209 50.8608C108.087 51.5396 107.756 52.0917 107.059 52.2479C106.8 52.3061 106.688 52.3991 106.618 52.6283C106.578 52.7608 106.515 52.8866 106.458 53.013C106.115 53.7723 106.126 53.865 106.907 54.041C107.997 54.2863 109.114 54.2965 110.226 54.2557C110.786 54.2353 111.343 54.1158 111.903 54.1009C112.245 54.0921 112.41 53.9467 112.569 53.6603C113.064 52.7688 113.714 52.0144 114.554 51.4381C114.945 51.1696 115.278 51.1839 115.597 51.5448C115.962 51.9587 116.022 52.4076 115.759 52.8276C115.685 52.9443 115.605 53.0568 115.527 53.1735C116.812 53.7543 116.909 54.2005 115.999 55.2741C116.603 55.5635 116.82 55.9004 116.726 56.4506C116.648 56.9042 116.39 57.1666 115.873 57.1414C116.147 57.5432 116.066 57.9639 116.021 58.3618C115.984 58.6797 115.713 58.7842 115.414 58.8184C114.196 58.9586 113.429 58.3273 112.836 57.3167C112.386 56.5474 112.341 55.6954 112.262 54.8508C112.233 54.5354 112.166 54.5194 111.878 54.5432C110.398 54.6657 108.916 54.7945 107.43 54.5926C107.018 54.5366 106.62 54.4358 106.255 54.2488C105.999 54.1174 105.905 54.182 105.792 54.4174C105.627 54.7611 105.43 55.0898 105.235 55.4173C105.005 55.8024 104.754 56.1266 104.852 56.671C104.966 57.3117 104.158 58.3141 103.524 58.4967C103.286 58.5657 103.024 58.5544 102.84 58.3825C102.579 58.14 102.389 58.252 102.146 58.4082C101.656 58.7235 101.149 59.0108 100.641 59.2949C100.468 59.3923 100.347 59.4707 100.487 59.6895C101.049 60.5663 101.38 61.5734 101.96 62.4412C102.086 62.6305 102.152 62.7585 102.419 62.599C103.09 62.1975 103.756 62.3744 104.334 62.8043C104.984 63.2885 105.523 63.9085 106.045 64.5348C106.294 64.835 106.344 65.1733 106.148 65.5546C105.456 66.9008 104.454 68.0069 103.509 69.1569C103.279 69.4378 102.944 69.5128 102.637 69.31C101.499 68.5576 100.693 67.5878 100.617 66.1086C100.558 64.9478 100.836 63.9344 101.65 63.1047C101.762 62.9911 101.742 62.9 101.667 62.7899C101.063 61.8965 100.696 60.8685 100.146 59.9436C100.025 59.7411 99.9342 59.6456 99.688 59.769C98.4317 60.3986 97.0614 60.4607 95.7045 60.5468C95.2592 60.5752 94.9364 60.576 94.6716 61.076C94.1946 61.9768 92.9136 61.8071 92.4524 60.762C92.133 60.0374 91.3945 60.1591 90.9252 59.7654C90.7942 59.6558 90.77 59.8909 90.7643 59.9991C90.7172 60.9455 90.7506 61.8866 90.9823 62.8106C91.0043 62.8984 91.0339 62.9707 91.1141 63.0228C92.2178 63.7388 92.6324 64.9655 93.1988 66.0628C93.5206 66.6866 93.1148 67.619 92.4161 67.9512C91.4321 68.4185 90.414 68.8106 89.4123 69.2386C89.1922 69.3324 88.9761 69.4361 88.763 69.5454C87.6973 70.0933 87.076 69.6916 86.5705 68.6172C85.9882 67.3792 86.4079 65.9298 87.5028 64.9873C88.318 64.2859 89.2288 63.7355 90.1635 63.2245C90.4732 63.0554 90.5733 62.8713 90.4896 62.477C90.2865 61.5213 90.2114 60.5451 90.4266 59.5736C90.4627 59.4111 90.3793 59.3562 90.276 59.2864C90.0903 59.1614 89.899 59.0417 89.7292 58.8963C89.4852 58.6868 89.3055 58.5707 88.9638 58.8187C88.5155 59.144 88.0379 58.8929 87.647 58.5963C87.2633 58.3055 86.9845 57.919 87.0943 57.3854C87.1401 57.1641 87.2052 57.0029 86.9291 56.8804C85.6847 56.3275 84.976 55.2343 84.3262 54.0937C84.1965 53.8661 84.0738 53.7416 83.7873 53.7416C83.2653 53.7416 82.8176 53.5689 82.6301 52.9854C82.4428 52.4035 82.5275 51.8704 82.9241 51.4262C83.0869 51.2435 83.1962 51.0763 83.1873 50.8368C83.1434 49.6529 83.4033 48.5065 83.6119 47.3559C83.6476 47.1595 83.6264 47.0381 83.5215 46.8803C83.0119 46.1143 83.2685 45.1379 84.0776 44.7149C84.7659 44.3551 84.7659 44.3551 85.2095 43.742C83.4975 43.0122 82.3058 41.6081 80.9826 40.3734C80.8298 40.2308 80.7235 40.1452 80.4614 40.2421C79.1874 40.7139 77.9088 40.9261 76.7524 39.9187C76.602 39.7879 76.5337 39.8318 76.4204 39.9455C75.9512 40.4145 75.3783 40.3522 74.8348 40.185C74.2025 39.9907 73.5447 39.8519 72.9627 39.5126C72.8136 39.4256 72.756 39.5026 72.6699 39.5829C71.7853 40.4054 70.899 41.226 70.0151 42.0493C69.844 42.2085 69.7391 42.3539 69.8782 42.6329C70.3523 43.5853 70.4908 44.6283 70.5107 45.6795C70.5188 46.1066 70.6418 46.1919 71.0351 46.1701C71.7853 46.1284 72.5378 46.1541 73.2899 46.0876C73.5918 46.0611 73.7513 45.9769 73.8272 45.6712C73.987 45.0286 74.1971 44.4009 74.4681 43.798C74.7304 43.2142 75.2381 42.8511 75.6786 42.9137C76.1607 42.9824 76.5248 43.4587 76.6227 44.1741C77.0828 43.9553 77.548 43.5263 78.0232 44.1071C78.4082 44.5778 78.3547 45.2377 77.8766 45.9259C78.2758 45.9336 78.6396 46.0357 78.8201 46.401C78.9434 46.6496 78.9762 46.9556 78.8161 47.213C78.6011 47.5587 78.3119 47.8269 77.9204 47.9605C77.6403 48.0565 77.3508 48.0716 77.0196 48.0794C77.2391 48.5575 77.2529 48.9888 76.7782 49.3055C76.4086 49.5525 75.6431 49.5009 75.2365 49.1518C74.5784 48.5865 74.2074 47.8112 73.9141 47.0119C73.7591 46.5894 73.5549 46.4846 73.1376 46.5202C72.4055 46.5831 71.6674 46.5928 70.9324 46.5889C70.5885 46.5872 70.501 46.7128 70.5153 47.0483C70.5363 47.538 70.5158 48.0308 70.4868 48.5208C70.4717 48.7761 70.5376 48.8941 70.7973 48.9466C71.3206 49.0531 71.7823 49.3279 72.2346 49.6052C72.4969 49.766 72.7967 49.9572 72.7394 50.3275C72.6815 50.7022 72.3724 50.8299 72.0377 50.9207C71.566 51.0487 71.0871 51.0074 70.5987 51.0286C70.6555 51.4284 70.8662 51.7962 70.7529 52.209C70.7034 52.3894 70.8624 52.4399 70.966 52.5246C71.1387 52.6661 71.3225 52.798 71.4745 52.9608C72.0613 53.5896 72.0436 54.2949 71.2856 54.6279C70.4475 54.9959 70.3975 55.5748 70.408 56.3463C70.4359 58.356 68.8972 60.1547 66.9241 60.5054C65.7438 60.7151 64.5575 60.7956 63.3583 60.8271C61.6667 60.8712 59.9748 60.9245 58.2824 60.9383C57.895 60.9416 57.9456 61.068 58.1022 61.3254C58.6163 62.1724 59.1225 63.0239 59.8365 63.7904C60.0569 63.4736 60.3136 63.1699 60.4963 62.8252C60.7376 62.3705 61.0274 62.3195 61.4598 62.5328C62.1596 62.8782 62.7271 63.4176 63.372 63.8425C64.2319 64.409 65.0725 65.0066 65.9267 65.5824C66.2835 65.8233 66.3817 66.1045 66.171 66.5087C65.9515 66.9303 65.6526 67.2887 65.3706 67.6612C64.332 69.0336 63.6128 70.609 62.7053 72.0656C62.1717 72.9223 62.1585 72.9841 61.2227 72.6182C60.9058 72.4943 60.5888 72.3641 60.287 72.2068C59.243 71.6627 58.8009 70.643 59.088 69.485C59.2484 68.8377 59.472 68.2152 59.8067 67.6421C59.9121 67.462 59.9299 67.3654 59.7418 67.2225C59.4133 66.9733 59.1184 66.6778 58.8055 66.4063C58.4668 66.1125 58.3699 65.799 58.6798 65.413C58.8749 65.17 59.0181 64.8791 59.2303 64.6557C59.5376 64.332 59.5341 64.0602 59.2338 63.7399C58.6244 63.0907 58.1799 62.3184 57.7478 61.5425C57.5175 61.1287 57.2229 60.9896 56.7483 61.0313C54.4642 61.233 52.1761 61.3226 49.8848 61.1433C49.6644 61.1262 49.4419 61.1411 49.154 61.1411C49.2961 62.1324 49.4352 63.0907 49.57 64.0492C49.6079 64.3188 49.7352 64.4225 50.0134 64.406C50.4399 64.3803 50.8687 64.401 51.2968 64.4026C51.9183 64.4051 51.9835 64.4758 52.026 65.1658C52.1215 66.7049 52.1702 68.2436 52.026 69.7821C51.9915 70.1477 51.9765 70.518 51.9073 70.8772C51.8374 71.24 51.7106 71.4539 51.2177 71.3923C50.4625 71.2977 49.6886 71.3474 48.9191 71.4111C47.9182 71.4941 46.9087 71.4895 45.9032 71.4867C44.3973 71.482 42.8919 71.4365 41.3862 71.4296C40.9821 71.4277 40.7975 71.3148 40.8075 70.8593C40.8502 68.9491 42.297 67.0117 44.1565 66.4011C44.7126 66.2184 45.2715 66.057 45.8604 66.0835C46.1346 66.0956 46.1954 65.9853 46.2029 65.7179C46.2409 64.3938 46.249 64.3944 47.5534 64.3979C48.0834 64.3993 48.6132 64.3982 49.1699 64.3982C49.0319 63.3909 48.8882 62.4161 48.7714 61.4377C48.7413 61.1863 48.6544 61.1273 48.4203 61.1317C47.753 61.1447 47.0849 61.124 46.4171 61.1259C44.5493 61.1306 42.7008 60.925 40.8882 60.4797C39.3263 60.0956 38.4927 58.918 38.1513 57.2932C38.1085 57.0893 38.0854 56.881 38.0501 56.6754C37.995 56.3551 37.8658 56.1322 37.5403 55.9763C37.0651 55.7489 36.6195 55.449 36.2299 55.071C35.952 54.8012 35.8656 54.4747 35.9291 54.1177C35.994 53.7541 36.3271 53.6705 36.6115 53.5579C36.6889 53.5273 36.7807 53.5383 36.8628 53.5165C37.2098 53.4255 37.5419 53.3468 37.332 52.824C37.2378 52.5892 37.2992 52.3075 37.4501 52.018C36.8237 51.9758 36.2431 51.9176 35.7523 51.5225C35.1114 51.0065 35.0221 50.4147 35.5177 49.7613C35.8368 49.3411 36.2176 48.9822 36.6736 48.7388C36.9298 48.6022 37.0164 48.4334 37.0062 48.1704C36.9863 47.6459 36.9564 47.122 36.9437 46.5974C36.9182 45.533 37.0729 44.4765 37.5981 43.5693C38.5247 41.9693 39.9594 41.019 41.7707 40.9255C43.7943 40.8212 45.5583 40.0732 47.2937 39.0965C48.8101 38.2428 50.4318 38.0775 52.072 38.7447C53.1684 39.1903 54.2624 39.3528 55.4083 38.9627C56.7822 38.495 58.0866 38.7232 59.3544 39.3898C60.0198 39.7396 60.7032 40.0611 61.4006 40.337C62.4647 40.7578 63.5404 40.571 64.6229 40.3464C65.825 40.0972 66.9599 40.3138 67.9791 41.0527C68.3817 41.3443 68.8485 41.5411 69.2047 41.8995C69.4146 42.1108 69.5082 41.9508 69.6532 41.8123C70.5021 41.0003 71.3435 40.1781 72.2257 39.405C72.5645 39.1081 72.6304 38.8156 72.4636 38.4439C72.2508 37.9699 71.9981 37.515 71.7829 37.042C71.6098 36.6618 71.4541 36.2675 71.4551 35.8382C71.4578 34.8775 72.2607 34.3775 73.0843 34.8248C73.2309 34.9045 73.3114 35.0326 73.5 34.8389C73.9475 34.3792 74.4581 34.3199 74.9198 34.6104C75.3885 34.9054 75.5215 35.3137 75.367 35.9767C75.3606 36.0057 75.3783 36.041 75.3864 36.0821C75.9633 36.0156 76.5455 35.9425 76.906 36.5755C77.0104 36.7471 76.9028 37.6206 76.4338 37.9241C75.9851 38.2144 76.0523 38.4197 76.461 38.663C76.6736 38.4186 76.8751 38.1206 77.2709 38.1239C77.1183 37.7498 76.8439 37.4123 77.0828 36.9893Z" fill="black"/>
<path d="M53.3384 31.0174C51.9952 31.5152 50.929 33.1585 50.9725 34.6294C50.9771 34.7927 50.9693 34.8973 51.1682 34.8992C51.6463 34.9037 52.1244 34.9163 52.6022 34.9332C52.821 34.9412 52.8358 34.841 52.8705 34.6319C53.0104 33.789 53.0518 32.9334 53.2254 32.0938C53.2959 31.7525 53.4342 31.3913 53.3384 31.0174ZM55.7452 31.0403C55.6502 32.3407 55.5555 33.6397 55.457 34.9864C55.7898 34.9864 56.1111 34.9873 56.4326 34.9864C56.7555 34.9856 57.1599 35.1048 57.38 34.9497C57.6345 34.7704 57.4071 34.3444 57.4144 34.026C57.4158 33.9738 57.4324 33.9222 57.4349 33.8701C57.4935 32.509 56.8494 31.4288 55.7452 31.0403ZM54.152 34.9459C54.2373 34.9459 54.3272 34.9271 54.4068 34.9489C54.9783 35.1048 55.0733 34.7831 55.097 34.2966C55.1406 33.3911 55.2259 32.4878 55.302 31.5844C55.3677 30.8102 55.2557 30.6946 54.5042 30.6615C54.0821 30.6433 53.8442 30.7479 53.785 31.2304C53.671 32.1608 53.4864 33.0815 53.3672 34.0113C53.248 34.9398 53.2674 34.9426 54.152 34.9459ZM55.1973 35.3228C53.4226 35.3228 51.6482 35.3228 49.8737 35.3228C48.8671 35.3225 47.8606 35.3261 46.854 35.317C46.691 35.3156 46.4251 35.4138 46.4348 35.1015C46.4424 34.857 46.6643 34.8904 46.8314 34.8907C47.9244 34.8915 49.0175 34.8852 50.1102 34.9039C50.4075 34.9092 50.5154 34.8344 50.5377 34.5091C50.6785 32.4602 51.783 31.1076 53.5851 30.3721C54.5069 29.996 55.446 30.2645 56.2747 30.7793C57.3011 31.4167 57.9181 32.3255 57.874 33.619C57.8581 34.0911 57.8772 34.5648 57.8941 35.0375C57.9046 35.3286 57.7984 35.4351 57.5045 35.4279C56.7358 35.4094 55.9663 35.4215 55.1973 35.4215V35.3228Z" fill="black"/>
<path d="M108.232 35.8526C108.186 36.1616 108.349 36.456 108.487 36.7499C108.732 37.2686 109.072 37.3682 109.563 37.0893C110.25 36.6997 110.334 35.3397 109.658 34.9468C109.455 34.8284 109.248 34.499 108.976 34.6502C108.545 34.8897 108.23 35.2561 108.232 35.8526ZM109.066 34.1444C109.42 34.134 109.625 34.353 109.834 34.5081C110.425 34.9454 110.63 35.6029 110.544 36.3059C110.456 37.0247 110.009 37.4769 109.301 37.6568C108.921 37.7531 108.595 37.6488 108.378 37.3732C107.667 36.4709 107.442 35.1184 108.691 34.2954C108.818 34.2123 108.952 34.1229 109.066 34.1444Z" fill="black"/>
<path d="M115.172 65.2762C114.272 65.3485 113.372 65.415 112.474 65.4972C112.282 65.5146 112.066 65.5944 112.045 65.3063C112.027 65.0574 112.264 65.0624 112.419 65.0514C113.864 64.9487 115.309 64.8557 116.755 64.7688C116.881 64.7614 117.052 64.7688 117.066 64.9633C117.081 65.1802 116.921 65.2136 116.759 65.2238C116.231 65.2555 115.703 65.2837 115.174 65.3135L115.172 65.2762Z" fill="black"/>
<path d="M75.0462 68.0929C75.7213 68.0929 76.2855 68.0926 76.85 68.0929C77.0389 68.0932 77.2259 68.1058 77.4005 68.1922C77.5143 68.2488 77.6168 68.3296 77.5848 68.4698C77.5506 68.6185 77.4188 68.6334 77.2937 68.6116C76.1563 68.4129 75.0101 68.5757 73.869 68.5219C73.515 68.5048 73.1571 68.5779 72.8006 68.6069C72.6306 68.621 72.4156 68.6571 72.3908 68.4212C72.3645 68.1699 72.5862 68.2055 72.7532 68.174C73.5513 68.0233 74.3558 68.1116 75.0462 68.0929Z" fill="black"/>
<path d="M74.45 70.6194C75.3575 70.5763 76.2616 70.6296 77.1646 70.7162C77.3362 70.7325 77.5453 70.7157 77.5434 70.9607C77.541 71.2451 77.3069 71.1607 77.156 71.1455C75.6898 70.9982 74.2197 71.0575 72.7509 71.0401C72.6094 71.0385 72.3667 71.1439 72.3742 70.8429C72.3807 70.5777 72.5921 70.6221 72.7563 70.621C73.321 70.6177 73.8855 70.6199 74.45 70.6194Z" fill="black"/>
<path d="M83.0515 26.3697C82.748 26.8625 82.5632 27.4447 82.2879 27.9783C81.9704 28.5936 81.6642 29.2105 81.4084 29.8551C81.3505 30.001 81.3067 30.2278 81.0645 30.1392C80.8032 30.0432 80.9407 29.8531 81.0064 29.7097C81.5173 28.5952 82.0339 27.4836 82.5537 26.3736C82.6277 26.216 82.7203 26.0549 82.942 26.1355C83.0373 26.1702 83.0644 26.2458 83.0515 26.3697Z" fill="black"/>
<path d="M111.628 67.9753C111.4 67.9753 111.298 67.9813 111.196 67.9736C111.042 67.9615 110.999 67.8522 111.008 67.7159C111.017 67.5802 111.115 67.5597 111.225 67.5506C112.345 67.4566 113.464 67.3531 114.584 67.2731C114.735 67.2623 114.969 67.3018 114.98 67.5189C114.992 67.7598 114.796 67.7413 114.613 67.746C113.573 67.7719 112.53 67.7711 111.628 67.9753Z" fill="black"/>
<path d="M75.6648 27.0537C75.6642 26.6172 75.6629 26.1807 75.6648 25.7442C75.6656 25.5679 75.6618 25.3496 75.883 25.3381C76.1397 25.3248 76.0842 25.5571 76.0842 25.7227C76.0848 26.5777 76.0859 27.4331 76.0802 28.2881C76.0789 28.4664 76.1499 28.7428 75.8849 28.7436C75.5808 28.7448 75.672 28.4495 75.668 28.2578C75.6591 27.8566 75.6653 27.4551 75.6648 27.0537Z" fill="black"/>
<path d="M70.9264 29.0167C70.9431 29.1591 70.8793 29.2645 70.7534 29.3001C70.6065 29.342 70.5618 29.2311 70.5064 29.1064C70.1615 28.3277 69.9583 27.4997 69.6914 26.6943C69.6384 26.5343 69.682 26.4124 69.8383 26.3643C69.9879 26.318 70.1122 26.3715 70.148 26.5437C70.3183 27.3618 70.5675 28.1528 70.9065 28.9141C70.9205 28.945 70.9202 28.9822 70.9264 29.0167Z" fill="black"/>
<path d="M102.885 49.1619C103.419 49.1646 103.763 48.8589 103.771 48.3744C103.783 47.6899 103.355 47.1278 102.815 47.1168C102.285 47.106 101.701 47.6689 101.694 48.1959C101.687 48.7138 102.236 49.1585 102.885 49.1619ZM104.178 48.152C104.211 49.0799 103.775 49.5912 102.919 49.6262C102.099 49.6601 101.288 48.9864 101.261 48.2497C101.234 47.5028 101.951 46.7228 102.698 46.6864C103.493 46.6477 104.147 47.2959 104.178 48.152Z" fill="black"/>
<path d="M99.9748 44.7301C100.109 44.7204 100.247 44.7267 100.378 44.6986C100.709 44.6271 100.864 44.3372 100.892 44.0593C100.914 43.8474 100.96 43.5185 100.674 43.3869C100.201 43.1687 99.6963 43.0906 99.195 43.2448C98.9593 43.3174 98.7282 43.4785 98.6868 43.7735C98.6421 44.0916 98.8323 44.2991 99.0592 44.4655C99.3301 44.6638 99.6446 44.7221 99.9748 44.7301ZM98.2598 43.8402C98.2565 43.2432 98.9101 42.6828 99.6158 42.7115C99.9172 42.7236 100.223 42.7816 100.515 42.8638C101.17 43.0489 101.397 43.3618 101.363 43.9699C101.332 44.5314 100.909 45.0978 100.388 45.1539C99.7167 45.2259 99.0643 45.1403 98.5544 44.5962C98.3523 44.381 98.2625 44.1313 98.2598 43.8402Z" fill="black"/>
<path d="M90.4378 46.1955C91.0944 46.2176 91.5165 45.8128 91.5593 45.1203C91.5889 44.6404 91.1735 44.1987 90.6706 44.1755C90.1634 44.1518 89.6603 44.6777 89.6387 45.2538C89.6137 45.9259 89.8252 46.1751 90.4378 46.1955ZM89.2182 45.312C89.1278 44.3852 90.0345 43.7164 90.6437 43.7399C91.4129 43.7697 92.0242 44.3742 92.0008 45.1269C91.9739 45.985 91.3282 46.6579 90.5188 46.6706C89.649 46.6841 89.2104 46.2261 89.2182 45.312Z" fill="black"/>
<path d="M97.9439 56.4909C97.9613 56.7974 97.9172 57.0617 98.1941 57.1933C98.3092 57.2482 98.4201 57.2604 98.5215 57.1566C98.8603 56.8109 99.2117 56.471 99.3618 55.989C99.4199 55.8016 99.5281 55.4987 99.2892 55.4383C99.0327 55.3729 98.7222 55.1196 98.4613 55.3982C98.1637 55.7158 97.9605 56.0985 97.9439 56.4909ZM97.501 56.5149C97.5771 55.8982 97.8233 55.3442 98.3017 54.9422C98.7222 54.5887 99.1511 54.9085 99.5391 55.0614C99.8625 55.1888 99.8884 55.5152 99.8273 55.8667C99.6949 56.6299 99.1958 57.1321 98.6757 57.6025C98.3604 57.8875 97.7057 57.5664 97.5755 57.0981C97.5247 56.9158 97.5252 56.7185 97.501 56.5149Z" fill="black"/>
<path d="M89.6704 51.0086C89.0032 50.999 88.7384 51.2362 88.7225 51.7544C88.7069 52.2533 89.0976 52.7173 89.5276 52.7113C89.9906 52.7047 90.4112 52.1721 90.3477 51.5723C90.3011 51.1344 89.9317 51.0323 89.6704 51.0086ZM89.5545 50.5823C90.3019 50.5843 90.7736 51.005 90.7779 51.6744C90.7833 52.4641 90.2164 53.1674 89.5722 53.1704C88.8842 53.1737 88.3122 52.5562 88.3058 51.8038C88.2982 50.9705 88.6975 50.5801 89.5545 50.5823Z" fill="black"/>
<path d="M94.3961 53.1304C94.0918 53.1304 93.87 53.1317 93.6483 53.1298C93.5098 53.1284 93.3459 53.129 93.3419 52.9402C93.3376 52.7352 93.4955 52.6991 93.6639 52.6983C94.2427 52.695 94.8177 52.6848 95.397 52.6105C96.6769 52.4469 97.8998 52.1583 98.9437 51.3223C99.0893 51.2059 99.2596 51.1176 99.4278 51.0362C99.54 50.9821 99.6672 50.9782 99.7262 51.1314C99.777 51.263 99.7297 51.3524 99.6148 51.436C98.4172 52.3068 97.1149 52.8947 95.6356 53.023C95.1954 53.0614 94.7604 53.1737 94.3961 53.1304Z" fill="black"/>
<path d="M98.1645 48.1725C98.1015 48.3838 97.9498 48.4878 97.7512 48.4848C97.5655 48.4818 97.4291 48.3827 97.4337 48.1623C97.4394 47.9189 97.5846 47.8419 97.7986 47.8218C98.0582 47.7978 98.091 47.9975 98.1645 48.1725Z" fill="black"/>
<path d="M94.0714 48.6249C94.0596 48.8561 93.9622 48.9913 93.7744 49.0147C93.599 49.0363 93.4066 48.98 93.3875 48.7766C93.3687 48.5755 93.5043 48.4113 93.7087 48.3884C93.8831 48.3686 94.0262 48.4593 94.0714 48.6249Z" fill="black"/>
<path d="M56.5517 46.5718C56.525 46.4507 56.5076 46.3361 56.6246 46.2837C56.7217 46.2396 56.831 46.257 56.9077 46.343C57.0231 46.4722 57.1468 46.5983 57.2367 46.7453C57.3301 46.8974 57.5725 47.0378 57.435 47.2367C57.2765 47.4663 57.1105 47.1683 56.9717 47.1694C56.6243 47.1727 56.2746 47.2676 55.9312 47.3496C54.4877 47.6947 53.0342 47.7496 51.5684 47.538C51.3723 47.5096 51.0774 47.5554 51.1328 47.2533C51.1847 46.9707 51.4818 47.0946 51.661 47.1203C53.2533 47.3504 54.8187 47.2133 56.3698 46.8074C56.5159 46.7693 56.7129 46.8102 56.5517 46.5718Z" fill="black"/>
<path d="M57.1404 42.4691C57.2828 42.54 57.4934 42.5406 57.4765 42.7806C57.4614 42.9933 57.283 43.0844 57.1219 43.0789C56.9623 43.0733 56.7627 42.9793 56.7707 42.7715C56.7788 42.5723 56.9685 42.5179 57.1404 42.4691Z" fill="black"/>
<path d="M50.5766 42.4466C50.7448 42.4715 50.906 42.5471 50.91 42.7896C50.9132 42.9791 50.7879 43.0092 50.6369 43.0098C50.4117 43.0106 50.2131 42.9355 50.2043 42.6875C50.1978 42.5037 50.3872 42.4665 50.5766 42.4466Z" fill="black"/>
<path d="M65.669 46.0566C65.6335 46.2412 65.5259 46.2867 65.3715 46.279C65.2019 46.2704 65.0588 46.2293 65.0744 46.0196C65.0854 45.8687 65.2017 45.8403 65.333 45.8389C65.5014 45.8372 65.6281 45.8841 65.669 46.0566Z" fill="black"/>
<path d="M43.9685 45.6538C43.9607 45.8144 43.8808 45.8958 43.7425 45.892C43.6343 45.8889 43.5426 45.8296 43.5307 45.7063C43.5173 45.5622 43.5993 45.4693 43.7293 45.4502C43.8762 45.4287 43.9316 45.5451 43.9685 45.6538Z" fill="black"/>
<path d="M42.7364 46.3013C42.7138 46.4492 42.6269 46.5093 42.4875 46.4963C42.3686 46.485 42.2935 46.4086 42.297 46.2955C42.301 46.1636 42.3753 46.0596 42.5192 46.0593C42.6686 46.059 42.7151 46.1727 42.7364 46.3013Z" fill="black"/>
<path d="M66.2166 43.7862C66.205 43.9581 66.1027 43.9978 65.9757 43.9815C65.8716 43.968 65.7922 43.9128 65.7982 43.7834C65.8049 43.6386 65.8937 43.5608 66.0172 43.5635C66.1452 43.5665 66.2166 43.6623 66.2166 43.7862Z" fill="black"/>
<path d="M41.35 45.0116C41.3244 45.1416 41.2652 45.2279 41.1457 45.2208C41.0093 45.2125 40.9192 45.1223 40.9343 44.9816C40.9491 44.8419 41.0526 44.768 41.1893 44.7931C41.305 44.8146 41.3465 44.9123 41.35 45.0116Z" fill="black"/>
<path d="M64.0292 45.3462C63.8985 45.3459 63.8274 45.2907 63.8323 45.1572C63.8371 45.0195 63.8834 44.9075 64.0392 44.921C64.1476 44.9307 64.2291 45.0057 64.2423 45.123C64.2601 45.2855 64.1538 45.3327 64.0292 45.3462Z" fill="black"/>
<path d="M67.0285 45.9534C67.0177 46.0649 66.9394 46.1535 66.8044 46.1477C66.6949 46.1433 66.6238 46.061 66.6144 45.9421C66.6018 45.7785 66.6973 45.7297 66.8358 45.7352C66.9515 45.7402 67.0301 45.7893 67.0285 45.9534Z" fill="black"/>
<path d="M47.9768 68.5762C48.255 68.8177 48.5994 68.9046 48.8364 69.1631C49.0143 69.3571 49.1343 69.5767 49.0535 69.8206C48.9739 70.0609 48.7226 70.0698 48.4993 70.0982C47.9488 70.1683 47.4109 70.0662 46.8728 69.9864C45.6954 69.8121 44.4978 69.8258 43.3279 69.5819C43.1662 69.548 42.9555 69.5811 42.9039 69.3678C42.8423 69.1145 43.1006 69.1082 43.2268 69.0356C44.7303 68.1704 46.3723 67.6666 48.0064 67.1454C48.1476 67.1004 48.3123 67.1374 48.4654 67.1271C48.6742 67.1131 48.8477 67.1856 48.9209 67.3854C48.9911 67.5761 48.9252 67.7482 48.7874 67.9102C48.562 68.1753 48.2577 68.337 47.9768 68.5762Z" fill="black"/>
<path d="M42.6724 44.4086C42.6565 44.5948 42.5381 44.6249 42.4203 44.6207C42.3076 44.6169 42.2465 44.536 42.2535 44.4135C42.2615 44.2761 42.3232 44.1754 42.465 44.1925C42.5879 44.2074 42.6724 44.291 42.6724 44.4086Z" fill="black"/>
<path d="M62.5839 66.787C62.8592 66.6331 63.0804 66.5037 63.3072 66.3853C63.5286 66.27 63.7673 66.1952 63.9696 66.4024C64.1679 66.6052 64.1924 66.8577 64.1017 67.1341C63.9669 67.545 63.6604 67.8327 63.4323 68.1774C62.8745 69.0194 62.1109 69.6361 61.3511 70.2602C61.2343 70.3562 61.0939 70.4735 60.9332 70.3758C60.7931 70.2906 60.8423 70.1253 60.8477 69.9918C60.8977 68.7673 61.0616 67.5563 61.276 66.3519C61.2943 66.2504 61.332 66.1508 61.3715 66.0553C61.505 65.7325 61.7044 65.4431 62.0803 65.5027C62.4494 65.5614 62.5094 65.908 62.5412 66.2333C62.5581 66.4052 62.5681 66.5779 62.5839 66.787Z" fill="black"/>
<path d="M121.622 85.3847C121.536 85.8147 121.917 86.0969 122.336 86.2984C122.772 86.5076 123.208 86.3806 123.541 86.0651C124.114 85.523 124.45 84.839 124.86 84.1995C125.252 83.5887 124.81 83.3491 124.292 83.2485C123.146 83.0273 121.615 84.2269 121.622 85.3847ZM149.413 83.7597C150.512 81.7761 151.795 80.0398 152.216 77.887C152.301 77.4504 152.169 76.9706 151.746 76.7709C151.341 76.5793 150.995 76.9549 150.722 77.217C150.309 77.6155 149.966 78.0952 149.846 78.6154C149.444 80.3598 148.568 81.7478 148.389 83.5398C148.313 83.7781 148.269 84.2731 148.213 84.5154C148.193 84.6034 148.151 84.7699 148.34 84.7681C148.505 84.7663 148.761 84.5388 148.892 84.4248M147.003 86.8015C146.028 87.2373 145.176 87.6874 144.193 87.831C143.348 87.9553 142.525 87.9181 141.965 87.2305C141.7 86.9056 141.49 86.9882 141.183 87.135C140.878 87.2804 140.547 87.3935 140.214 87.4715C139.197 87.7116 138.552 87.2593 138.51 86.3155C138.471 85.435 138.931 84.6617 139.165 83.8311C138.245 83.5412 137.844 83.7768 137.651 84.6676C137.446 85.6145 136.855 86.4618 136.124 87.1911C135.44 87.8741 134.894 87.9095 134.248 87.2234C133.917 86.8715 133.837 87.1067 133.624 87.2624C133.019 87.7031 132.403 88.1802 131.71 87.3576C131.537 87.152 131.394 87.3024 131.252 87.4181C131.041 87.59 130.841 87.7839 130.601 87.9145C129.847 88.3233 129.12 87.9755 129.067 87.1839C129.018 86.4649 129.124 85.7572 129.363 85.0706C129.466 84.7757 129.553 84.4885 129.455 84.0855C128.917 84.4441 128.634 84.8825 128.356 85.3192C127.944 85.9632 127.519 86.6023 126.915 87.1121C126.603 87.3742 126.258 87.7323 125.763 87.5469C125.257 87.3571 125.037 86.9384 124.967 86.4551C124.94 86.2648 125.075 86.061 124.878 85.8447C124.393 86.3128 124.013 86.9115 123.26 87.0515C122.458 87.2009 121.76 87.0048 121.21 86.4353C120.673 85.8788 120.659 85.242 120.903 84.5904C121.331 83.4451 122.836 82.4672 124.16 82.4421C124.63 82.4336 125.024 82.5871 125.383 82.9218C125.943 82.1908 125.859 81.2865 126.229 80.5236C126.449 80.0667 126.439 79.2185 127.224 79.4146C127.921 79.5897 127.323 80.2673 127.306 80.6995C127.27 81.5899 126.733 82.3707 126.346 83.1723C125.864 84.173 125.809 85.2133 125.814 86.2706C125.815 86.429 125.76 86.6364 125.992 86.7082C126.213 86.7764 126.339 86.6036 126.461 86.4847C126.959 85.9996 127.339 85.4381 127.679 84.857C128.025 84.2655 128.501 83.7781 129.068 83.3572C129.336 83.1583 129.587 82.9425 129.993 83.1287C130.412 83.3208 130.444 83.6453 130.438 83.9958C130.424 84.7757 130.055 85.492 129.938 86.254C129.885 86.5969 129.594 87.0816 130.035 87.2279C130.41 87.3531 130.696 86.8747 130.934 86.5803C131.424 85.9735 131.687 85.2676 131.965 84.5702C132.097 84.2377 132.267 83.8445 132.731 83.976C133.321 84.1439 132.942 84.546 132.824 84.8264C132.531 85.5256 132.294 86.2221 132.527 87.0461C133.418 86.6126 133.836 85.9125 134.057 85.1029C134.165 84.7084 134.325 84.3445 134.537 83.9926C134.669 83.7759 134.841 83.6004 135.139 83.7234C135.41 83.8347 135.468 84.0478 135.374 84.2996C135.182 84.8121 134.949 85.317 134.821 85.8425C134.738 86.1835 134.589 86.6871 135.028 86.8513C135.413 86.9954 135.652 86.5511 135.872 86.2832C136.486 85.5387 136.829 84.6837 137.026 83.7853C137.162 83.1687 137.525 82.9488 138.217 82.9618C140.357 83.0013 140.357 82.9829 139.677 84.8673C139.638 84.975 139.59 85.0818 139.568 85.1931C139.465 85.6993 138.944 86.315 139.545 86.6844C140.073 87.0089 140.647 86.4712 141.195 86.2868C141.55 86.1669 141.488 85.9156 141.554 85.6706C141.961 84.1376 142.861 82.9726 144.587 82.4358C145.019 82.3012 145.403 82.3178 145.722 82.6203C145.914 82.8029 146.147 83.0255 145.909 83.2925C145.713 83.5142 145.477 83.4402 145.248 83.2737C144.83 82.969 144.449 83.2575 144.14 83.4308C143.151 83.9868 142.578 84.8426 142.363 85.855C142.186 86.6839 142.703 87.1839 143.648 87.1233C144.918 87.0416 145.981 86.46 147.013 85.8407C147.214 85.7195 147.223 85.5144 147.25 85.3098C147.543 83.0996 148.343 80.9917 148.879 78.8308C149.066 78.0777 149.491 77.3857 150.045 76.7924C150.54 76.2615 151.145 75.7324 151.985 75.9986C152.852 76.2728 153.026 77.0577 152.999 77.7605C152.948 79.0781 152.533 80.3342 151.85 81.5086C151.689 81.7855 151.513 82.0566 151.361 82.3375C151.079 82.8599 150.804 83.3275 151.268 83.9558C151.582 84.3822 151.483 84.9745 151.313 85.531C150.934 86.7638 151.62 87.3777 153.018 87.1332C153.334 87.078 153.683 86.9635 153.785 87.3692C153.878 87.735 153.52 87.7511 153.254 87.8274C151.502 88.3296 150.124 87.253 150.435 85.6244C150.528 85.1352 150.876 84.4369 150.356 84.2224C149.918 84.0424 149.641 84.8058 149.306 85.1514C148.768 85.7069 148.355 86.3514 148.007 87.025C147.888 87.2534 147.756 87.5357 147.417 87.5146C146.956 87.4868 147.113 87.0887 147.003 86.8015Z" fill="black"/>
<path d="M22.1039 85.8792C23.1539 85.386 23.99 84.6922 24.4429 83.6861C24.5438 83.4617 24.8247 83.1498 24.4385 82.9191C24.1188 82.7284 23.8245 82.9214 23.5884 83.0892C23.3468 83.2611 23.1449 83.4882 22.9575 83.713C22.4385 84.3341 22.3421 85.1114 22.1039 85.8792ZM4.75406 84.707C6.72419 83.9028 8.15295 82.7804 9.37191 81.4453C10.1698 80.5716 10.838 79.6067 11.1541 78.4848C11.2481 78.1509 11.3207 77.8058 10.9573 77.554C10.6242 77.3242 10.3692 77.5818 10.1052 77.703C9.88197 77.8053 9.66373 77.9256 9.46885 78.0669C7.12737 79.7683 6.11571 82.2267 4.75406 84.707ZM4.35039 85.4884C3.75682 86.7131 3.23086 87.7336 2.76405 88.7752C1.95025 90.5928 1.35121 92.4668 1.04298 94.4127C1.0057 94.6452 0.938091 94.875 1.20306 95.0244C1.46754 95.1734 1.69025 95.0262 1.89109 94.8893C2.29327 94.616 2.70738 94.3522 2.9977 93.9676C4.46324 92.0293 5.10206 89.8711 5.10156 87.5415C5.10156 86.8746 4.8694 86.2746 4.35039 85.4884ZM6.4468 85.0409C8.43184 84.9386 9.72985 83.7215 11.1337 82.6808C11.3918 82.4896 11.5906 82.0718 11.9674 82.2935C12.3945 82.5448 12.0604 82.9079 11.9028 83.1956C11.5126 83.9064 11.1129 84.6146 10.6848 85.3075C10.3781 85.8039 10.3801 86.3128 10.4243 86.9572C11.1183 86.5493 11.5116 86.0377 11.9306 85.5525C12.5729 84.8089 13.2316 84.0783 14.0713 83.5057C14.4929 83.2176 14.9487 82.8657 15.5075 83.038C16.1488 83.2351 15.858 83.8108 15.9644 84.3175C16.4073 83.9464 16.7876 83.5761 17.2256 83.2741C17.6914 82.9532 18.2323 82.7544 18.7955 83.1C19.3284 83.4262 19.1584 83.9046 19.0421 84.3431C18.8159 85.1976 18.5907 86.0538 18.3148 86.8953C18.0941 87.5702 18.3257 87.6901 18.9849 87.4352C19.1281 87.38 19.2917 87.3674 19.4373 87.3153C20.3525 86.9877 21.2692 86.7669 21.3612 85.5705C21.4239 84.7564 21.7679 83.9109 22.3719 83.222C22.528 83.0448 22.6612 82.8406 22.8506 82.6992C23.4512 82.2518 24.1218 81.8281 24.8918 82.3097C25.6912 82.8096 25.4233 83.5043 25.0952 84.1501C24.5339 85.2537 23.5153 85.9766 22.4882 86.6956C22.3053 86.8239 21.8703 86.8643 22.1248 87.2471C22.3172 87.5366 22.5767 87.6236 22.9257 87.4778C23.3811 87.2871 23.8424 87.1076 24.2953 86.9132C24.5498 86.8037 24.7949 86.7701 24.9584 87.0102C25.1056 87.2265 24.9575 87.4002 24.7502 87.5047C24.092 87.8364 23.4377 88.186 22.6632 88.2528C22.3734 88.278 22.008 88.2762 21.8738 88.0545C21.3378 87.1663 20.7144 87.5644 20.0483 87.8732C19.7167 88.0271 19.3409 88.1119 18.9765 88.1967C17.8107 88.4691 17.2052 87.9243 17.496 86.8522C17.7779 85.8133 18.0906 84.7811 18.4013 83.7058C17.8902 83.6116 17.6606 83.8889 17.3886 84.1016C16.2015 85.0297 15.3618 86.2006 14.5326 87.3822C14.3661 87.6192 14.211 88.0711 13.777 87.8166C13.425 87.6111 13.6288 87.2682 13.8023 86.9783C14.2816 86.179 14.6852 85.3483 15.0288 84.4925C15.1177 84.2704 15.2038 84.0702 15.076 83.7879C13.9997 84.2919 13.3142 85.1442 12.5913 85.9546C12.1161 86.4878 11.6776 87.0541 11.0433 87.4464C10.2906 87.9118 9.69008 87.6416 9.62992 86.8257C9.57723 86.1059 9.62943 85.4017 10.0545 84.6783C8.59042 85.2249 7.21536 85.9757 5.59422 85.8326C6.29766 88.9933 5.52263 91.7928 3.63304 94.384C3.27659 94.8727 2.76206 95.2111 2.25101 95.5396C1.75637 95.8578 1.17622 95.9395 0.656217 95.606C0.167537 95.2919 0.151132 94.8202 0.245587 94.3032C0.707918 91.7668 1.52669 89.3335 2.7377 87.007C2.85453 86.7822 2.93656 86.5425 3.05487 86.2625C2.55028 86.3397 2.10734 86.4478 1.66191 86.4591C1.44765 86.4645 1.11755 86.3738 1.13147 86.0727C1.1439 85.8021 1.36165 85.702 1.65744 85.7123C2.99522 85.7576 3.67231 85.1163 4.24003 84.0446C5.41475 81.8281 6.40305 79.4801 8.58794 77.8201C9.00205 77.506 9.42262 77.2223 9.88992 76.9854C10.4661 76.6923 11.0527 76.6461 11.5578 77.0594C12.035 77.4494 12.1459 77.9552 11.9635 78.535C11.2819 80.6981 9.79696 82.3523 7.92874 83.7601C7.3983 84.1604 6.8092 84.4966 6.24695 84.8614C6.05406 84.9162 5.84129 84.9409 5.73242 85.1406C6.00137 85.2263 6.23601 85.1994 6.4468 85.0409Z" fill="black"/>
<path d="M54.4277 86.7235C54.7454 86.645 54.8702 86.4413 54.8374 86.1639C54.821 86.0257 54.9109 85.7699 54.6276 85.8018C54.2562 85.8439 54.0161 86.111 53.9624 86.417C53.9266 86.623 54.2492 86.6347 54.4277 86.7235ZM72.3244 82.1173C71.2675 82.6518 71.1074 83.5458 70.6879 84.2773C71.3247 83.6813 72.0808 83.1589 72.3244 82.1173ZM57.2977 83.798C56.8666 84.1229 56.5311 84.4254 56.1428 84.6551C55.6338 84.9558 55.4299 85.3068 55.5711 85.8655C55.7128 86.4274 55.5671 86.9681 54.9964 87.2971C54.4655 87.6031 53.9718 87.3505 53.4971 87.0992C52.828 86.7442 52.7509 86.2303 53.5891 85.6371C54.3656 85.0873 54.6092 84.5797 54.1369 83.7616C53.4419 84.4231 52.737 85.0954 52.0306 85.7663C51.4847 86.2846 50.9031 86.7671 50.2374 87.1584C49.8233 87.4016 49.352 87.5726 48.9041 87.3294C48.4428 87.0785 48.4095 86.6365 48.5367 86.185C48.5661 86.0796 48.5412 85.962 48.5412 85.7587C47.877 86.2618 47.3396 86.7958 46.6635 87.1831C45.3814 87.9182 45.0031 87.7822 44.7262 86.4327C44.7038 86.3237 44.6293 86.2241 44.5592 86.0791C43.8145 86.4341 43.2502 87.0381 42.433 87.2621C41.9507 87.3936 41.3969 87.6337 41.0097 87.2832C40.6423 86.9502 40.5081 86.4377 40.7353 85.9301C40.7795 85.83 40.7701 85.7098 40.7944 85.5379C39.8131 86.1231 38.9098 86.7096 37.9548 87.2163C37.1186 87.6597 36.2099 88.1619 35.243 87.5233C34.1602 86.8084 34.1383 85.8004 34.5261 84.7539C34.9755 83.5408 35.9041 82.7407 37.2399 82.3309C37.5815 82.2264 37.9265 82.2322 38.2133 82.4835C38.4276 82.6715 38.8536 82.8102 38.6344 83.145C38.4246 83.4672 38.095 83.3119 37.8285 83.1167C37.7579 83.0656 37.6515 82.9839 37.5914 83.0009C36.7582 83.2374 36.02 83.609 35.6158 84.3468C35.2425 85.0285 34.806 85.7223 35.2956 86.5077C35.6685 87.1064 36.1805 87.2199 36.8825 86.9147C38.6717 86.1356 40.1869 85.0442 41.5152 83.7271C41.7419 83.5022 41.9184 83.0898 42.3141 83.3075C42.7084 83.5238 42.4767 83.8985 42.3494 84.2194C42.158 84.6996 41.8011 85.1062 41.6604 85.6142C41.5605 85.9745 41.2816 86.4166 41.6092 86.6446C41.9179 86.86 42.3897 86.553 42.7133 86.3582C43.7916 85.7071 44.8162 84.9926 45.5495 83.9986C45.7543 83.7217 45.9546 83.2747 46.3866 83.5309C46.7669 83.7562 46.5079 84.1525 46.3026 84.4411C45.7866 85.1649 45.2741 85.8852 45.6051 86.8667C46.8594 86.3798 47.7001 85.4786 48.5268 84.5447C48.8315 84.201 49.0319 83.4407 49.6324 83.7199C50.2757 84.0192 49.6016 84.5604 49.4828 84.9751C49.3197 85.5406 49.3456 86.0984 49.3202 86.7644C50.6326 86.2335 51.4315 85.2605 52.3582 84.4397C52.8289 84.0233 53.2117 83.5251 53.6194 83.053C53.777 82.8708 53.9137 82.6397 54.204 82.7012C54.5127 82.7667 54.726 82.9264 54.8488 83.2487C55.2967 84.4227 55.3176 84.4146 56.3914 83.5318C56.812 83.1854 57.234 82.8407 57.6645 82.505C57.8753 82.3403 58.107 82.116 58.4087 82.3035C58.7269 82.5019 58.6349 82.7927 58.5305 83.075C58.2323 83.8796 57.8365 84.6574 57.757 85.5222C57.7252 85.8641 57.5586 86.3017 57.933 86.4583C58.2089 86.5741 58.5181 86.2119 58.7642 85.9956C59.8927 85.002 60.7144 83.7513 61.9677 82.8641C62.9152 82.1936 63.5028 82.3098 64.0378 83.2379C64.4872 82.9327 64.8699 82.5257 65.4655 82.4386C66.7914 82.2443 67.6037 83.0445 67.3014 84.2216C67.1602 84.7714 66.948 85.3148 66.9738 85.8911C67.0021 86.5153 67.4302 86.8003 68.0416 86.5189C68.6074 86.2586 69.1547 85.9849 69.3337 85.2821C69.6096 84.1996 70.2588 83.2361 70.8872 82.2829C70.9981 82.1142 71.1527 81.9513 71.3292 81.8395C71.7915 81.5451 72.2881 81.1973 72.8598 81.5967C73.3704 81.9539 73.1308 82.3928 72.925 82.8223C72.476 83.758 71.6956 84.4581 70.9494 85.1887C70.661 85.471 70.0486 85.6222 70.3205 86.1855C70.6009 86.7666 71.1751 86.7828 71.7622 86.7478C71.8566 86.7419 71.9506 86.7209 72.0445 86.7182C72.2414 86.7128 72.5213 86.5781 72.4994 86.9394C72.486 87.1607 72.5312 87.3783 72.1479 87.425C71.2765 87.5327 70.4234 87.5735 69.8596 86.8335C69.5793 86.465 69.4003 86.4911 69.0931 86.7716C68.678 87.1521 68.1366 87.3469 67.5604 87.3595C66.8331 87.3752 66.2485 86.7864 66.1888 86.0719C66.1327 85.4059 66.339 84.77 66.4921 84.135C66.5801 83.7706 66.674 83.4591 66.2724 83.2316C65.903 83.0229 65.5401 83.1217 65.2075 83.3241C64.1481 83.969 63.5476 84.9186 63.0385 85.9436C62.8213 86.3807 62.8228 87.2904 62.0562 86.9924C61.4223 86.746 62.0999 86.0867 62.2774 85.6631C62.609 84.8705 63.0316 84.113 63.0748 83.1616C62.3376 83.4048 61.8906 83.8796 61.4164 84.3486C60.6309 85.1255 59.9941 86.0248 59.0858 86.6984C58.6533 87.0193 58.1811 87.4488 57.578 87.1822C56.9213 86.8923 56.8671 86.2752 56.9452 85.6873C57.0232 85.0999 57.1604 84.5183 57.2977 83.798Z" fill="black"/>
<path d="M85.0983 84.633C84.3656 85.2173 83.1655 85.9973 82.4357 86.5843C82.2065 86.7683 81.9719 87.0878 81.6582 86.7827C81.3206 86.4555 81.6741 86.2136 81.9271 86.0063C82.7683 85.3161 83.601 84.6178 84.4695 83.9567C84.9994 83.5537 85.5776 83.2077 86.0116 82.7046C86.1965 82.4906 86.4595 82.1966 86.794 82.4354C87.0948 82.6494 86.9148 82.9551 86.7548 83.2064C86.2989 83.924 85.8569 84.6456 85.668 85.4673C85.6109 85.7132 85.4597 85.9861 85.7535 86.1732C86.0071 86.3339 86.2358 86.1369 86.448 86.0337C87.1241 85.707 87.6769 85.2389 88.1959 84.7376C88.8442 84.1129 89.4949 83.486 90.264 82.9829C91.2205 82.3568 91.825 82.5794 92.0765 83.6139C92.1074 83.7413 92.1133 83.8741 92.1437 84.099C92.8894 83.5394 93.5227 82.9883 94.3276 82.6472C95.2701 82.2482 95.7295 82.4744 95.6788 83.4267C95.64 84.1623 95.4541 84.8911 95.3586 85.6257C95.3188 85.9349 95.294 86.3191 95.5853 86.5008C95.9233 86.7127 96.234 86.4079 96.507 86.2334C96.9146 85.9735 97.4008 85.794 97.6757 85.3874C97.8517 85.1267 98.1043 84.9871 98.3633 85.2151C98.6143 85.4363 98.5929 85.8039 98.3319 85.9816C97.6325 86.4587 96.9604 87.0156 96.1068 87.2431C95.3735 87.4388 94.8321 87.1888 94.604 86.4528C94.3499 85.6365 94.6537 84.8709 94.7685 84.0878C94.8048 83.8423 94.9495 83.6085 94.8282 83.3123C93.476 83.8387 92.5434 84.7174 91.9289 85.8927C91.8081 86.1234 91.6972 86.3595 91.562 86.583C91.4149 86.8267 91.1837 87.0133 90.87 86.8832C90.5161 86.7364 90.6861 86.456 90.7502 86.2127C90.9237 85.5508 91.1042 84.8897 91.2513 84.2233C91.3035 83.985 91.4183 83.6605 91.1588 83.5088C90.8591 83.3329 90.6403 83.6332 90.4494 83.7979C89.8549 84.3086 89.2787 84.8372 88.707 85.3695C88.1761 85.8627 87.6173 86.3263 86.9362 86.6409C86.4137 86.8819 85.8679 87.2395 85.2713 86.8275C84.6564 86.4026 84.639 85.8182 84.8572 85.2021" fill="black"/>
<path d="M108.325 83.1303C107.121 83.1433 105.465 84.6386 105.374 85.7686C105.349 86.09 105.561 86.225 105.795 86.37C106.07 86.5405 106.318 86.6088 106.647 86.4028C107.65 85.7763 108.438 84.9851 108.993 84.0153C109.355 83.3807 109.138 83.1218 108.325 83.1303ZM108.558 85.9271C108.089 86.3422 107.643 86.6523 107.192 86.9619C106.484 87.448 105.844 87.3187 105.191 86.922C104.546 86.5307 104.426 85.9769 104.635 85.3419C105.145 83.7972 106.265 82.7977 108 82.4248C108.783 82.2565 109.482 82.5509 110.1 82.9939C110.39 83.2016 110.298 83.4328 110.184 83.6814C109.967 84.1535 109.728 84.6211 109.563 85.1085C109.411 85.5627 109.447 86.0069 109.913 86.348C110.346 86.6635 110.793 86.5895 111.25 86.4333C111.933 86.1999 112.539 85.8418 113.135 85.4689C113.396 85.3051 113.731 85.0892 113.969 85.3908C114.249 85.7467 113.88 85.9508 113.575 86.1146C113.089 86.3767 112.609 86.6541 112.103 86.8807C110.359 87.6634 109.589 87.4601 108.558 85.9271Z" fill="black"/>
<path d="M58.9645 80.8672C58.6921 80.8636 58.5047 80.7397 58.4912 80.5261C58.4709 80.1958 58.7627 80.0181 59.053 79.9292C59.3438 79.8399 59.5631 80.0361 59.5511 80.2833C59.5362 80.5921 59.23 80.7375 58.9645 80.8672Z" fill="black"/>
<path d="M87.0338 79.4737C87.2987 79.4638 87.4598 79.5904 87.4767 79.8147C87.4926 80.0324 87.3723 80.2002 87.1014 80.2173C86.8359 80.2344 86.6853 80.0997 86.6594 79.8744C86.6326 79.6397 86.7773 79.5078 87.0338 79.4737Z" fill="black"/>
<path d="M140.729 80.5936C140.695 80.8059 140.592 80.9751 140.331 80.9746C140.04 80.9742 139.872 80.8207 139.89 80.5541C139.906 80.3212 140.091 80.2198 140.331 80.2229C140.59 80.2256 140.71 80.3706 140.729 80.5936Z" fill="black"/>
<path d="M14.5698 78.9866C14.533 79.2913 14.355 79.3775 14.1089 79.3707C13.8688 79.3649 13.7927 79.2213 13.8062 79.0283C13.8191 78.8448 13.8882 78.6913 14.1258 78.6787C14.4042 78.6648 14.4773 78.8614 14.5698 78.9866Z" fill="black"/>
<path d="M51.0525 80.7563C51.0282 80.9636 50.9103 81.0812 50.6921 81.0781C50.4411 81.0745 50.271 80.9542 50.2929 80.7159C50.3088 80.5355 50.454 80.4053 50.6573 80.3955C50.9272 80.3825 51.0301 80.5485 51.0525 80.7563Z" fill="black"/>
</svg>
