<svg width="180" height="110" viewBox="0 0 180 110" fill="none" xmlns="http://www.w3.org/2000/svg">
<path d="M79.7428 8.0266C80.4555 6.8907 80.8786 5.70461 81.4128 4.56799C81.8866 3.55918 82.4707 2.61572 83.1703 1.73149C83.504 1.31013 83.9525 1.02453 84.4497 0.847967C85.5502 0.456575 86.6995 1.01731 86.5893 2.36045C86.4879 3.5942 86.1347 4.78643 85.8344 5.98696C85.1497 8.72164 84.2812 11.4011 83.0232 13.9541C82.5647 14.8846 82.0617 15.8053 81.4708 16.6646C80.5358 18.0237 78.4622 17.933 77.5979 16.539C76.8629 15.3536 76.3069 14.0838 75.6388 12.7847C74.913 13.5747 74.4845 14.482 73.9515 15.3273C73.3318 16.3097 72.6329 17.2434 71.8692 18.1309C71.1193 19.0022 69.9466 18.8306 69.2773 17.9616C68.5753 17.0499 68.3031 15.979 67.9733 14.9348C67.0421 11.9849 66.1693 9.01988 65.6183 5.98082C65.4455 5.02798 65.3679 4.07044 65.4309 3.1046C65.4804 2.33699 65.801 1.67985 66.599 1.43397C67.4019 1.18628 68.2213 1.24477 68.9344 1.7925C70.061 2.65761 70.5959 3.84189 70.9964 5.10019C71.393 6.34622 71.7248 7.60704 71.9137 8.8982C71.926 8.98052 71.9951 9.05562 72.0731 9.1986C72.7831 8.05584 73.1509 6.84593 73.5987 5.67681C74.0184 4.58098 74.4146 3.48805 75.0816 2.49657C75.6825 1.60331 76.644 1.5477 77.2296 2.44928C78.0913 3.77582 78.6243 5.24859 79.2148 6.6932C79.3861 7.11239 79.5485 7.53483 79.7428 8.0266Z" fill="black"/>
<path d="M43.5944 14.2074C43.4946 12.7704 43.1912 11.4619 43.2603 10.1249C43.2872 9.6129 43.3936 9.12041 43.6082 8.66836C44.0003 7.84406 44.7061 7.2465 45.6541 7.18151C46.634 7.11472 47.3652 7.72852 47.781 8.5113C48.7045 10.2487 49.3296 12.0966 49.7294 14.0009C50.1053 15.7921 50.424 17.5945 50.7381 19.3966C50.9355 20.5285 50.4785 21.4518 49.6146 22.2306C49.1864 22.6165 48.7091 22.5252 48.2483 22.3764C47.4627 22.1237 46.75 21.7222 46.0884 21.255C44.1017 19.8512 42.1264 18.4336 40.1447 17.0233C39.9588 16.8908 39.7914 16.6868 39.498 16.8258C40.266 18.6658 41.2421 20.4256 41.739 22.3627C41.8584 22.8278 41.9575 23.2932 42.0454 23.7615C42.1906 24.5352 42.1932 25.2711 41.385 25.7791C40.5302 26.3163 39.6735 26.1669 38.8334 25.7812C38.4125 25.5881 38.1134 25.2451 37.8504 24.8768C35.6854 21.8471 33.9909 18.5983 32.7303 15.1491C32.4941 14.5031 32.1977 13.8763 32.0591 13.1972C31.8425 12.1364 32.0583 11.2138 32.8954 10.4321C33.8116 9.57643 34.9021 9.56849 36.0149 9.8855C37.7682 10.3849 39.1624 11.4911 40.6546 12.4288C41.5816 13.0112 42.5292 13.5644 43.5944 14.2074Z" fill="black"/>
<path d="M12.0966 31.8272C10.2454 32.0214 8.41302 32.0128 6.65552 31.2747C5.10997 30.6259 3.85779 29.6597 3.14204 28.2187C2.71274 27.3551 2.86096 26.3715 3.04643 25.4501C3.46459 23.3725 4.96022 22.029 6.6655 20.8159C8.58082 19.4532 10.7035 18.4895 12.9579 17.7537C13.6452 17.5295 14.3633 17.5432 15.0564 17.6364C16.4356 17.8223 17.3288 19.4716 16.7809 20.7498C16.4541 21.5124 15.9441 22.1467 15.1862 22.5786C13.5653 23.5022 11.9399 24.4185 10.3164 25.3378C9.88906 25.5797 9.56652 25.9126 9.31232 26.3152C8.68027 27.3143 8.95905 27.8234 10.222 27.9486C10.9105 28.0169 11.5855 27.8966 12.2571 27.7887C14.0926 27.4937 15.8405 27.7833 17.4928 28.5321C18.4235 28.9538 19.0713 29.6547 19.2948 30.6526C19.655 32.2608 20.0851 33.8549 19.387 35.4909C18.8317 36.7936 18.0296 37.8623 16.6154 38.4306C15.2595 38.9755 13.9973 39.7582 12.4641 39.8528C11.8535 39.8908 11.2392 39.8821 10.6528 39.7543C9.09037 39.4134 8.67759 37.4189 9.87639 36.1332C10.5169 35.4461 11.3889 35.0695 12.1857 34.5929C12.7582 34.251 13.3914 33.9888 13.8003 33.444C14.0833 33.0667 14.2435 32.6421 14.0169 32.2211C13.8011 31.821 13.3104 31.8784 12.9099 31.8329C12.6453 31.803 12.3735 31.8272 12.0966 31.8272Z" fill="black"/>
<path d="M108.251 18.1402C108.196 16.0113 108.849 13.9832 109.282 11.9263C109.762 9.64618 110.251 7.36354 111.051 5.15709C111.386 4.23169 111.688 3.2756 112.671 2.71307C113.34 2.33034 113.998 2.31373 114.666 2.67949C115.984 3.40161 116.113 3.77856 115.68 5.65933C115.537 6.28144 115.355 6.89561 115.213 7.51808C115.026 8.34166 115.232 9.10892 115.68 9.8166C116.065 10.4246 116.41 10.447 116.94 9.91769C117.465 9.39379 117.818 8.77096 118.087 8.0983C118.457 7.17037 119.014 6.34246 119.656 5.55896C120.205 4.88846 120.946 4.59673 121.779 4.82131C122.586 5.03903 123.078 5.5947 123.257 6.4385C123.526 7.7098 123.111 8.90455 122.859 10.0953C122.311 12.6867 121.729 15.2816 120.727 17.7632C120.143 19.2103 119.392 20.5488 117.861 21.3576C117.056 21.7829 116.298 21.6897 115.587 21.2861C115.016 20.9626 114.988 20.3585 114.981 19.7703C114.968 18.7182 115.48 17.7751 115.647 16.7591C115.73 16.2522 115.744 15.7553 115.723 15.2556C115.701 14.7494 115.185 14.4884 114.669 14.6873C114.099 14.9068 113.736 15.326 113.43 15.8106C112.732 16.9165 112.267 18.1127 111.852 19.3299C111.584 20.1155 110.934 20.4907 110.136 20.6477C109.039 20.8636 108.357 20.3712 108.257 19.3104C108.221 18.9233 108.251 18.5305 108.251 18.1402Z" fill="black"/>
<path d="M23.3409 20.2529C23.3505 21.118 23.6224 21.8271 23.8401 22.5463C23.953 22.9197 24.2533 22.9442 24.5958 22.8652C25.396 22.681 26.1605 22.4312 26.8674 22.0094C27.3205 21.739 27.4246 21.4065 27.2898 20.9681C26.9884 19.9882 26.3698 19.2246 25.4624 18.6703C25.0473 18.4165 24.6031 18.375 24.1515 18.583C23.3432 18.9549 23.4837 19.7113 23.3409 20.2529ZM25.2332 30.7446C25.1933 31.1548 25.1848 31.7563 25.0658 32.338C24.9325 32.9893 24.7282 33.6522 23.9211 33.8681C23.2357 34.0516 22.3471 33.6685 21.8272 33.0218C21.2516 32.3062 21.0047 31.4758 20.8646 30.6121C20.4211 27.877 20.0317 25.1391 19.9357 22.3658C19.8908 21.0681 19.68 19.7719 19.4803 18.4844C19.2941 17.2849 19.5417 16.1537 20.0021 15.0637C20.3642 14.2058 21.0654 13.796 22.0849 13.5779C24.6622 13.0266 26.4454 14.1293 28.163 15.7049C30.8766 18.1945 32.7463 21.1992 34.3794 24.3585C34.8893 25.3453 35.2541 26.3916 35.2234 27.5171C35.1984 28.4244 34.6071 29.1411 33.6939 29.3881C32.8638 29.6127 32.292 29.374 31.6684 28.5551C31.1846 27.9197 30.8394 27.212 30.4719 26.518C29.9858 25.5998 29.4924 25.3229 28.4859 25.6789C26.9711 26.2154 25.7443 27.0546 25.4897 28.7288C25.3968 29.3386 25.2021 29.9347 25.2332 30.7446Z" fill="black"/>
<path d="M133.861 12.242C133.011 12.303 132.299 12.1268 131.579 12.0164C130.992 11.9257 130.417 11.9167 129.853 12.1294C129.356 12.316 129.057 12.6154 129.038 13.1515C129.021 13.6624 129.417 13.8292 129.787 13.9697C131.297 14.5409 132.776 15.1738 134.226 15.8646C135.639 16.5368 136.024 17.806 135.211 18.9986C134.586 19.9149 133.623 19.5997 132.817 19.4687C131.342 19.2282 129.899 18.8195 128.44 18.4934C128.172 18.4335 127.79 18.2569 127.639 18.5256C127.456 18.8498 127.746 19.1177 128.051 19.3076C129.415 20.159 130.973 20.6418 132.419 21.3379C132.656 21.4516 132.907 21.5394 133.149 21.6433C134.578 22.2571 134.929 23.2602 134.164 24.5438C133.405 25.8194 133.017 25.9949 131.45 25.6555C129.44 25.22 127.429 24.7723 125.539 23.97C124.594 23.5692 123.847 22.8977 123.111 22.2279C122.581 21.7462 122.542 21.1332 122.655 20.506C123.189 17.5496 124.073 14.6889 125.284 11.9131C125.716 10.9234 126.011 9.8814 126.438 8.88992C127.006 7.5706 128.578 6.81923 130.07 7.0189C131.933 7.26803 133.691 7.8479 135.441 8.45593C136.394 8.78738 136.912 9.50625 136.802 10.2598C136.638 11.3935 135.791 12.1442 134.556 12.2391C134.289 12.2594 134.019 12.242 133.861 12.242Z" fill="black"/>
<path d="M60.9252 12.225C60.9371 11.3498 60.4667 10.5735 59.7886 9.88459C59.2698 9.3578 58.5783 9.20724 57.8671 9.2271C56.9936 9.25129 56.9682 9.33 57.2101 10.1222C57.3165 10.4713 57.4044 10.8252 57.5123 11.1732C57.8986 12.4218 58.2807 13.6714 58.6877 14.9138C58.7553 15.1203 58.7699 15.5731 59.2303 15.2323C60.2313 14.491 60.8607 13.5541 60.9252 12.225ZM51.7572 5.52947C51.6539 4.243 52.1576 3.93502 53.5511 3.80467C55.266 3.644 56.9494 3.65195 58.6367 3.95813C60.2409 4.2495 61.535 4.99654 62.412 6.30503C63.9364 8.57936 65.1245 11.0064 64.964 13.7465C64.8135 16.3043 62.9726 19.3152 60.009 20.2211C58.9254 20.5522 57.8714 20.9688 56.7893 21.3053C55.6988 21.6451 55.2798 21.4555 54.9296 20.411C54.6163 19.4773 54.3698 18.5212 54.1455 17.564C53.2843 13.8891 52.4871 10.202 51.824 6.49025C51.7675 6.17541 51.7779 5.85009 51.7572 5.52947Z" fill="black"/>
<path d="M174.419 31.7993C174.419 32.1033 174.429 32.242 174.418 32.3784C174.309 33.6237 173.481 34.3838 172.087 33.627C170.88 32.9713 169.73 32.2517 168.702 31.3621C168.486 31.1757 168.26 30.8595 167.9 31.1093C167.585 31.3278 167.452 31.6614 167.551 32.0206C167.71 32.5987 167.95 33.1367 168.417 33.579C169.086 34.2134 169.743 34.8597 170.296 35.5948C170.695 36.1263 170.854 36.691 170.753 37.3358C170.613 38.224 170.019 38.5429 169.142 38.1374C168.155 37.6814 167.262 37.0842 166.399 36.4447C166.017 36.162 165.614 35.9031 165.208 35.6518C164.976 35.5085 164.724 35.2438 164.43 35.4767C164.12 35.7226 164.116 36.0566 164.263 36.4166C164.62 37.2947 165.232 38.0063 165.933 38.6432C166.43 39.0938 166.847 39.5993 167.244 40.116C167.942 41.023 167.613 42.6153 166.619 43.233C166.012 43.6104 165.41 43.3789 164.819 43.1428C163.264 42.521 162.041 41.4703 160.815 40.4207C160.365 40.0348 159.916 39.6477 159.467 39.2599C158.191 38.1576 157.317 36.4083 158.616 34.4621C159.226 33.5494 159.852 32.6788 160.662 31.899C161.543 31.0512 162.105 29.9387 163.059 29.1354C164.26 28.1233 165.316 26.9661 166.812 26.2646C167.562 25.9129 168.209 25.9079 168.878 26.2267C170.793 27.1391 172.42 28.3985 173.75 29.9846C174.232 30.5587 174.494 31.2162 174.419 31.7993Z" fill="black"/>
<path d="M161.664 26.7234C161.366 26.7187 160.933 26.7071 160.496 26.6187C159.28 26.3728 158.283 26.7934 157.5 27.6463C156.386 28.8598 155.298 30.095 154.225 31.3414C153.684 31.9696 153.106 32.5502 152.398 33.0109C151.264 33.7482 150.22 33.42 149.763 32.1956C149.487 31.4569 149.648 30.764 149.905 30.0527C150.675 27.9268 152.002 26.0915 153.271 24.2234C154.065 23.0546 154.107 23.0106 153.108 21.9043C151.396 20.0102 152.618 17.8081 154.664 17.3816C155.591 17.1888 156.55 17.4094 157.254 17.8532C159.375 19.1891 161.717 20.1672 163.795 21.5635C164.662 22.1462 165.02 22.9582 165.148 23.8923C165.333 25.2398 164.021 26.6497 162.536 26.7216C162.293 26.7335 162.048 26.7234 161.664 26.7234Z" fill="black"/>
<path d="M149.326 19.1234C148.663 19.1617 148.155 19.0678 147.701 18.8411C147.304 18.6428 147.216 18.7923 147.019 19.109C145.329 21.8278 144.202 24.8329 142.247 27.4148C141.804 28.0005 141.298 28.5449 140.482 28.6442C139.105 28.8118 138.067 27.5462 138.341 26.0691C138.576 24.8033 139.073 23.6201 139.561 22.4268C140.309 20.6045 141.365 18.8927 141.764 16.9426C141.899 16.2782 141.891 15.7922 141.151 15.4016C140.439 15.0254 139.794 14.5108 139.191 13.9833C138.424 13.3114 138.025 12.5391 138.689 11.41C139.074 10.7554 139.944 10.4038 140.952 10.5352C142.745 10.7695 144.291 11.6079 145.884 12.3199C147.331 12.9659 148.742 13.6804 150.089 14.4989C150.686 14.8618 151.296 15.2254 151.634 15.8312C152.488 17.3639 151.557 18.9291 149.698 19.1212C149.529 19.1386 149.356 19.1234 149.326 19.1234Z" fill="black"/>
<path d="M105.84 1.61622C107.321 1.46566 108.22 2.30332 108.781 3.60675C108.934 3.96276 108.742 4.25847 108.538 4.49099C107.834 5.2976 107.147 6.08147 106.012 6.47322C104.639 6.94657 103.359 7.62754 102.68 8.9826C102.267 9.80727 102.047 10.6601 102.088 11.5656C102.113 12.1412 102.377 12.6131 102.891 12.9543C103.646 13.4554 104.413 13.9432 105.14 14.4794C106.457 15.4535 106.583 17.0375 105.486 18.2193C104.822 18.9345 103.992 19.1339 103.051 18.9169C101.481 18.5536 100.196 17.8084 99.096 16.6364C97.4387 14.8715 96.491 12.9178 96.5263 10.5525C96.5985 5.68827 99.3782 2.75031 104.18 1.66713C104.669 1.55664 105.19 1.52487 105.84 1.61622Z" fill="black"/>
<path d="M94.1623 5.54497C93.9911 8.97 93.7257 12.3867 92.4778 15.6522C92.108 16.6195 91.5151 17.4235 90.2802 17.4791C88.9969 17.5366 88.2777 17.0755 87.8646 15.9262C87.3869 14.5982 87.3807 13.2172 87.4706 11.8408C87.5681 10.3547 87.6822 8.86746 87.8661 7.38892C88.1065 5.45362 88.4624 3.53927 89.7534 1.91702C90.0333 1.56499 90.3697 1.27758 90.7468 1.01401C92.2846 -0.0623169 93.4516 0.866335 93.8544 2.13511C94.0264 2.6785 94.1024 3.25656 94.1516 3.82451C94.2007 4.39427 94.1623 4.97125 94.1623 5.54497Z" fill="black"/>
<path d="M98.6687 60.0794C98.6741 59.5593 98.1214 58.9703 97.6266 59.0759C97.13 59.1818 97.0055 59.6532 96.9859 60.1066C96.9598 60.7063 97.3542 61.1002 97.93 61.0974C98.2841 61.0952 98.6637 60.5719 98.6687 60.0794ZM103.49 67.0334C103.891 67.047 104.288 66.5579 104.316 66.0179C104.342 65.5026 103.857 65.1343 103.131 65.1188C102.668 65.109 102.303 65.4735 102.295 65.9544C102.287 66.4248 102.941 67.0148 103.49 67.0334ZM120.105 65.7656C120.171 66.011 120.217 66.2942 120.526 66.4665C120.841 66.6417 121.047 66.4786 121.29 66.3303C121.749 66.0505 121.981 65.6104 122.13 65.1283C122.232 64.7998 122.126 64.5655 121.736 64.4647C120.936 64.2573 120.101 64.8814 120.105 65.7656ZM109.626 70.1623C110.007 70.2069 110.505 69.6793 110.569 69.1652C110.622 68.7438 110.007 68.0599 109.524 68.0027C109.091 67.9515 108.533 68.4735 108.455 69.0027C108.386 69.4655 109.018 70.0912 109.626 70.1623ZM126.123 57.8872C126.068 57.5065 125.978 57.1164 125.592 56.9479C125.261 56.8041 125.065 57.1177 124.841 57.2954C124.684 57.4196 124.528 57.5438 124.37 57.6659C124.081 57.8894 123.986 58.2059 124.109 58.5208C124.271 58.9374 124.559 59.3114 125.023 59.3876C125.355 59.442 125.634 59.1704 125.797 58.9106C125.983 58.6137 126.098 58.2609 126.123 57.8872ZM110.595 43.1186C110.858 43.1186 110.961 43.1322 111.058 43.1163C111.608 43.0272 111.745 42.5577 111.898 42.1366C111.988 41.8894 111.942 41.6213 111.686 41.4426C111.114 41.043 109.716 41.4174 109.428 42.0525C109.366 42.1878 109.389 42.3146 109.44 42.4559C109.67 43.104 110.254 43.0348 110.595 43.1186ZM123.224 50.6328C123.233 50.8377 123.204 51.0286 123.256 51.1943C123.398 51.6464 123.601 52.052 124.173 52.0656C124.695 52.0779 125.03 51.8648 125.187 51.3429C125.366 50.7435 125.152 50.268 124.421 49.7628C123.699 49.2642 123.377 49.3941 123.251 50.2392C123.231 50.377 123.231 50.5177 123.224 50.6328ZM100.105 52.9413C100.096 52.341 99.3321 51.5762 98.7772 51.6122C98.3976 51.6366 97.7717 52.4108 97.7846 52.8399C97.8016 53.401 98.6218 54.1079 99.258 54.1095C99.7234 54.1108 100.114 53.5724 100.105 52.9413ZM118.949 45.7935C119.117 45.7707 119.275 45.735 119.433 45.7306C120.043 45.7129 120.071 45.3553 119.941 44.889C119.771 44.2795 119.332 43.9213 118.799 43.6589C118.424 43.4742 118.018 43.4056 117.671 43.6902C117.3 43.994 117.148 44.4328 117.109 44.9061C117.098 45.0404 117.18 45.1359 117.29 45.1947C117.816 45.4764 118.351 45.7325 118.949 45.7935ZM112.324 41.4291C112.576 41.8002 112.117 42.2754 112.658 42.515C113.873 43.0547 115.098 43.5741 116.302 44.1394C116.779 44.3632 116.77 43.9608 116.926 43.7531C117.139 43.4692 116.966 43.3468 116.72 43.2365C116.14 42.9766 115.539 42.7502 114.995 42.429C114.199 41.9589 113.393 41.5476 112.324 41.4291ZM102.859 45.0202C102.544 44.9709 102.252 45.183 101.981 45.5763C101.576 46.165 101.661 46.7325 101.859 47.3433C102.008 47.8017 102.314 47.9244 102.742 47.8235C103.458 47.655 103.793 47.0926 104.104 46.495C104.36 46.0044 104.293 45.6177 103.857 45.2671C103.6 45.06 103.308 45.0743 102.859 45.0202ZM91.8184 46.0262C92.817 45.9955 93.6336 46.0464 94.1532 45.3841C94.9938 44.3123 95.5072 43.0926 95.2631 41.6924C95.1846 41.2406 94.8829 40.8597 94.4058 40.6845C93.9161 40.5049 93.61 40.6889 93.5964 41.2005C93.5898 41.4569 93.5955 41.7117 93.7039 41.9656C93.778 42.1388 93.7922 42.4 93.5431 42.4717C93.3139 42.5381 93.2628 42.3159 93.1934 42.1477C93.1178 41.9643 93.0352 41.7812 92.9349 41.6105C92.8031 41.3854 92.6492 41.1063 92.3459 41.2058C92.0413 41.3061 92.0874 41.6203 92.1183 41.8792C92.1602 42.2352 92.2075 42.5903 92.4027 42.9074C92.4954 43.0575 92.6095 43.2298 92.391 43.3769C92.1646 43.5292 92.0656 43.3282 91.9574 43.1998C91.7162 42.915 91.3833 42.7733 91.074 42.5909C90.8851 42.4793 90.7337 42.5179 90.5837 42.6488C90.4222 42.7898 90.4988 42.9216 90.5827 43.0724C90.7899 43.442 91.0084 43.8055 91.3899 44.0129C91.6084 44.1318 91.7935 44.2687 91.6472 44.5103C91.4867 44.7761 91.2717 44.5969 91.0872 44.4846C91.0185 44.4432 90.9494 44.4034 90.88 44.3629C90.5427 44.165 90.1993 44.0736 89.9212 44.4388C89.627 44.8251 89.797 45.1467 90.111 45.435C90.6685 45.9462 91.3401 46.0613 91.8184 46.0262ZM90.013 54.5793C90.2743 54.5875 90.6146 54.5961 90.9418 54.4699C91.463 54.2692 91.8461 53.7779 91.6787 53.4582C91.4233 52.9698 90.9686 53.1374 90.5616 53.193C90.5036 53.2009 90.45 53.2423 90.3916 53.249C90.1968 53.272 89.9748 53.5376 89.8121 53.2388C89.6557 52.9508 89.9707 52.8825 90.1082 52.739C90.2747 52.5651 90.4415 52.3893 90.6269 52.2366C90.9412 51.9777 91.015 51.6473 90.9677 51.2648C90.9031 50.7409 90.6458 50.5917 90.1971 50.8468C89.7907 51.0783 89.4675 51.4033 89.2329 51.813C89.1304 51.9923 89.0689 52.3078 88.7804 52.1367C88.5588 52.0055 88.6417 51.7431 88.7609 51.5477C88.9655 51.2123 89.0863 50.8544 89.0279 50.4643C88.9747 50.109 88.7924 49.7764 88.433 49.7097C88.0886 49.6458 87.7765 49.8323 87.6059 50.1693C87.2528 50.8655 87.0544 51.6205 86.7839 52.347C86.5815 52.8911 86.6401 53.3413 86.87 53.8234C87.1547 54.42 87.4766 54.995 87.8525 55.5372C88.1016 55.8964 88.4339 56.1401 88.8901 56.1645C89.1749 56.1797 89.4757 56.1872 89.6317 55.8977C89.7944 55.5957 89.5693 55.3681 89.3984 55.1591C89.2859 55.0229 89.0878 54.9331 89.1638 54.7181C89.2483 54.4794 89.4716 54.6097 89.6333 54.5822C89.7304 54.566 89.8332 54.5793 90.013 54.5793ZM88.1091 45.6778C88.5723 45.7024 89.0235 45.6067 89.1364 45.1334C89.2458 44.6731 88.7792 44.4748 88.4686 44.2415C88.3762 44.1723 88.2542 44.129 88.1394 44.1062C87.955 44.0695 87.7585 44.0392 87.7664 43.8046C87.7746 43.5703 88.0145 43.5438 88.1665 43.5125C88.6458 43.4129 89.0175 43.172 89.2827 42.7692C89.6078 42.2763 89.4013 41.8653 88.8192 41.7904C88.2712 41.7202 87.9408 42.0983 87.5542 42.3671C87.4404 42.4458 87.3281 42.5606 87.185 42.4316C87.0617 42.3206 87.0771 42.1755 87.1427 42.0446C87.2676 41.7952 87.4183 41.5584 87.5365 41.3061C87.8187 40.7054 87.697 40.2985 87.1787 40.056C86.6972 39.8303 86.2353 40.0503 85.9764 40.614C85.8859 40.811 85.9537 41.0108 85.9253 41.2071C85.901 41.3759 85.9581 41.6229 85.7068 41.6301C85.4435 41.6374 85.4265 41.4028 85.4114 41.1945C85.3984 41.0158 85.3713 40.8385 85.3452 40.6611C85.302 40.3706 85.0872 40.27 84.8375 40.2324C84.5648 40.191 84.3185 40.2403 84.1732 40.5163C84.0203 40.8059 83.9679 41.0797 84.0505 41.4284C84.3188 42.5618 85.2231 43.4372 85.3184 44.6361C85.3244 44.7101 85.4385 44.7995 85.5221 44.8394C86.3488 45.2323 87.232 45.4495 88.1091 45.6778ZM134.619 66.9054C134.818 66.8418 135.18 67.0521 135.247 66.6784C135.304 66.3616 135.374 65.9914 135.034 65.7378C134.891 65.6316 134.783 65.4884 134.592 65.441C134.396 65.392 134.189 65.2895 134.259 65.0353C134.332 64.7682 134.578 64.8463 134.765 64.863C134.983 64.8823 135.197 64.9591 135.414 64.9718C135.96 65.0037 136.246 64.6009 135.992 64.1283C135.854 63.8703 135.541 63.845 135.277 63.7711C135.004 63.6952 134.565 63.9604 134.479 63.5871C134.387 63.1925 134.891 63.2617 135.115 63.1021C135.514 62.8166 135.991 62.4736 135.845 61.9681C135.694 61.4432 135.128 61.5118 134.662 61.5909C134.643 61.5944 134.622 61.5975 134.603 61.5978C134.429 61.5997 134.218 61.6879 134.112 61.4907C133.998 61.2766 134.213 61.1783 134.327 61.0484C134.551 60.7926 134.787 60.5447 134.992 60.2732C135.231 59.9564 135.07 59.6744 134.864 59.4117C134.635 59.1214 134.408 59.2688 134.189 59.4224C133.392 59.9817 132.754 60.6927 132.248 61.5216C132.045 61.8552 131.747 62.1514 131.793 62.6007C131.87 63.3541 131.837 64.1438 132.159 64.8346C132.785 66.1785 133.38 66.9032 134.619 66.9054ZM118.385 76.8157C118.845 77.6554 119.29 78.3965 120.089 78.8568C120.399 79.0354 120.631 79.0613 120.847 78.7284C120.966 78.5451 121.134 78.3939 121.274 78.2242C122.115 77.2087 123 76.2261 123.611 75.0396C123.742 74.7845 123.891 74.5584 123.654 74.2799C123.055 73.5777 122.431 72.8999 121.695 72.3428C121.323 72.0608 120.866 71.8781 120.402 72.0162C119.558 72.2673 118.549 73.0267 118.373 74.2748C119.046 74.352 119.718 74.4332 120.391 74.5018C120.557 74.5189 120.728 74.5072 120.733 74.7336C120.738 74.9985 120.542 74.9805 120.356 74.9963C119.95 75.031 119.562 74.916 119.166 74.8749C118.114 74.7658 118.129 74.7674 118.161 75.8464C118.172 76.1907 118.304 76.3149 118.623 76.3143C119.143 76.3134 119.664 76.3086 120.184 76.3292C120.372 76.3367 120.692 76.1784 120.7 76.5372C120.708 76.92 120.366 76.8034 120.154 76.81C119.594 76.8271 119.034 76.8157 118.385 76.8157ZM101.418 77.3342C101.342 77.5928 101.49 77.9415 101.593 78.2779C101.879 79.2118 102.715 79.6389 103.489 79.2659C104.099 78.9715 104.741 78.7531 105.352 78.4723C106.165 78.0983 107.05 77.8979 107.817 77.423C108.38 77.075 108.724 76.4702 108.541 75.9925C108.109 74.8648 107.465 73.8518 106.698 72.9252C106.449 72.6245 106.113 72.5199 105.751 72.818C105.472 73.0475 105.15 73.2072 104.815 73.3441C104.485 73.4788 104.352 73.6713 104.609 74.013C104.909 74.4139 105.114 74.8704 105.305 75.3333C105.377 75.5094 105.484 75.6709 105.261 75.7942C105.021 75.9264 104.917 75.7092 104.858 75.5622C104.678 75.1148 104.466 74.6861 104.19 74.2941C104.094 74.1575 104.107 73.7762 103.76 74.0216C103.524 74.1876 103.223 74.2941 103.402 74.713C103.565 75.094 103.857 75.418 103.887 75.8651C103.898 76.0323 104.073 76.2201 103.823 76.3159C103.515 76.4338 103.419 76.1619 103.395 75.9602C103.35 75.5818 103.081 75.314 102.979 74.9694C102.912 74.7449 102.796 74.6864 102.602 74.8723C101.93 75.5151 101.443 76.2463 101.418 77.3342ZM69.3904 80.3854C69.3604 80.9794 69.6338 81.4325 70.0282 81.8305C70.5078 82.3148 71.1602 82.4827 71.7394 82.7881C72.2795 83.073 72.4766 82.8605 72.7569 82.4201C73.8412 80.718 74.7121 78.884 75.933 77.2675C76.1862 76.9321 76.4589 76.6105 76.7007 76.2669C76.918 75.9593 76.9896 75.7038 76.5592 75.4389C75.6574 74.8837 74.8139 74.2337 73.9153 73.6729C73.1684 73.2065 72.5141 72.6084 71.7312 72.1936C71.3922 72.014 71.2173 72.0684 71.0028 72.3868C70.4561 73.199 69.8655 73.9814 69.2933 74.7762C68.7821 75.4857 68.7821 75.4863 69.4105 76.0408C69.6656 76.2659 69.9062 76.5125 70.183 76.7066C70.5639 76.9738 70.6276 77.2248 70.3615 77.6424C69.8302 78.4758 69.5137 79.4015 69.3904 80.3854ZM56.1447 74.2808C55.8685 74.2808 55.649 74.2805 55.4296 74.2808C54.4275 74.2818 54.4275 74.2818 54.4348 75.2884C54.4414 76.1957 54.4345 76.203 53.5598 76.2128C50.9295 76.2429 48.7407 77.9836 48.1264 80.534C47.9713 81.1767 48.0429 81.2712 48.6949 81.3098C49.014 81.3291 49.3319 81.3762 49.6513 81.3835C52.9954 81.4596 56.338 81.3645 59.6808 81.2734C60.0116 81.2643 60.1074 81.1798 60.1503 80.8454C60.4177 78.766 60.296 76.6842 60.2525 74.6017C60.2427 74.1303 59.8949 74.2337 59.7193 74.2988C59.3469 74.4367 58.7434 73.9659 58.605 74.6558C58.5407 74.9751 58.6589 75.3295 58.6807 75.669C58.6908 75.8281 58.6022 75.945 58.4344 75.9444C58.3001 75.9438 58.2213 75.8455 58.2017 75.7133C58.1639 75.4566 58.0775 75.1923 58.1078 74.9428C58.1765 74.3795 57.9438 74.234 57.4169 74.2587C56.5975 74.2963 56.5971 74.2682 56.5297 75.1072C56.5155 75.2874 56.5063 75.4695 56.4707 75.6456C56.4338 75.8303 56.4417 76.1126 56.145 76.0351C55.9063 75.9729 55.929 75.7367 55.9627 75.5268C56.0258 75.1322 56.0788 74.7361 56.1447 74.2808ZM44.1054 59.0569C45.5037 59.0016 46.8889 58.8486 48.274 58.6279C49.6068 58.4152 50.9604 58.2296 52.2756 58.8511C52.676 59.0402 53.1281 59.1619 53.5932 59.2109C55.1704 59.3772 56.7069 59.1331 58.1904 58.6611C59.3135 58.3036 60.4347 58.2644 61.5701 58.3564C64.0812 58.5593 66.5567 58.4174 68.9928 57.7433C71.1715 57.1404 73.3358 56.9963 75.5269 57.7582C76.6966 58.1651 77.9276 58.3662 79.1762 58.0864C80.1432 57.8698 81.1112 57.8761 82.0947 57.9552C82.748 58.008 83.4152 58.0304 84.0666 57.8575C84.2239 57.8157 84.4081 57.8031 84.445 57.626C84.485 57.4341 84.2911 57.3561 84.1634 57.2773C83.6526 56.9618 83.1191 56.6887 82.5304 56.5489C82.3621 56.5088 82.1688 56.4225 82.0165 56.5777C81.8065 56.7914 81.5448 56.7506 81.2875 56.7734C80.463 56.8474 79.6514 56.6808 78.8335 56.6583C76.8921 56.6042 74.9498 56.6627 73.0079 56.5325C71.4279 56.4266 69.8507 56.6485 68.2742 56.7598C66.3373 56.8967 64.3972 56.8885 62.4584 56.8825C60.7756 56.8771 59.101 56.9741 57.4223 57.0712C55.8694 57.1613 54.3102 56.9776 52.7545 56.9327C50.7782 56.8758 48.7984 56.86 46.8186 56.9694C45.9253 57.0184 44.962 56.9201 44.2261 56.4019C43.5495 55.9252 43.1096 56.1382 42.6013 56.5379C42.3015 56.7734 42.0142 57.0235 41.7815 57.3311C41.3865 57.8524 41.4391 58.1822 41.9379 58.6036C42.5853 59.1502 43.3464 59.081 44.1054 59.0569ZM76.8786 65.1172C77.751 65.0821 78.3816 64.5273 79.0349 64.0556C79.5388 63.692 80.0187 63.3389 80.6291 63.141C81.4723 62.8672 82.3633 62.7148 83.1153 62.1688C83.5839 61.8289 83.5659 61.5166 83.2515 61.1214C83.0743 60.8991 82.8498 60.7351 82.6134 60.5792C82.4462 60.4692 82.3318 60.4863 82.1921 60.6162C81.0081 61.7192 79.4988 61.9168 78.0074 61.9472C71.84 62.0717 65.671 61.8356 59.5011 62.2365C55.2454 62.5128 50.9683 62.5384 46.6984 62.4265C45.9244 62.4059 45.0837 62.3658 44.4487 61.9462C43.889 61.5763 43.4609 61.6623 42.9302 61.8289C42.2668 62.0376 42.1416 62.3794 42.672 62.816C43.2499 63.2921 43.8383 63.7688 44.63 63.906C45.0103 63.9721 45.4419 64.0812 45.7033 64.4011C46.4247 65.2838 47.2969 65.2747 48.304 65.0161C49.6364 64.6746 50.9327 64.6727 52.2737 65.262C53.8467 65.9528 55.4772 66.0116 57.1228 65.1805C58.4622 64.5042 59.9772 64.4185 61.3627 65.0252C62.6687 65.5965 63.8864 65.6035 65.1586 65.0714C65.3983 64.9712 65.6414 64.8792 65.8769 64.7698C66.8213 64.3313 67.7467 64.4252 68.6358 64.9048C69.9885 65.6344 71.2699 65.6019 72.5885 64.7641C73.4673 64.2058 74.4409 64.2178 75.3878 64.7116C75.8507 64.9531 76.3347 65.1422 76.8786 65.1172ZM81.7784 63.3714C81.4764 63.3683 81.2181 63.4878 80.947 63.551C80.0285 63.7647 79.3919 64.4372 78.6638 64.9493C77.4849 65.7789 76.3271 65.7903 75.0706 65.121C74.3249 64.7236 73.4969 64.7631 72.7758 65.2272C71.3774 66.127 69.963 66.1722 68.5189 65.4005C67.6243 64.9222 66.7702 64.9086 65.8334 65.3281C64.3262 66.0028 62.8232 66.3056 61.1877 65.4994C59.941 64.8848 58.5394 65.0334 57.3009 65.6512C55.7641 66.4179 54.2421 66.3932 52.6464 65.955C52.0104 65.7805 51.4649 65.3932 50.7914 65.3072C49.7285 65.1716 48.7211 65.4463 47.7071 65.6458C46.88 65.809 46.2129 65.6189 45.6381 65.0135C45.429 64.7938 45.2159 64.5456 44.8551 64.5731C44.776 64.9354 44.9365 65.2364 44.9762 65.551C45.1682 67.0774 46.3494 68.4833 47.7112 68.8076C49.4826 69.23 51.289 69.4731 53.1023 69.5332C55.5661 69.6151 58.033 69.5958 60.4991 69.6518C62.3776 69.6944 64.261 69.5945 66.1408 69.4633C69.0593 69.2594 71.9872 69.28 74.9104 69.1848C76.3668 69.1371 77.8179 69.0169 79.198 68.4713C79.903 68.1927 80.5465 67.8367 80.9299 67.1542C81.5798 65.9967 81.9443 64.766 81.7784 63.3714ZM81.9127 53.5648C81.9931 52.5338 81.8667 51.5202 81.6898 50.5082C81.5442 49.6739 81.2402 48.9541 80.549 48.4033C80.0919 48.0394 79.571 47.7849 79.1109 47.4372C78.341 46.8554 77.4575 46.6816 76.5261 46.6291C75.7113 46.5832 74.9558 46.8997 74.1644 46.9898C72.5614 47.1716 71.1157 46.6613 69.7523 45.9029C68.1134 44.9911 66.4363 44.5551 64.5892 45.1792C63.1826 45.6547 61.8454 45.3395 60.5063 44.827C58.7822 44.1666 57.0468 44.3155 55.4753 45.2229C53.2177 46.5263 50.8444 47.2664 48.2415 47.4966C46.3658 47.6626 44.9434 48.7757 44.1047 50.4918C43.3814 51.9717 43.6009 53.5822 43.6245 55.1579C43.6267 55.3023 43.7374 55.3539 43.8121 55.4437C44.5793 56.364 45.6841 56.4743 46.7183 56.4487C48.6637 56.4003 50.6079 56.412 52.5518 56.424C53.6913 56.4313 54.8302 56.5976 55.9684 56.5865C57.7076 56.5698 59.4459 56.4155 61.1852 56.4038C63.3463 56.3893 65.5074 56.3871 67.6656 56.2815C69.2043 56.2062 70.7421 55.9663 72.277 55.9916C74.0982 56.0219 75.92 56.2012 77.7435 56.143C78.8502 56.1076 79.9386 56.3453 81.0434 56.2767C81.5215 56.2467 81.8033 56.0978 81.8667 55.5512C81.944 54.8857 81.8881 54.2252 81.9127 53.5648ZM99.375 51.2515C99.5257 51.3492 99.6251 51.4162 99.7269 51.4798C100.573 52.0062 100.804 52.8395 100.376 53.8212C100.017 54.6457 99.6493 54.782 98.5004 54.4288C98.2156 54.3412 98.2153 54.4383 98.1784 54.647C97.9744 55.8117 97.7439 56.9685 97.7701 58.1648C97.7774 58.4939 97.8694 58.6143 98.1318 58.7304C99.1972 59.2021 99.4526 59.9128 98.9115 60.926C98.7813 61.1691 98.7879 61.3497 98.9178 61.5884C99.3716 62.4208 99.9013 63.2175 100.58 63.8551C101.187 64.4258 101.823 65.0123 102.884 64.6639C104.013 64.294 104.902 65.2193 104.71 66.3995C104.681 66.58 104.718 66.6901 104.868 66.8074C105.64 67.4096 106.427 67.9828 107.321 68.3957C107.723 68.5813 108.088 68.7593 108.257 68.1143C108.293 67.9724 108.498 67.851 108.651 67.7666C109.456 67.3217 110.515 67.6436 110.922 68.4975C111.06 68.7884 111.201 68.8623 111.499 68.8737C114.41 68.9856 116.983 68.0375 119.352 66.4153C119.593 66.2506 119.651 66.0906 119.629 65.7976C119.546 64.6737 120.607 63.6674 121.63 63.9323C122.066 64.0452 122.224 63.8928 122.444 63.5833C123.218 62.4986 123.678 61.2542 124.276 60.08C124.418 59.8015 124.322 59.6023 124.116 59.4063C123.769 59.0781 123.573 58.6987 123.576 58.1875C123.579 57.4705 124.142 57.1907 124.575 56.8584C124.912 56.5995 124.955 56.3431 124.911 55.996C124.791 55.0437 124.666 54.0921 124.549 53.1396C124.506 52.7905 124.402 52.5316 123.975 52.5392C123.606 52.5458 123.361 52.322 123.125 52.0498C122.73 51.5939 122.633 51.0397 122.765 50.5228C123.023 49.5149 122.597 48.7979 121.968 48.1188C121.927 48.0752 121.902 48.0179 121.865 47.9702C121.121 46.9898 120.894 46.9196 119.712 47.3006C119.599 47.3369 119.486 47.3841 119.37 47.4056C116.859 47.87 115.061 47.4685 113.877 45.0072C113.73 44.7006 113.61 44.6342 113.291 44.7689C112.725 45.0079 112.155 45.2674 111.526 45.2984C110.174 45.3645 109.177 44.6661 108.286 43.7524C108.123 43.5858 108.007 43.3655 107.694 43.4692C106.7 43.7983 105.77 44.2497 104.942 44.8947C104.799 45.0066 104.599 45.1258 104.679 45.3819C104.972 46.3152 104.478 47.0072 103.94 47.6594C103.544 48.14 103.002 48.446 102.366 48.348C102.033 48.2965 101.828 48.3745 101.635 48.599C100.894 49.4662 100.155 50.3363 99.375 51.2515ZM90.0968 42.3841C90.1652 42.1562 91.0286 41.9134 91.5788 42.294C91.5788 42.0813 91.5769 41.9232 91.5791 41.7654C91.5917 40.8679 92.0539 40.5274 92.8838 40.829C93.0528 40.8903 93.0888 40.8758 93.1625 40.7187C93.5677 39.8581 94.6398 40.0029 95.2199 40.6286C95.9237 41.387 95.9971 42.282 95.7209 43.2137C95.5125 43.9184 95.2054 44.5931 94.9655 45.2892C94.8974 45.4868 94.7652 45.6857 95.0251 45.9171C96.4881 47.2181 97.789 48.7144 99.5995 49.5867C99.8833 49.7232 100.026 49.752 100.24 49.4978C100.639 49.0233 100.956 48.4748 101.451 48.084C101.677 47.9057 101.463 47.7508 101.417 47.606C101.18 46.8668 101.029 46.1587 101.487 45.4223C102.035 44.54 102.739 44.2763 103.859 44.6882C104.161 44.7992 104.328 44.7834 104.583 44.5611C105.469 43.7897 106.523 43.3136 107.636 42.9611C107.96 42.859 108.276 42.7366 108.602 42.6424C108.774 42.5928 108.863 42.5239 108.902 42.3294C109.124 41.2179 110.356 40.4986 111.564 40.8151C111.551 40.5103 111.561 40.2195 111.522 39.9352C111.244 37.8926 111.736 36.1079 113.485 34.9148C115.181 33.7574 117.005 33.6129 118.931 34.5054C120.32 35.1494 120.786 36.2455 120.958 37.6466C121.201 39.6207 120.564 41.1866 119.004 42.3952C118.831 42.5299 118.678 42.6921 118.517 42.8432C118.489 42.8697 118.469 42.9058 118.43 42.9586C119.306 43.2947 120.117 43.7053 120.394 44.7059C120.431 44.8397 120.496 44.9905 120.466 45.1141C120.281 45.8814 120.758 46.312 121.273 46.698C121.995 47.238 122.486 47.9689 123.006 48.68C123.149 48.8756 123.255 48.9895 123.57 48.9721C124.98 48.8937 126.302 50.765 125.486 51.8032C124.792 52.6862 125.106 53.4756 125.183 54.3242C125.212 54.6391 125.255 54.9593 125.304 55.2736C125.382 55.7854 125.319 56.3124 125.991 56.6305C126.587 56.9122 126.692 57.6267 126.572 58.2786C126.43 59.0563 126.041 59.6889 125.226 59.8679C124.922 59.9346 124.79 60.0411 124.708 60.3038C124.661 60.4556 124.587 60.5998 124.52 60.7446C124.119 61.6146 124.131 61.7208 125.047 61.9225C126.324 62.2036 127.633 62.2153 128.936 62.1685C129.592 62.1451 130.245 62.0082 130.902 61.9911C131.302 61.981 131.496 61.8144 131.682 61.4862C132.263 60.4648 133.024 59.6004 134.008 58.94C134.467 58.6324 134.857 58.6488 135.23 59.0623C135.658 59.5365 135.729 60.0509 135.42 60.5321C135.334 60.6658 135.24 60.7948 135.148 60.9286C136.654 61.594 136.768 62.1053 135.701 63.3354C136.41 63.667 136.664 64.0531 136.553 64.6835C136.462 65.2032 136.16 65.5039 135.554 65.4751C135.875 65.9354 135.78 66.4175 135.727 66.8734C135.685 67.2376 135.366 67.3575 135.016 67.3967C133.588 67.5573 132.69 66.8339 131.995 65.6759C131.467 64.7944 131.415 63.8182 131.323 62.8504C131.288 62.4891 131.21 62.4707 130.872 62.4979C129.138 62.6383 127.401 62.7859 125.66 62.5545C125.177 62.4903 124.71 62.3749 124.283 62.1606C123.983 62.0101 123.873 62.0841 123.741 62.3538C123.547 62.7477 123.317 63.1242 123.088 63.4995C122.819 63.9408 122.524 64.3123 122.639 64.9361C122.773 65.6702 121.826 66.8187 121.083 67.028C120.804 67.1071 120.497 67.0941 120.281 66.8971C119.975 66.6192 119.752 66.7476 119.468 66.9265C118.894 67.2879 118.299 67.617 117.704 67.9427C117.501 68.0543 117.359 68.144 117.524 68.3947C118.182 69.3995 118.57 70.5534 119.25 71.5477C119.398 71.7646 119.475 71.9113 119.788 71.7285C120.574 71.2685 121.355 71.4712 122.031 71.9638C122.793 72.5186 123.425 73.229 124.036 73.9467C124.329 74.2906 124.388 74.6782 124.158 75.1151C123.346 76.6576 122.172 77.9251 121.066 79.2428C120.796 79.5646 120.403 79.6506 120.044 79.4183C118.71 78.5561 117.765 77.4449 117.676 75.75C117.607 74.4199 117.933 73.2587 118.887 72.3081C119.018 72.1778 118.994 72.0735 118.907 71.9473C118.198 70.9236 117.769 69.7457 117.124 68.6859C116.982 68.4539 116.876 68.3445 116.587 68.4858C115.115 69.2073 113.509 69.2784 111.919 69.377C111.397 69.4096 111.019 69.4105 110.709 69.9834C110.15 71.0156 108.648 70.8212 108.108 69.6236C107.734 68.7934 106.868 68.9328 106.318 68.4817C106.165 68.3562 106.136 68.6255 106.13 68.7495C106.075 69.8339 106.114 70.9122 106.385 71.971C106.411 72.0716 106.446 72.1544 106.54 72.2142C107.833 73.0346 108.319 74.4402 108.983 75.6975C109.36 76.4123 108.884 77.4806 108.065 77.8612C106.912 78.3968 105.719 78.846 104.545 79.3364C104.287 79.4439 104.034 79.5627 103.785 79.6879C102.536 80.3158 101.808 79.8555 101.215 78.6244C100.533 77.2058 101.025 75.5451 102.308 74.4651C103.263 73.6615 104.33 73.0308 105.426 72.4453C105.789 72.2515 105.906 72.0406 105.808 71.5888C105.57 70.4937 105.482 69.3751 105.734 68.262C105.776 68.0758 105.679 68.0128 105.558 67.9329C105.34 67.7896 105.116 67.6524 104.917 67.4858C104.631 67.2459 104.42 67.1128 104.02 67.397C103.494 67.7697 102.935 67.482 102.477 67.1422C102.027 66.8089 101.7 66.366 101.829 65.7546C101.883 65.501 101.959 65.3164 101.635 65.176C100.177 64.5425 99.3466 63.2899 98.5852 61.9829C98.4332 61.7221 98.2894 61.5795 97.9536 61.5795C97.3419 61.5795 96.8173 61.3816 96.5975 60.7129C96.378 60.0462 96.4774 59.4354 96.9421 58.9264C97.1329 58.7171 97.2609 58.5255 97.2505 58.2511C97.1991 56.8945 97.5037 55.5809 97.748 54.2625C97.79 54.0374 97.7651 53.8983 97.6421 53.7175C97.0449 52.8399 97.3457 51.721 98.2938 51.2363C99.1004 50.8241 99.1004 50.8241 99.6203 50.1216C97.614 49.2854 96.2175 47.6765 94.6669 46.2617C94.4878 46.0983 94.3632 46.0003 94.0561 46.1112C92.5631 46.6518 91.0648 46.895 89.7096 45.7407C89.5334 45.5909 89.4533 45.6411 89.3205 45.7714C88.7706 46.3088 88.0994 46.2374 87.4624 46.0458C86.7215 45.8232 85.9506 45.6642 85.2685 45.2753C85.0939 45.1757 85.0264 45.264 84.9255 45.3559C83.8888 46.2984 82.8502 47.2386 81.8144 48.182C81.6138 48.3644 81.4909 48.531 81.6539 48.8507C82.2094 49.942 82.3718 51.1371 82.3952 52.3416C82.4046 52.831 82.5487 52.9287 83.0097 52.9037C83.8888 52.856 84.7707 52.8854 85.652 52.8092C86.0057 52.7788 86.1927 52.6824 86.2816 52.3321C86.4689 51.5958 86.7152 50.8766 87.0327 50.1858C87.3401 49.5168 87.9351 49.1007 88.4512 49.1725C89.0163 49.2512 89.4429 49.7969 89.5577 50.6167C90.0968 50.366 90.642 49.8744 91.1988 50.5399C91.65 51.0792 91.5873 51.8354 91.027 52.6239C91.4949 52.6328 91.9212 52.7497 92.1328 53.1683C92.2772 53.4532 92.3156 53.8038 92.128 54.0988C91.8761 54.4949 91.5371 54.8022 91.0784 54.9552C90.7501 55.0652 90.4109 55.0826 90.0227 55.0915C90.28 55.6394 90.2961 56.1335 89.7399 56.4964C89.3067 56.7794 88.4096 56.7203 87.9332 56.3203C87.162 55.6726 86.7271 54.7842 86.3835 53.8683C86.2019 53.3843 85.9625 53.2641 85.4735 53.3049C84.6155 53.377 83.7507 53.3881 82.8892 53.3836C82.4863 53.3817 82.3838 53.5256 82.4005 53.91C82.4251 54.4712 82.4011 55.0358 82.3671 55.5973C82.3494 55.8898 82.4267 56.0251 82.731 56.0851C83.3442 56.2072 83.8853 56.5221 84.4153 56.8398C84.7227 57.0241 85.074 57.2432 85.0068 57.6675C84.9391 58.0968 84.5768 58.2432 84.1845 58.3472C83.6318 58.4939 83.0705 58.4465 82.4983 58.4708C82.5648 58.9289 82.8117 59.3503 82.6789 59.8233C82.6209 60.0301 82.8073 60.0879 82.9287 60.185C83.1311 60.3471 83.3464 60.4983 83.5246 60.6848C84.2123 61.4053 84.1915 62.2134 83.3032 62.595C82.3211 63.0167 82.2624 63.68 82.2747 64.564C82.3075 66.8668 80.5043 68.9278 78.1921 69.3296C76.8089 69.5699 75.4187 69.6622 74.0134 69.6982C72.0311 69.7488 70.0484 69.8098 68.0651 69.8256C67.6111 69.8294 67.6704 69.9742 67.8539 70.2692C68.4564 71.2398 69.0495 72.2154 69.8863 73.0937C70.1446 72.7307 70.4454 72.3827 70.6595 71.9878C70.9423 71.4668 71.2819 71.4083 71.7886 71.6527C72.6087 72.0485 73.2737 72.6666 74.0295 73.1534C75.0372 73.8025 76.0222 74.4873 77.0233 75.1471C77.4414 75.4231 77.5565 75.7452 77.3096 76.2084C77.0523 76.6915 76.702 77.1021 76.3716 77.529C75.1545 79.1015 74.3117 80.9067 73.2481 82.5757C72.6229 83.5573 72.6074 83.6281 71.5108 83.2089C71.1394 83.067 70.7679 82.9177 70.4142 82.7375C69.1908 82.1141 68.6727 80.9456 69.0092 79.6187C69.1971 78.877 69.4591 78.1638 69.8513 77.5071C69.9749 77.3007 69.9958 77.19 69.7754 77.0263C69.3904 76.7408 69.0448 76.4022 68.6781 76.0911C68.2811 75.7544 68.1676 75.3953 68.5308 74.953C68.7594 74.6744 68.9272 74.3412 69.176 74.0851C69.536 73.7143 69.5319 73.4029 69.1801 73.0358C68.4659 72.2919 67.945 71.407 67.4386 70.518C67.1687 70.0438 66.8235 69.8844 66.2673 69.9322C63.5906 70.1633 60.9093 70.266 58.2241 70.0605C57.9659 70.0409 57.7051 70.058 57.3678 70.058C57.5342 71.1939 57.6972 72.2919 57.8552 73.3902C57.8997 73.6991 58.0488 73.818 58.3748 73.799C58.8746 73.7696 59.3772 73.7933 59.8788 73.7952C60.6072 73.7981 60.6835 73.879 60.7333 74.6697C60.8453 76.4332 60.9023 78.1963 60.7333 79.9592C60.693 80.3781 60.6753 80.8024 60.5943 81.214C60.5123 81.6297 60.3638 81.8747 59.7861 81.8042C58.9011 81.6958 57.9943 81.7527 57.0925 81.8257C55.9195 81.9209 54.7365 81.9155 53.5582 81.9124C51.7935 81.907 50.0293 81.8548 48.2649 81.8469C47.7913 81.8447 47.575 81.7154 47.5866 81.1934C47.6368 79.0047 49.3322 76.7847 51.5113 76.0851C52.163 75.8758 52.8179 75.6909 53.5081 75.7212C53.8294 75.7351 53.9006 75.6087 53.9095 75.3023C53.9539 73.7851 53.9634 73.7857 55.492 73.7898C56.1131 73.7914 56.734 73.7902 57.3864 73.7902C57.2246 72.6359 57.0562 71.5189 56.9194 70.3979C56.8841 70.1099 56.7822 70.0422 56.5079 70.0473C55.7259 70.0621 54.943 70.0384 54.1605 70.0406C51.9716 70.046 49.8055 69.8105 47.6812 69.3002C45.8509 68.8601 44.8741 67.5108 44.4739 65.649C44.4238 65.4153 44.3967 65.1767 44.3554 64.9411C44.2908 64.5741 44.1394 64.3186 43.7579 64.14C43.2011 63.8795 42.6789 63.5358 42.2223 63.1027C41.8966 62.7935 41.7954 62.4195 41.8698 62.0104C41.9458 61.5937 42.3362 61.4979 42.6694 61.3689C42.7603 61.3339 42.8678 61.3465 42.9639 61.3215C43.3707 61.2172 43.7598 61.1271 43.5138 60.528C43.4035 60.2589 43.4754 59.9362 43.6523 59.6045C42.9182 59.5561 42.2378 59.4894 41.6627 59.0367C40.9116 58.4455 40.8069 57.7674 41.3877 57.0187C41.7617 56.5372 42.2078 56.1259 42.7423 55.8471C43.0425 55.6906 43.144 55.4971 43.132 55.1958C43.1087 54.5948 43.0737 53.9944 43.0589 53.3934C43.0289 52.1737 43.2102 50.9632 43.8257 49.9237C44.9116 48.0903 46.5928 47.0015 48.7154 46.8943C51.0869 46.7748 53.154 45.9177 55.1877 44.7986C56.9648 43.8204 58.8651 43.631 60.7872 44.3955C62.0721 44.9061 63.3541 45.0923 64.697 44.6452C66.307 44.1094 67.8356 44.3708 69.3213 45.1346C70.1011 45.5355 70.9019 45.9038 71.7192 46.22C72.9663 46.7021 74.2268 46.4881 75.4953 46.2307C76.9041 45.9453 78.2341 46.1934 79.4284 47.0401C79.9001 47.3743 80.4472 47.5997 80.8647 48.0103C81.1106 48.2525 81.2203 48.0691 81.3903 47.9104C82.3851 46.98 83.371 46.0379 84.4049 45.152C84.8019 44.8119 84.8791 44.4767 84.6837 44.0509C84.4342 43.5077 84.1382 42.9864 83.8859 42.4445C83.6832 42.0089 83.5006 41.5571 83.5019 41.0652C83.505 39.9643 84.4459 39.3915 85.4111 39.9039C85.5829 39.9953 85.6772 40.142 85.8982 39.9201C86.4226 39.3934 87.021 39.3254 87.5621 39.6583C88.1113 39.9963 88.2671 40.4642 88.0861 41.2239C88.0785 41.2571 88.0994 41.2975 88.1088 41.3446C88.7848 41.2684 89.4672 41.1847 89.8897 41.9099C90.012 42.1066 89.8859 43.1075 89.3363 43.4553C88.8104 43.7878 88.8892 44.0231 89.3682 44.3019C89.6172 44.0218 89.8534 43.6804 90.3172 43.6842C90.1384 43.2555 89.8168 42.8688 90.0968 42.3841Z" fill="black"/>
<path d="M62.2721 35.5412C60.6981 36.1115 59.4485 37.9945 59.4996 39.6799C59.5049 39.8671 59.4958 39.9869 59.7288 39.9891C60.2891 39.9941 60.8494 40.0087 61.4094 40.028C61.6657 40.0371 61.6831 39.9224 61.7237 39.6827C61.8877 38.7169 61.9363 37.7365 62.1396 36.7745C62.2222 36.3834 62.3843 35.9696 62.2721 35.5412ZM65.0925 35.5674C64.9812 37.0574 64.8702 38.5459 64.7548 40.089C65.1448 40.089 65.5213 40.0899 65.8981 40.089C66.2765 40.088 66.7504 40.2246 67.0083 40.0469C67.3066 39.8414 67.0401 39.3533 67.0486 38.9885C67.0502 38.9287 67.0698 38.8696 67.0726 38.8098C67.1413 37.2503 66.3865 36.0126 65.0925 35.5674ZM63.2256 40.0425C63.3255 40.0425 63.4308 40.021 63.5241 40.046C64.1939 40.2246 64.3052 39.856 64.3329 39.2986C64.384 38.261 64.4839 37.2259 64.5732 36.1909C64.6501 35.3037 64.5189 35.1713 63.6383 35.1333C63.1436 35.1125 62.8648 35.2323 62.7955 35.7852C62.6618 36.8513 62.4455 37.9063 62.3058 38.9717C62.1661 40.0356 62.1888 40.0387 63.2256 40.0425ZM64.4505 40.4744C62.3708 40.4744 60.2913 40.4744 58.2119 40.4744C57.0323 40.4741 55.8527 40.4782 54.6732 40.4677C54.4821 40.4662 54.1706 40.5787 54.1819 40.2208C54.1908 39.9407 54.4509 39.979 54.6467 39.9793C55.9275 39.9802 57.2086 39.973 58.489 39.9945C58.8374 40.0005 58.9639 39.9148 58.99 39.542C59.1549 37.1943 60.4493 35.6446 62.5612 34.8017C63.6414 34.3708 64.7419 34.6784 65.713 35.2683C66.9159 35.9986 67.6389 37.04 67.5872 38.5222C67.5686 39.0631 67.591 39.6059 67.6108 40.1475C67.6231 40.481 67.4986 40.603 67.1543 40.5948C66.2534 40.5736 65.3517 40.5876 64.4505 40.5876V40.4744Z" fill="black"/>
<path d="M126.601 41.0815C126.546 41.4355 126.737 41.7729 126.9 42.1096C127.187 42.7039 127.585 42.8181 128.16 42.4984C128.965 42.052 129.063 40.4937 128.272 40.0435C128.034 39.9079 127.791 39.5304 127.473 39.7037C126.967 39.9781 126.598 40.3979 126.601 41.0815ZM127.577 39.1242C127.992 39.1122 128.233 39.3632 128.478 39.5409C129.171 40.042 129.411 40.7953 129.31 41.6009C129.206 42.4245 128.683 42.9426 127.853 43.1488C127.408 43.2591 127.026 43.1396 126.771 42.8238C125.938 41.79 125.674 40.2402 127.138 39.2971C127.287 39.2019 127.445 39.0995 127.577 39.1242Z" fill="black"/>
<path d="M134.733 74.7958C133.679 74.8786 132.624 74.9548 131.572 75.049C131.346 75.0689 131.093 75.1603 131.069 74.8302C131.047 74.5451 131.325 74.5508 131.507 74.5381C133.2 74.4205 134.893 74.314 136.588 74.2144C136.736 74.2058 136.936 74.2144 136.952 74.4373C136.97 74.6858 136.782 74.724 136.593 74.7357C135.974 74.7721 135.355 74.8043 134.736 74.8385L134.733 74.7958Z" fill="black"/>
<path d="M87.71 78.0234C88.5011 78.0234 89.1623 78.0231 89.8238 78.0234C90.0451 78.0237 90.2643 78.0382 90.4689 78.1372C90.6023 78.202 90.7224 78.2946 90.6849 78.4552C90.6448 78.6256 90.4903 78.6427 90.3437 78.6177C89.0109 78.3901 87.6677 78.5766 86.3305 78.515C85.9156 78.4954 85.4962 78.5792 85.0784 78.6124C84.8792 78.6285 84.6272 78.6699 84.5982 78.3996C84.5673 78.1116 84.8271 78.1524 85.0229 78.1163C85.9581 77.9437 86.9009 78.0449 87.71 78.0234Z" fill="black"/>
<path d="M87.0119 80.9181C88.0754 80.8688 89.1348 80.9298 90.193 81.0291C90.3942 81.0477 90.6392 81.0285 90.637 81.3092C90.6341 81.6352 90.3598 81.5384 90.1829 81.521C88.4648 81.3522 86.742 81.4202 85.0207 81.4003C84.8549 81.3984 84.5705 81.5191 84.5793 81.1742C84.5869 80.8704 84.8347 80.9213 85.027 80.92C85.6889 80.9162 86.3504 80.9188 87.0119 80.9181Z" fill="black"/>
<path d="M97.0913 30.216C96.7356 30.7807 96.519 31.4477 96.1964 32.0592C95.8244 32.7642 95.4655 33.4711 95.1657 34.2096C95.0979 34.3769 95.0465 34.6368 94.7627 34.5353C94.4566 34.4252 94.6177 34.2074 94.6946 34.043C95.2934 32.7661 95.8988 31.4923 96.5079 30.2205C96.5947 30.0399 96.7031 29.8553 96.9629 29.9476C97.0746 29.9875 97.1064 30.0741 97.0913 30.216Z" fill="black"/>
<path d="M130.58 77.8885C130.312 77.8885 130.192 77.8955 130.073 77.8866C129.893 77.8727 129.842 77.7475 129.853 77.5913C129.864 77.4358 129.978 77.4124 130.108 77.402C131.42 77.2942 132.731 77.1756 134.044 77.0839C134.221 77.0716 134.494 77.1168 134.507 77.3656C134.522 77.6416 134.292 77.6204 134.077 77.6258C132.858 77.6555 131.636 77.6546 130.58 77.8885Z" fill="black"/>
<path d="M88.4354 30.9996C88.4348 30.4995 88.4332 29.9993 88.4354 29.4992C88.4364 29.2971 88.432 29.0471 88.6911 29.0338C88.9919 29.0186 88.927 29.2848 88.927 29.4745C88.9276 30.4543 88.9289 31.4343 88.9223 32.4141C88.9207 32.6183 89.0039 32.9351 88.6934 32.936C88.3371 32.9373 88.4439 32.599 88.4392 32.3793C88.4288 31.9196 88.4361 31.4596 88.4354 30.9996Z" fill="black"/>
<path d="M82.8826 33.249C82.9021 33.4121 82.8274 33.5329 82.6799 33.5736C82.5077 33.6217 82.4554 33.4946 82.3904 33.3517C81.9862 32.4595 81.7481 31.5108 81.4353 30.5879C81.3732 30.4046 81.4243 30.2648 81.6075 30.2098C81.7828 30.1567 81.9285 30.218 81.9704 30.4153C82.17 31.3527 82.462 32.2591 82.8593 33.1313C82.8757 33.1668 82.8753 33.2094 82.8826 33.249Z" fill="black"/>
<path d="M120.334 56.3313C120.96 56.3344 121.363 55.9841 121.372 55.429C121.386 54.6446 120.885 54.0006 120.252 53.988C119.631 53.9756 118.946 54.6206 118.938 55.2244C118.93 55.8178 119.573 56.3275 120.334 56.3313ZM121.849 55.1741C121.888 56.2374 121.376 56.8232 120.374 56.8633C119.413 56.9022 118.462 56.1302 118.432 55.2861C118.4 54.4302 119.24 53.5365 120.115 53.4948C121.046 53.4505 121.813 54.1931 121.849 55.1741Z" fill="black"/>
<path d="M116.924 51.2534C117.081 51.2424 117.243 51.2496 117.396 51.2174C117.784 51.1355 117.966 50.8032 117.999 50.4849C118.024 50.2421 118.079 49.8652 117.744 49.7144C117.189 49.4643 116.597 49.3749 116.01 49.5516C115.734 49.6347 115.463 49.8194 115.414 50.1573C115.362 50.5219 115.585 50.7596 115.851 50.9502C116.168 51.1776 116.537 51.2443 116.924 51.2534ZM114.914 50.2338C114.91 49.5497 115.676 48.9076 116.503 48.9405C116.856 48.9544 117.215 49.0208 117.556 49.115C118.324 49.3271 118.59 49.6856 118.551 50.3824C118.515 51.0258 118.018 51.6749 117.408 51.739C116.621 51.8216 115.857 51.7235 115.259 51.1001C115.023 50.8535 114.917 50.5674 114.914 50.2338Z" fill="black"/>
<path d="M105.748 52.9323C106.518 52.9576 107.012 52.4938 107.062 51.7003C107.097 51.1505 106.61 50.6443 106.021 50.6178C105.427 50.5906 104.837 51.1932 104.812 51.8533C104.782 52.6234 105.03 52.9089 105.748 52.9323ZM104.319 51.92C104.213 50.858 105.276 50.0917 105.989 50.1186C106.891 50.1527 107.607 50.8454 107.58 51.7079C107.548 52.6911 106.792 53.4622 105.843 53.4767C104.824 53.4922 104.31 52.9674 104.319 51.92Z" fill="black"/>
<path d="M114.543 64.7296C114.564 65.0808 114.512 65.3837 114.837 65.5345C114.972 65.5974 115.101 65.6113 115.22 65.4924C115.617 65.0963 116.029 64.7068 116.205 64.1545C116.273 63.9398 116.4 63.5927 116.12 63.5235C115.819 63.4485 115.456 63.1583 115.15 63.4776C114.801 63.8415 114.563 64.28 114.543 64.7296ZM114.024 64.7571C114.114 64.0505 114.402 63.4157 114.963 62.955C115.456 62.55 115.958 62.9165 116.413 63.0916C116.792 63.2377 116.822 63.6117 116.751 64.0144C116.595 64.8889 116.011 65.4643 115.401 66.0033C115.032 66.3299 114.264 65.9619 114.112 65.4254C114.052 65.2164 114.053 64.9904 114.024 64.7571Z" fill="black"/>
<path d="M104.848 58.4478C104.066 58.4367 103.756 58.7086 103.738 59.3023C103.719 59.8739 104.177 60.4057 104.681 60.3987C105.224 60.3911 105.716 59.781 105.642 59.0936C105.587 58.5919 105.155 58.4749 104.848 58.4478ZM104.712 57.9593C105.588 57.9615 106.141 58.4436 106.146 59.2106C106.152 60.1154 105.488 60.9213 104.733 60.9248C103.927 60.9286 103.257 60.221 103.249 59.3589C103.24 58.4041 103.708 57.9568 104.712 57.9593Z" fill="black"/>
<path d="M110.387 60.8794C110.03 60.8794 109.77 60.881 109.511 60.8788C109.348 60.8772 109.156 60.8778 109.151 60.6616C109.146 60.4267 109.332 60.3853 109.529 60.3843C110.207 60.3805 110.881 60.3688 111.56 60.2838C113.06 60.0963 114.493 59.7656 115.716 58.8077C115.887 58.6743 116.086 58.5731 116.283 58.4798C116.415 58.4179 116.564 58.4134 116.633 58.5889C116.693 58.7397 116.637 58.8421 116.503 58.9379C115.099 59.9357 113.573 60.6094 111.839 60.7564C111.324 60.8004 110.814 60.929 110.387 60.8794Z" fill="black"/>
<path d="M114.803 55.1982C114.729 55.4404 114.551 55.5596 114.318 55.5561C114.101 55.5526 113.941 55.4391 113.946 55.1865C113.953 54.9077 114.123 54.8194 114.374 54.7964C114.678 54.7689 114.717 54.9978 114.803 55.1982Z" fill="black"/>
<path d="M110.006 55.7163C109.992 55.9813 109.878 56.1362 109.658 56.163C109.452 56.1877 109.227 56.1232 109.204 55.8902C109.182 55.6597 109.341 55.4716 109.581 55.4454C109.785 55.4226 109.953 55.5266 110.006 55.7163Z" fill="black"/>
<path d="M66.037 53.3639C66.0057 53.2251 65.9853 53.0939 66.1224 53.0338C66.2362 52.9832 66.3643 53.0031 66.4541 53.1018C66.5894 53.2497 66.7344 53.3942 66.8397 53.5627C66.9491 53.7369 67.2332 53.8978 67.0721 54.1258C66.8864 54.3888 66.6919 54.0474 66.5292 54.0487C66.1221 54.0524 65.7122 54.1612 65.3099 54.2551C63.6183 54.6506 61.915 54.7135 60.1972 54.471C59.9673 54.4385 59.6217 54.4909 59.6867 54.1448C59.7476 53.821 60.0957 53.963 60.3056 53.9924C62.1716 54.256 64.0061 54.0989 65.8238 53.6339C65.995 53.5902 66.2258 53.637 66.037 53.3639Z" fill="black"/>
<path d="M66.7275 48.6629C66.8943 48.7441 67.1411 48.7447 67.1213 49.0198C67.1036 49.2635 66.8946 49.3679 66.7057 49.3615C66.5187 49.3552 66.2848 49.2474 66.2942 49.0094C66.3037 48.7811 66.526 48.7188 66.7275 48.6629Z" fill="black"/>
<path d="M59.0352 48.637C59.2323 48.6654 59.4211 48.752 59.4259 49.0299C59.4297 49.2471 59.2827 49.2816 59.1058 49.2822C58.8419 49.2832 58.6092 49.1972 58.5988 48.913C58.5913 48.7024 58.8132 48.6597 59.0352 48.637Z" fill="black"/>
<path d="M76.7216 52.7736C76.68 52.9851 76.5539 53.0372 76.3729 53.0284C76.1743 53.0186 76.0065 52.9715 76.0248 52.7312C76.0377 52.5583 76.1739 52.5257 76.3278 52.5241C76.5252 52.5222 76.6737 52.576 76.7216 52.7736Z" fill="black"/>
<path d="M51.292 52.312C51.2829 52.496 51.1892 52.5892 51.0272 52.5848C50.9004 52.5813 50.7929 52.5134 50.779 52.372C50.7633 52.207 50.8594 52.1005 51.0117 52.0787C51.1839 52.054 51.2488 52.1874 51.292 52.312Z" fill="black"/>
<path d="M49.8471 53.0538C49.8206 53.2233 49.7187 53.2922 49.5554 53.2773C49.416 53.2644 49.3281 53.1768 49.3322 53.0472C49.3369 52.8961 49.4239 52.7769 49.5926 52.7766C49.7676 52.7762 49.8222 52.9065 49.8471 53.0538Z" fill="black"/>
<path d="M77.3637 50.1717C77.3502 50.3687 77.2303 50.4142 77.0815 50.3956C76.9595 50.3801 76.8665 50.3169 76.8734 50.1686C76.8813 50.0026 76.9853 49.9135 77.1301 49.9166C77.2802 49.9201 77.3637 50.0298 77.3637 50.1717Z" fill="black"/>
<path d="M48.2234 51.5763C48.1935 51.7252 48.1241 51.8242 47.9841 51.8159C47.8243 51.8064 47.7186 51.7031 47.7363 51.5418C47.7536 51.3819 47.875 51.2971 48.0352 51.3259C48.1708 51.3506 48.2193 51.4625 48.2234 51.5763Z" fill="black"/>
<path d="M74.8004 51.9595C74.6472 51.9592 74.5639 51.8959 74.5696 51.7429C74.5753 51.5852 74.6295 51.4568 74.8121 51.4723C74.9391 51.4834 75.0347 51.5693 75.0501 51.7037C75.0709 51.8899 74.9464 51.944 74.8004 51.9595Z" fill="black"/>
<path d="M78.3147 52.6551C78.3021 52.7828 78.2103 52.8843 78.052 52.8776C77.9237 52.8726 77.8405 52.7784 77.8294 52.6421C77.8146 52.4546 77.9266 52.3987 78.0889 52.405C78.2245 52.4107 78.3166 52.4669 78.3147 52.6551Z" fill="black"/>
<path d="M55.9889 78.5774C56.315 78.8541 56.7186 78.9537 56.9963 79.2499C57.2048 79.4721 57.3454 79.7238 57.2508 80.0033C57.1575 80.2786 56.863 80.2888 56.6013 80.3213C55.9561 80.4016 55.3259 80.2846 54.6952 80.1933C53.3155 79.9935 51.912 80.0093 50.5411 79.7298C50.3516 79.6909 50.1047 79.7289 50.0442 79.4845C49.972 79.1942 50.2747 79.187 50.4225 79.1038C52.1845 78.1124 54.1088 77.5351 56.0236 76.9379C56.1892 76.8864 56.3821 76.9287 56.5615 76.917C56.8062 76.9009 57.0096 76.984 57.0953 77.2129C57.1776 77.4314 57.1004 77.6287 56.939 77.8143C56.6747 78.1181 56.3181 78.3033 55.9889 78.5774Z" fill="black"/>
<path d="M49.7728 50.8854C49.7542 51.0988 49.6155 51.1332 49.4774 51.1285C49.3453 51.1241 49.2737 51.0314 49.2819 50.8911C49.2913 50.7336 49.3635 50.6182 49.5297 50.6378C49.6738 50.6549 49.7728 50.7507 49.7728 50.8854Z" fill="black"/>
<path d="M73.1072 76.5274C73.4298 76.3509 73.6889 76.2027 73.9547 76.067C74.2142 75.9349 74.4939 75.8492 74.731 76.0866C74.9634 76.319 74.9921 76.6083 74.8858 76.9251C74.7279 77.3958 74.3687 77.7256 74.1014 78.1204C73.4477 79.0853 72.5529 79.7919 71.6625 80.507C71.5256 80.6171 71.361 80.7514 71.1728 80.6395C71.0085 80.5418 71.0662 80.3525 71.0725 80.1994C71.1312 78.7964 71.3232 77.4088 71.5745 76.0288C71.5959 75.9124 71.6401 75.7983 71.6864 75.6889C71.8428 75.319 72.0765 74.9874 72.5169 75.0557C72.9495 75.123 73.0199 75.5201 73.0571 75.8928C73.0769 76.0898 73.0886 76.2877 73.1072 76.5274Z" fill="black"/>
<path d="M142.291 97.8364C142.191 98.329 142.637 98.6524 143.129 98.8833C143.639 99.1229 144.15 98.9774 144.54 98.6159C145.212 97.9947 145.605 97.2111 146.086 96.4783C146.545 95.7784 146.027 95.5038 145.42 95.3887C144.077 95.1351 142.283 96.5097 142.291 97.8364ZM174.859 95.9744C176.147 93.7015 177.65 91.712 178.143 89.2452C178.243 88.7449 178.088 88.1952 177.593 87.9664C177.118 87.7468 176.713 88.1772 176.393 88.4775C175.908 88.9341 175.507 89.4838 175.366 90.0798C174.895 92.0786 173.869 93.6691 173.658 95.7224C173.569 95.9954 173.518 96.5626 173.452 96.8403C173.429 96.9411 173.38 97.1319 173.602 97.1298C173.795 97.1278 174.095 96.867 174.248 96.7364M172.035 99.4598C170.892 99.9591 169.893 100.475 168.741 100.639C167.752 100.782 166.787 100.739 166.131 99.9514C165.82 99.5791 165.575 99.6737 165.214 99.8418C164.857 100.008 164.469 100.138 164.079 100.228C162.887 100.503 162.131 99.9843 162.082 98.9029C162.036 97.894 162.575 97.0079 162.849 96.0561C161.771 95.7239 161.301 95.9939 161.075 97.0146C160.835 98.0996 160.143 99.0705 159.286 99.9061C158.485 100.689 157.845 100.729 157.087 99.9431C156.7 99.54 156.606 99.8094 156.356 99.9879C155.647 100.493 154.926 101.039 154.114 100.097C153.911 99.8614 153.743 100.034 153.576 100.166C153.329 100.363 153.095 100.585 152.814 100.735C151.93 101.203 151.078 100.805 151.016 99.8979C150.959 99.0741 151.082 98.2632 151.363 97.4764C151.483 97.1386 151.585 96.8095 151.47 96.3477C150.841 96.7585 150.509 97.2609 150.182 97.7613C149.7 98.4992 149.202 99.2314 148.493 99.8156C148.129 100.116 147.724 100.526 147.144 100.314C146.551 100.096 146.294 99.6166 146.211 99.0628C146.179 98.8448 146.337 98.6113 146.107 98.3634C145.538 98.8998 145.093 99.5857 144.211 99.7462C143.271 99.9174 142.453 99.6927 141.808 99.0402C141.179 98.4025 141.163 97.6728 141.448 96.9262C141.95 95.6139 143.714 94.4934 145.266 94.4646C145.817 94.4548 146.278 94.6307 146.699 95.0143C147.355 94.1766 147.256 93.1405 147.689 92.2663C147.948 91.7428 147.936 90.7709 148.856 90.9956C149.673 91.1962 148.972 91.9727 148.952 92.4679C148.911 93.4881 148.28 94.3828 147.828 95.3012C147.262 96.448 147.198 97.6399 147.204 98.8514C147.205 99.033 147.14 99.2705 147.413 99.3528C147.671 99.431 147.819 99.233 147.962 99.0967C148.546 98.5408 148.991 97.8976 149.389 97.2316C149.795 96.5539 150.352 95.9954 151.017 95.5131C151.331 95.2853 151.625 95.038 152.101 95.2514C152.592 95.4714 152.629 95.8432 152.622 96.2448C152.606 97.1386 152.174 97.9593 152.037 98.8324C151.974 99.2253 151.633 99.7806 152.15 99.9483C152.59 100.092 152.925 99.5436 153.204 99.2063C153.778 98.511 154.086 97.7021 154.412 96.903C154.566 96.522 154.765 96.0715 155.31 96.2222C156.001 96.4145 155.557 96.8753 155.419 97.1967C155.075 97.9978 154.798 98.7959 155.07 99.74C156.115 99.2433 156.604 98.4411 156.863 97.5134C156.99 97.0614 157.177 96.6444 157.426 96.2412C157.58 95.9929 157.782 95.7918 158.131 95.9327C158.449 96.0602 158.517 96.3045 158.407 96.593C158.182 97.1802 157.909 97.7587 157.759 98.3609C157.661 98.7517 157.487 99.3286 158.001 99.5168C158.453 99.6819 158.733 99.1728 158.991 98.8658C159.71 98.0127 160.112 97.0331 160.343 96.0037C160.502 95.2971 160.927 95.0452 161.739 95.0601C164.246 95.1053 164.247 95.0842 163.449 97.2435C163.404 97.3669 163.348 97.4893 163.321 97.6168C163.201 98.1968 162.591 98.9023 163.294 99.3256C163.913 99.6973 164.586 99.0813 165.228 98.87C165.644 98.7327 165.572 98.4447 165.649 98.1639C166.126 96.4073 167.181 95.0724 169.203 94.4574C169.709 94.3031 170.159 94.3222 170.533 94.6687C170.758 94.878 171.032 95.1331 170.753 95.4391C170.522 95.6931 170.247 95.6082 169.978 95.4175C169.488 95.0683 169.041 95.3989 168.68 95.5974C167.521 96.2346 166.849 97.2152 166.597 98.3753C166.39 99.325 166.995 99.8979 168.103 99.8285C169.591 99.7349 170.838 99.0684 172.046 98.3588C172.282 98.22 172.293 97.985 172.324 97.7505C172.668 95.2179 173.605 92.8026 174.233 90.3266C174.452 89.4638 174.95 88.6708 175.599 87.991C176.179 87.3827 176.889 86.7764 177.873 87.0814C178.889 87.3956 179.093 88.2949 179.061 89.1002C179.001 90.61 178.515 92.0493 177.715 93.395C177.525 93.7123 177.319 94.0229 177.142 94.3448C176.811 94.9433 176.489 95.4792 177.033 96.1991C177.401 96.6876 177.285 97.3664 177.085 98.004C176.641 99.4166 177.445 100.12 179.083 99.8398C179.453 99.7765 179.862 99.6454 179.982 100.11C180.091 100.529 179.672 100.548 179.36 100.635C177.306 101.211 175.692 99.9771 176.056 98.111C176.166 97.5505 176.574 96.7503 175.964 96.5045C175.451 96.2983 175.126 97.173 174.734 97.569C174.103 98.2056 173.619 98.944 173.211 99.7158C173.072 99.9776 172.917 100.301 172.52 100.277C171.98 100.245 172.164 99.7889 172.035 99.4598Z" fill="black"/>
<path d="M25.6684 98.4031C26.8988 97.838 27.8787 97.043 28.4094 95.8901C28.5277 95.633 28.8569 95.2756 28.4042 95.0113C28.0296 94.7928 27.6847 95.0139 27.408 95.2062C27.1249 95.4032 26.8883 95.6634 26.6687 95.921C26.0605 96.6327 25.9475 97.5233 25.6684 98.4031ZM5.33657 97.06C7.64531 96.1385 9.31963 94.8524 10.7481 93.3226C11.6831 92.3214 12.4661 91.2158 12.8366 89.9303C12.9467 89.5477 13.0318 89.1523 12.6059 88.8638C12.2156 88.6005 11.9168 88.8957 11.6074 89.0345C11.3458 89.1517 11.0901 89.2896 10.8617 89.4515C8.11778 91.401 6.93224 94.2179 5.33657 97.06ZM4.86351 97.9553C4.16792 99.3586 3.55156 100.528 3.00452 101.721C2.05084 103.804 1.34884 105.951 0.987643 108.181C0.94395 108.447 0.864721 108.711 1.17523 108.882C1.48516 109.053 1.74616 108.884 1.98152 108.727C2.45282 108.414 2.93811 108.112 3.27833 107.671C4.99576 105.45 5.74437 102.977 5.74379 100.308C5.74379 99.5437 5.47172 98.8562 4.86351 97.9553ZM7.32023 97.4426C9.64646 97.3253 11.1676 95.9308 12.8128 94.7383C13.1151 94.5192 13.3481 94.0405 13.7897 94.2945C14.2902 94.5825 13.8987 94.9985 13.714 95.3281C13.2567 96.1426 12.7883 96.9541 12.2867 97.748C11.9272 98.3168 11.9296 98.8999 11.9814 99.6383C12.7947 99.1709 13.2555 98.5847 13.7466 98.0288C14.4993 97.1767 15.2712 96.3396 16.2552 95.6834C16.7492 95.3533 17.2834 94.9501 17.9382 95.1476C18.6898 95.3733 18.349 96.0331 18.4736 96.6136C18.9927 96.1884 19.4384 95.7641 19.9516 95.4181C20.4975 95.0504 21.1313 94.8226 21.7914 95.2186C22.4159 95.5924 22.2167 96.1406 22.0804 96.643C21.8153 97.622 21.5514 98.6032 21.228 99.5673C20.9694 100.341 21.2409 100.478 22.0134 100.186C22.1811 100.123 22.3728 100.108 22.5435 100.049C23.616 99.6733 24.6903 99.4203 24.7981 98.0494C24.8715 97.1166 25.2746 96.1478 25.9824 95.3584C26.1654 95.1553 26.3215 94.9213 26.5435 94.7594C27.2472 94.2467 28.0331 93.7612 28.9355 94.313C29.8723 94.8859 29.5583 95.6819 29.1738 96.4218C28.5161 97.6863 27.3224 98.5147 26.1188 99.3385C25.9044 99.4856 25.3946 99.5319 25.6929 99.9705C25.9184 100.302 26.2225 100.402 26.6314 100.235C27.1651 100.016 27.7057 99.8106 28.2364 99.5879C28.5347 99.4624 28.8219 99.4239 29.0136 99.699C29.186 99.9468 29.0124 100.146 28.7695 100.266C27.9981 100.646 27.2315 101.046 26.3238 101.123C25.9842 101.152 25.556 101.15 25.3987 100.896C24.7707 99.8779 24.0401 100.334 23.2595 100.688C22.8709 100.864 22.4305 100.961 22.0035 101.059C20.6373 101.371 19.9277 100.746 20.2685 99.518C20.5989 98.3276 20.9653 97.1448 21.3294 95.9128C20.7305 95.8048 20.4614 96.1226 20.1427 96.3663C18.7515 97.4297 17.7676 98.7713 16.7958 100.125C16.6007 100.397 16.4189 100.915 15.9103 100.623C15.4978 100.388 15.7367 99.9947 15.94 99.6625C16.5016 98.7466 16.9747 97.7948 17.3772 96.8142C17.4815 96.5597 17.5823 96.3303 17.4326 96.0069C16.1713 96.5843 15.3679 97.5608 14.5209 98.4895C13.9639 99.1004 13.4501 99.7494 12.7067 100.199C11.8247 100.732 11.121 100.422 11.0505 99.4876C10.9887 98.6628 11.0499 97.856 11.548 97.0271C9.8323 97.6534 8.2209 98.5137 6.32112 98.3497C7.14546 101.971 6.23723 105.179 4.02286 108.148C3.60515 108.708 3.00219 109.096 2.4033 109.472C1.82364 109.837 1.14377 109.93 0.5344 109.548C-0.0382712 109.188 -0.0574963 108.648 0.053193 108.056C0.594988 105.149 1.55449 102.361 2.97364 99.6954C3.11055 99.4378 3.20667 99.1632 3.34532 98.8423C2.75401 98.9307 2.23494 99.0547 1.71295 99.0675C1.46186 99.0737 1.07503 98.9698 1.09134 98.6248C1.10591 98.3147 1.36107 98.2 1.70771 98.2119C3.27542 98.2638 4.06888 97.529 4.73418 96.301C6.11081 93.7612 7.26897 91.0708 9.82938 89.1687C10.3147 88.8088 10.8075 88.4838 11.3551 88.2123C12.0304 87.8765 12.7178 87.8235 13.3097 88.2971C13.869 88.744 13.9989 89.3235 13.7851 89.9879C12.9864 92.4664 11.2462 94.3619 9.05689 95.975C8.43528 96.4337 7.74493 96.8188 7.08604 97.2369C6.86 97.2996 6.61066 97.3279 6.48307 97.5567C6.79825 97.6549 7.07322 97.6241 7.32023 97.4426Z" fill="black"/>
<path d="M63.5479 99.3704C63.9201 99.2804 64.0664 99.0469 64.0279 98.7291C64.0087 98.5707 64.1141 98.2776 63.7821 98.3141C63.3469 98.3625 63.0655 98.6684 63.0026 99.0191C62.9606 99.2552 63.3387 99.2685 63.5479 99.3704ZM84.5206 94.0924C83.282 94.7048 83.0944 95.7291 82.6027 96.5673C83.349 95.8844 84.2351 95.2859 84.5206 94.0924ZM66.9111 96.0181C66.406 96.3904 66.0127 96.737 65.5577 97.0003C64.9612 97.3448 64.7223 97.747 64.8878 98.3872C65.0538 99.031 64.8831 99.6506 64.2143 100.028C63.5921 100.378 63.0136 100.089 62.4573 99.8008C61.6731 99.394 61.5828 98.8052 62.5651 98.1254C63.475 97.4955 63.7605 96.9139 63.2071 95.9765C62.3926 96.7345 61.5665 97.5048 60.7387 98.2735C60.099 98.8675 59.4174 99.4202 58.6373 99.8686C58.1521 100.147 57.5998 100.343 57.0749 100.065C56.5342 99.7771 56.4952 99.2706 56.6444 98.7533C56.6787 98.6325 56.6496 98.4977 56.6496 98.2648C55.8713 98.8412 55.2415 99.4532 54.4492 99.8969C52.9467 100.739 52.5034 100.583 52.1789 99.0371C52.1527 98.9122 52.0653 98.798 51.9832 98.6319C51.1105 99.0387 50.4492 99.7308 49.4915 99.9874C48.9264 100.138 48.2774 100.413 47.8236 100.012C47.3931 99.63 47.2358 99.0428 47.502 98.4612C47.5539 98.3465 47.5428 98.2087 47.5713 98.0118C46.4213 98.6823 45.3628 99.3544 44.2437 99.935C43.2638 100.443 42.1988 101.018 41.0657 100.287C39.7969 99.4676 39.7712 98.3126 40.2256 97.1134C40.7523 95.7235 41.8405 94.8066 43.4059 94.3371C43.8061 94.2173 44.2105 94.224 44.5466 94.512C44.7977 94.7274 45.297 94.8863 45.04 95.2699C44.7942 95.6392 44.4079 95.4612 44.0957 95.2375C44.013 95.1789 43.8883 95.0853 43.8178 95.1049C42.8414 95.3759 41.9763 95.8017 41.5026 96.647C41.0651 97.4281 40.5536 98.2231 41.1275 99.123C41.5644 99.809 42.1645 99.9391 42.987 99.5894C45.0837 98.6967 46.8594 97.4461 48.4161 95.9369C48.6817 95.6793 48.8885 95.2067 49.3523 95.4561C49.8142 95.7039 49.5428 96.1333 49.3936 96.501C49.1693 97.0512 48.751 97.5171 48.5862 98.0992C48.4691 98.5121 48.1423 99.0186 48.5262 99.2799C48.8879 99.5267 49.4408 99.175 49.8201 98.9518C51.0837 98.2056 52.2844 97.387 53.1437 96.248C53.3837 95.9307 53.6185 95.4186 54.1247 95.7122C54.5704 95.9703 54.2669 96.4244 54.0263 96.755C53.4215 97.5845 52.8209 98.4098 53.2089 99.5344C54.6787 98.9765 55.6639 97.9439 56.6327 96.8738C56.9898 96.4799 57.2246 95.6088 57.9283 95.9287C58.6822 96.2717 57.8922 96.8918 57.753 97.3669C57.5619 98.0149 57.5922 98.654 57.5625 99.4172C59.1005 98.8088 60.0367 97.694 61.1226 96.7535C61.6743 96.2763 62.1229 95.7055 62.6006 95.1645C62.7853 94.9558 62.9455 94.6909 63.2857 94.7614C63.6475 94.8365 63.8974 95.0195 64.0413 95.3887C64.5662 96.7339 64.5907 96.7247 65.849 95.7132C66.3419 95.3162 66.8365 94.9213 67.341 94.5367C67.588 94.3479 67.8595 94.0908 68.2131 94.3058C68.586 94.5331 68.4782 94.8663 68.3559 95.1897C68.0063 96.1117 67.5426 97.0029 67.4494 97.9938C67.4121 98.3856 67.2169 98.887 67.6556 99.0665C67.9789 99.1991 68.3413 98.7841 68.6297 98.5363C69.9521 97.3978 70.9151 95.9647 72.3838 94.948C73.4942 94.1798 74.1828 94.313 74.8096 95.3764C75.3363 95.0267 75.7848 94.5603 76.4828 94.4606C78.0365 94.2379 78.9884 95.1548 78.6342 96.5036C78.4688 97.1335 78.22 97.7562 78.2503 98.4165C78.2835 99.1318 78.7851 99.4583 79.5017 99.1359C80.1646 98.8376 80.8061 98.524 81.0158 97.7187C81.3391 96.4784 82.1 95.3743 82.8363 94.2821C82.9663 94.0888 83.1474 93.9021 83.3542 93.7741C83.896 93.4367 84.478 93.0382 85.148 93.4959C85.7463 93.9052 85.4655 94.4081 85.2243 94.9002C84.6982 95.9724 83.7836 96.7746 82.9092 97.6117C82.5713 97.9352 81.8535 98.1085 82.1722 98.7538C82.5008 99.4197 83.1736 99.4382 83.8617 99.3981C83.9724 99.3914 84.0825 99.3673 84.1926 99.3642C84.4233 99.358 84.7513 99.2038 84.7256 99.6177C84.7099 99.8712 84.7629 100.121 84.3137 100.174C83.2925 100.298 82.2928 100.344 81.6322 99.4963C81.3036 99.0742 81.0939 99.104 80.7338 99.4254C80.2474 99.8614 79.6129 100.085 78.9377 100.099C78.0854 100.117 77.4003 99.4424 77.3304 98.6237C77.2646 97.8606 77.5064 97.1319 77.6858 96.4043C77.7889 95.9868 77.899 95.6299 77.4283 95.3692C76.9954 95.1301 76.5702 95.2432 76.1804 95.4751C74.939 96.2141 74.2352 97.3022 73.6386 98.4766C73.3841 98.9775 73.3858 100.02 72.4875 99.6784C71.7447 99.3961 72.5387 98.6407 72.7467 98.1553C73.1353 97.2471 73.6305 96.3791 73.6812 95.289C72.8172 95.5677 72.2935 96.1117 71.7377 96.6491C70.8172 97.5392 70.071 98.5697 69.0066 99.3416C68.4998 99.7092 67.9463 100.201 67.2396 99.8959C66.4701 99.5637 66.4066 98.8567 66.498 98.183C66.5895 97.5099 66.7503 96.8435 66.9111 96.0181Z" fill="black"/>
<path d="M99.4898 96.9755C98.6311 97.645 97.2247 98.5387 96.3695 99.2113C96.101 99.4222 95.826 99.7883 95.4584 99.4386C95.0628 99.0637 95.477 98.7866 95.7735 98.549C96.7593 97.7581 97.7351 96.958 98.7528 96.2005C99.3739 95.7388 100.051 95.3423 100.56 94.7659C100.777 94.5206 101.085 94.1838 101.477 94.4573C101.829 94.7026 101.619 95.0528 101.431 95.3408C100.897 96.163 100.379 96.9899 100.157 97.9314C100.09 98.2132 99.9133 98.5259 100.258 98.7403C100.555 98.9244 100.823 98.6986 101.071 98.5804C101.864 98.206 102.512 97.6697 103.12 97.0953C103.879 96.3795 104.642 95.6611 105.543 95.0847C106.664 94.3673 107.373 94.6224 107.667 95.8077C107.704 95.9537 107.711 96.1059 107.746 96.3636C108.62 95.7223 109.362 95.0908 110.305 94.7C111.41 94.2429 111.948 94.5021 111.889 95.5932C111.843 96.4361 111.625 97.2712 111.514 98.1129C111.467 98.4672 111.438 98.9074 111.779 99.1157C112.175 99.3584 112.539 99.0092 112.859 98.8092C113.337 98.5115 113.907 98.3058 114.229 97.8399C114.435 97.5411 114.731 97.3812 115.035 97.6424C115.329 97.8959 115.304 98.3171 114.998 98.5207C114.178 99.0673 113.391 99.7055 112.39 99.9662C111.531 100.19 110.897 99.904 110.629 99.0607C110.332 98.1253 110.687 97.248 110.822 96.3507C110.865 96.0694 111.034 95.8015 110.892 95.4621C109.307 96.0653 108.214 97.0722 107.494 98.4189C107.353 98.6832 107.223 98.9537 107.064 99.2098C106.892 99.489 106.621 99.7029 106.253 99.5538C105.839 99.3856 106.038 99.0643 106.113 98.7855C106.316 98.0271 106.528 97.2696 106.7 96.506C106.761 96.2329 106.896 95.8612 106.592 95.6873C106.241 95.4858 105.984 95.8298 105.761 96.0185C105.064 96.6037 104.389 97.2094 103.719 97.8193C103.097 98.3845 102.442 98.9156 101.644 99.2761C101.031 99.5523 100.392 99.9621 99.6925 99.49C98.9719 99.0031 98.9515 98.3335 99.2072 97.6275" fill="black"/>
<path d="M126.709 95.2531C125.298 95.268 123.357 96.9814 123.251 98.2762C123.221 98.6444 123.47 98.7992 123.744 98.9653C124.066 99.1607 124.356 99.2388 124.743 99.0028C125.917 98.285 126.841 97.3784 127.491 96.2672C127.916 95.54 127.662 95.2433 126.709 95.2531ZM126.982 98.4577C126.432 98.9334 125.909 99.2887 125.381 99.6435C124.552 100.2 123.802 100.052 123.036 99.5978C122.281 99.1494 122.139 98.5148 122.385 97.7872C122.983 96.0172 124.294 94.8721 126.328 94.4447C127.245 94.2519 128.065 94.5892 128.789 95.0968C129.129 95.3349 129.021 95.5997 128.887 95.8846C128.633 96.4255 128.352 96.9614 128.16 97.5198C127.981 98.0402 128.023 98.5493 128.57 98.9401C129.077 99.3016 129.601 99.2167 130.137 99.0378C130.937 98.7704 131.647 98.36 132.345 97.9327C132.652 97.745 133.044 97.4977 133.323 97.8432C133.651 98.251 133.218 98.485 132.861 98.6727C132.291 98.973 131.73 99.2908 131.136 99.5505C129.092 100.447 128.19 100.214 126.982 98.4577Z" fill="black"/>
<path d="M68.8644 92.6602C68.5451 92.656 68.3255 92.5141 68.3098 92.2693C68.2859 91.8909 68.6279 91.6872 68.9681 91.5854C69.3089 91.4831 69.5658 91.7078 69.5518 91.9912C69.5343 92.3449 69.1755 92.5115 68.8644 92.6602Z" fill="black"/>
<path d="M101.758 91.0633C102.068 91.052 102.257 91.197 102.277 91.4541C102.296 91.7035 102.155 91.8958 101.837 91.9153C101.526 91.9349 101.349 91.7806 101.319 91.5225C101.288 91.2535 101.457 91.1023 101.758 91.0633Z" fill="black"/>
<path d="M164.682 92.3466C164.643 92.5899 164.522 92.7837 164.216 92.7832C163.875 92.7827 163.677 92.6068 163.699 92.3014C163.718 92.0345 163.934 91.9183 164.216 91.9219C164.519 91.925 164.66 92.0911 164.682 92.3466Z" fill="black"/>
<path d="M16.8399 90.5057C16.7968 90.8549 16.5883 90.9536 16.2999 90.9459C16.0185 90.9392 15.9294 90.7746 15.9451 90.5535C15.9602 90.3432 16.0412 90.1673 16.3197 90.1529C16.6459 90.137 16.7316 90.3622 16.8399 90.5057Z" fill="black"/>
<path d="M59.5926 92.5331C59.564 92.7707 59.426 92.9054 59.1702 92.9018C58.876 92.8977 58.6768 92.7599 58.7024 92.4868C58.7211 92.2801 58.8912 92.131 59.1294 92.1197C59.4458 92.1047 59.5664 92.295 59.5926 92.5331Z" fill="black"/>
</svg>
