<svg width="300" height="300" fill="none" xmlns="http://www.w3.org/2000/svg"><path fill-rule="evenodd" clip-rule="evenodd" d="M190.655 17.14C178.978 7.173 167.587-2.55 153.529.607c-13.752 3.09-19.944 15.643-26.287 28.501-5.259 10.66-10.621 21.529-20.478 27.384-8.456 5.024-19.511 4.214-30.403 3.416-12.251-.898-24.296-1.781-32.204 5.67-8.22 7.747-6.866 19.03-5.475 30.61 1.046 8.72 2.114 17.609-.874 25.281-3.39 8.706-11.2 16.13-18.847 23.398C8.176 155.117-2.285 165.059.437 177.86c3.02 14.202 16.156 16.418 30.56 18.846 12.18 2.054 25.266 4.26 33.91 13.994 7.436 8.374 8.373 17.843 9.389 28.098 1.096 11.073 2.282 23.06 11.839 35.572 14.145 18.518 42.779 26.005 67.394 25.616 44.969-.713 79.99-29.246 113.355-68.428 33.365-39.182 39.084-74.271 27.912-115.449-13.709-50.531-30.457-61.163-82.026-83.428-7.909-3.414-15.065-9.522-22.115-15.54Zm-94.627 5.2c0 11.383-7.584 20.611-16.939 20.611S62.151 33.722 62.151 22.34c0-11.383 7.583-20.611 16.938-20.611 9.355 0 16.939 9.228 16.939 20.61Z" fill="#000"/></svg>