<svg width="300" height="300" fill="none" xmlns="http://www.w3.org/2000/svg"><path fill-rule="evenodd" clip-rule="evenodd" d="M137.039.309c40.847 4.592 40.547 49.337 73.59 66.161 24.572 12.511 79.869-3.887 88.028 16.129 10.438 25.61-43.174 30.587-50.231 63.122-3.49 16.092 28.005 23.15 28.005 45.555 0 22.406-53.218 55.263-73.498 70.44C163.175 291.465 120.148 300 84.013 300c-36.135 0-79.649-21.866-79.649-51.629 0-29.762 34.7-42.304 35.572-63.951.58-14.415-30.05-21.422-35.572-35.353-6.46-16.299-5.646-33.848 1.76-49.963C19.356 70.317 86.036-5.426 137.04.309Z" fill="#000"/></svg>