<svg width="154" height="96" fill="none" xmlns="http://www.w3.org/2000/svg"><path d="M0 0h154v96H0z"/><path d="M68.247 7.005c.608-.991.97-2.026 1.425-3.018a12.68 12.68 0 0 1 1.5-2.476 2.382 2.382 0 0 1 1.092-.77c.939-.342 1.92.147 1.825 1.32-.086 1.076-.388 2.117-.644 3.164-.584 2.387-1.325 4.725-2.399 6.953-.391.813-.82 1.616-1.325 2.366-.797 1.186-2.567 1.107-3.304-.11-.627-1.034-1.102-2.142-1.672-3.276-.62.69-.985 1.481-1.44 2.219a20.612 20.612 0 0 1-1.777 2.447c-.64.76-1.64.61-2.212-.148-.599-.796-.83-1.73-1.112-2.642-.795-2.574-1.54-5.162-2.01-7.814a10.508 10.508 0 0 1-.16-2.51c.042-.67.316-1.244.997-1.458.685-.216 1.384-.165 1.993.313.961.755 1.418 1.788 1.76 2.886.338 1.088.621 2.188.782 3.315.01.072.07.137.136.262.606-.997.92-2.053 1.302-3.073.358-.957.696-1.91 1.265-2.776.513-.78 1.334-.828 1.833-.041.736 1.158 1.19 2.443 1.694 3.704.147.365.285.734.451 1.163ZM37.4 12.399c-.084-1.254-.343-2.396-.284-3.563.023-.447.113-.877.297-1.271.334-.72.936-1.241 1.745-1.298.837-.058 1.46.478 1.815 1.16.788 1.517 1.322 3.13 1.663 4.792.32 1.563.593 3.136.86 4.709.17.988-.22 1.793-.958 2.473-.365.337-.773.257-1.166.127-.67-.22-1.278-.57-1.843-.979-1.695-1.225-3.38-2.462-5.072-3.692-.159-.116-.301-.294-.552-.173.656 1.606 1.489 3.142 1.913 4.832.101.406.186.812.261 1.221.124.675.126 1.318-.564 1.76-.729.47-1.46.34-2.177.003-.36-.169-.614-.468-.839-.79a35.754 35.754 0 0 1-4.369-8.49c-.201-.563-.454-1.11-.573-1.703-.184-.925 0-1.73.714-2.413.782-.747 1.712-.754 2.662-.477 1.496.436 2.686 1.401 3.96 2.22.79.508 1.599.99 2.508 1.552ZM10.523 27.776c-1.58.17-3.144.162-4.643-.482-1.32-.566-2.388-1.41-2.999-2.667-.366-.753-.24-1.612-.081-2.416.357-1.813 1.633-2.986 3.088-4.044 1.635-1.19 3.446-2.03 5.37-2.673.586-.196 1.199-.184 1.79-.102 1.177.162 1.94 1.601 1.472 2.717-.279.665-.714 1.219-1.36 1.596-1.384.806-2.771 1.606-4.156 2.408a2.43 2.43 0 0 0-.857.853c-.54.872-.302 1.316.776 1.425.587.06 1.163-.045 1.737-.14 1.566-.257 3.057-.004 4.467.65.795.368 1.347.98 1.538 1.85.308 1.404.675 2.795.079 4.223-.474 1.137-1.159 2.07-2.365 2.565-1.157.476-2.234 1.16-3.543 1.242-.52.033-1.045.025-1.545-.086-1.334-.298-1.686-2.038-.663-3.16.547-.6 1.29-.929 1.97-1.345.49-.298 1.03-.527 1.378-1.003.242-.329.379-.7.185-1.067-.184-.349-.603-.299-.944-.338-.226-.027-.458-.006-.694-.006Zm82.052-11.945c-.047-1.858.51-3.628.88-5.423.409-1.99.826-3.982 1.508-5.908.287-.807.544-1.642 1.383-2.132.57-.335 1.133-.349 1.703-.03 1.124.63 1.234.96.865 2.6-.122.544-.278 1.08-.399 1.623-.16.719.016 1.388.398 2.006.33.53.624.55 1.076.088.449-.457.75-1 .979-1.588.316-.81.791-1.532 1.339-2.216.468-.585 1.101-.84 1.811-.644.689.19 1.109.675 1.261 1.412.23 1.11-.124 2.152-.339 3.191-.468 2.262-.964 4.526-1.819 6.692-.499 1.263-1.14 2.431-2.446 3.137-.687.371-1.334.29-1.94-.062-.487-.283-.512-.81-.518-1.323-.01-.918.426-1.741.569-2.628.07-.443.083-.876.064-1.312-.018-.442-.459-.67-.899-.496-.486.191-.796.557-1.057.98-.596.965-.992 2.01-1.347 3.071-.228.686-.783 1.014-1.464 1.15-.937.189-1.518-.24-1.603-1.167-.031-.337-.005-.68-.005-1.02Zm-72.458 1.844c.008.755.24 1.374.426 2.002.096.326.353.347.645.278.683-.16 1.335-.379 1.938-.747.387-.236.476-.526.36-.909-.256-.855-.784-1.521-1.559-2.005-.354-.221-.733-.258-1.118-.076-.69.324-.57.985-.692 1.457Zm1.615 9.157c-.034.357-.041.883-.143 1.39-.114.569-.288 1.147-.977 1.336-.585.16-1.343-.175-1.787-.739-.49-.625-.701-1.35-.821-2.103-.379-2.387-.71-4.777-.793-7.197-.038-1.132-.218-2.264-.388-3.387-.16-1.047.052-2.034.445-2.986.309-.748.907-1.106 1.777-1.296 2.2-.481 3.721.48 5.187 1.856 2.316 2.173 3.911 4.795 5.305 7.552.435.861.746 1.775.72 2.757-.022.792-.526 1.417-1.305 1.633-.709.196-1.197-.013-1.729-.727-.413-.555-.707-1.172-1.02-1.778-.416-.801-.837-1.043-1.695-.732-1.293.468-2.34 1.2-2.557 2.661-.08.533-.246 1.053-.22 1.76Zm92.695-16.148c-.725.053-1.332-.1-1.946-.197-.501-.08-.992-.087-1.474.098-.423.163-.678.425-.695.892-.015.446.323.592.639.715a48.946 48.946 0 0 1 3.788 1.653c1.205.587 1.534 1.695.841 2.735-.533.8-1.355.525-2.043.41-1.258-.21-2.49-.566-3.736-.85-.228-.053-.554-.207-.683.028-.156.283.092.516.351.682 1.165.743 2.494 1.164 3.728 1.772.202.1.417.176.623.267 1.219.535 1.519 1.41.866 2.53-.648 1.114-.979 1.267-2.315.971-1.716-.38-3.432-.77-5.045-1.47-.807-.35-1.443-.937-2.072-1.521-.452-.42-.485-.956-.389-1.503a34.215 34.215 0 0 1 2.244-7.5c.368-.863.62-1.772.985-2.638.484-1.151 1.826-1.807 3.099-1.633 1.589.218 3.09.724 4.583 1.255.813.289 1.255.916 1.162 1.574-.141.99-.863 1.644-1.917 1.727-.228.018-.459.003-.594.003Zm-62.238-.015c.01-.764-.391-1.441-.97-2.043-.443-.46-1.033-.59-1.64-.573-.745.02-.767.09-.56.78.09.305.166.614.258.918.33 1.09.655 2.18 1.003 3.264.057.18.07.576.463.278.854-.646 1.391-1.464 1.446-2.624Zm-7.823-5.844c-.088-1.122.341-1.391 1.53-1.505 1.464-.14 2.9-.133 4.34.134 1.37.254 2.473.906 3.222 2.048 1.3 1.985 2.314 4.103 2.177 6.495-.128 2.232-1.699 4.86-4.228 5.65-.924.29-1.824.653-2.747.947-.93.296-1.288.13-1.587-.781a28.061 28.061 0 0 1-.67-2.485c-.734-3.207-1.414-6.425-1.98-9.664-.049-.275-.04-.559-.057-.839Zm104.672 22.928c0 .265.008.386-.002.505-.092 1.087-.799 1.75-1.989 1.09-1.03-.573-2.011-1.2-2.888-1.977-.184-.163-.378-.439-.685-.22-.268.19-.382.481-.297.795.136.504.34.974.738 1.36.572.553 1.132 1.117 1.604 1.759.341.464.477.957.39 1.52-.119.775-.626 1.053-1.375.699-.842-.398-1.604-.92-2.34-1.477-.326-.247-.67-.473-1.017-.692-.198-.125-.413-.356-.663-.153-.265.215-.268.506-.143.82.304.766.827 1.388 1.425 1.943.424.394.78.835 1.119 1.286.595.791.315 2.18-.533 2.72-.518.33-1.033.127-1.537-.079-1.327-.542-2.37-1.46-3.416-2.375-.384-.337-.768-.675-1.15-1.013-1.09-.962-1.835-2.49-.727-4.188.52-.796 1.055-1.556 1.746-2.236.752-.74 1.232-1.711 2.045-2.412 1.025-.884 1.927-1.893 3.203-2.506.64-.307 1.192-.311 1.763-.033a12.285 12.285 0 0 1 4.158 3.28c.411.5.634 1.075.571 1.584Zm-10.885-4.431a5.36 5.36 0 0 1-.997-.091c-1.037-.215-1.888.152-2.556.897a137.836 137.836 0 0 0-2.795 3.224c-.461.549-.955 1.055-1.559 1.458-.968.643-1.858.357-2.248-.712-.236-.645-.098-1.25.121-1.87.657-1.856 1.789-3.457 2.872-5.088.678-1.02.714-1.058-.139-2.024-1.461-1.652-.418-3.574 1.328-3.947a3.006 3.006 0 0 1 2.21.412c1.81 1.166 3.809 2.02 5.582 3.238.74.509 1.045 1.217 1.154 2.033.158 1.175-.962 2.406-2.229 2.469-.207.01-.416.001-.744.001Zm-10.527-6.632c-.566.033-1-.049-1.387-.247-.339-.173-.414-.042-.582.234-1.442 2.373-2.404 4.995-4.072 7.249-.379.51-.81.986-1.507 1.073-1.174.146-2.06-.959-1.826-2.248.2-1.104.624-2.137 1.041-3.178.638-1.59 1.539-3.085 1.879-4.787.116-.58.109-1.004-.523-1.345-.607-.328-1.158-.777-1.672-1.237-.655-.587-.995-1.26-.429-2.246.329-.571 1.072-.878 1.931-.764 1.531.205 2.85.937 4.21 1.558a31.799 31.799 0 0 1 3.587 1.902c.51.316 1.031.634 1.319 1.162.728 1.338-.066 2.704-1.652 2.872-.145.015-.292.002-.317.002ZM90.517 1.41c1.263-.13 2.031.6 2.51 1.738.13.31-.034.569-.208.772-.6.704-1.187 1.388-2.156 1.73-1.17.413-2.263 1.007-2.843 2.19-.352.72-.54 1.464-.505 2.254.022.502.247.914.686 1.212.644.437 1.298.863 1.918 1.33 1.125.85 1.232 2.233.296 3.265-.567.624-1.275.798-2.078.608-1.34-.317-2.436-.967-3.375-1.99-1.414-1.54-2.223-3.245-2.193-5.31.062-4.244 2.434-6.809 6.531-7.754a3.728 3.728 0 0 1 1.417-.044Zm-9.965 3.43c-.146 2.988-.372 5.97-1.437 8.82-.316.844-.822 1.546-1.875 1.595-1.096.05-1.71-.353-2.062-1.356-.407-1.159-.413-2.364-.336-3.565.083-1.297.18-2.595.338-3.885.205-1.69.508-3.36 1.61-4.776.239-.307.526-.558.848-.788 1.312-.94 2.308-.129 2.651.978.147.475.212.98.254 1.475.042.497.01 1 .01 1.501Zm3.845 47.592c.005-.453-.467-.968-.889-.875-.423.092-.53.503-.546.9-.023.523.314.866.805.864.302-.002.626-.459.63-.889Zm4.115 6.07c.341.011.68-.416.704-.887.023-.45-.391-.771-1.01-.785-.396-.008-.707.31-.714.73-.007.41.551.925 1.02.941Zm14.178-1.107c.056.214.096.461.359.612.269.153.444.01.652-.12.392-.243.589-.627.717-1.048.087-.287-.004-.491-.336-.58-.683-.18-1.396.364-1.392 1.136Zm-8.942 3.837c.324.039.75-.422.805-.87.045-.368-.48-.965-.892-1.015-.37-.044-.846.411-.913.873-.058.404.48.95 1 1.012Zm14.077-10.713c-.047-.332-.124-.672-.453-.82-.282-.125-.45.149-.641.304-.134.108-.267.217-.401.323-.247.195-.329.471-.224.746.138.364.385.69.78.757.284.047.522-.19.661-.417a1.95 1.95 0 0 0 .278-.893ZM94.575 37.63c.224 0 .312.012.395-.002.47-.078.586-.487.716-.855.077-.216.038-.45-.18-.605-.489-.35-1.681-.022-1.927.532-.053.118-.033.229.01.352.196.566.695.505.986.578Zm10.776 6.558c.008.179-.017.346.028.49.12.395.294.749.782.76.446.011.732-.175.865-.63.153-.523-.029-.938-.653-1.38-.616-.434-.891-.32-.998.417-.018.12-.017.243-.024.343Zm-19.728 2.015c-.007-.524-.66-1.192-1.133-1.16-.324.021-.858.697-.847 1.071.015.49.714 1.107 1.257 1.108.397.002.73-.468.723-1.02Zm16.081-6.238c.143-.02.277-.051.412-.055.521-.016.545-.328.434-.735-.145-.532-.52-.844-.974-1.073-.32-.161-.667-.221-.963.027-.317.265-.446.648-.48 1.061-.009.118.061.2.155.252.448.246.905.47 1.416.523Zm-5.654-3.81c.215.325-.176.74.285.949 1.037.47 2.083.924 3.11 1.417.406.196.399-.156.532-.337.182-.248.034-.354-.176-.45-.495-.228-1.007-.425-1.472-.706-.68-.41-1.367-.769-2.279-.872Zm-8.077 3.135c-.269-.043-.517.142-.749.485-.346.514-.273 1.01-.104 1.542.127.4.388.507.754.42.61-.148.896-.639 1.162-1.16.218-.428.161-.766-.211-1.072-.22-.18-.469-.168-.852-.215Zm-9.421.878c.852-.027 1.549.017 1.992-.56.718-.936 1.156-2 .947-3.222a1.127 1.127 0 0 0-.731-.88c-.418-.157-.68.004-.69.45-.006.224-.002.447.09.668.064.151.076.38-.136.442-.196.058-.24-.136-.299-.283a3.776 3.776 0 0 0-.22-.469c-.113-.196-.244-.44-.503-.353-.26.087-.22.362-.194.588.036.31.076.62.242.897.08.131.177.281-.01.41-.193.133-.277-.043-.37-.155-.205-.248-.49-.372-.753-.531-.162-.098-.29-.064-.419.05-.138.123-.072.238 0 .37.176.322.363.64.688.82.187.105.345.224.22.435-.137.232-.32.075-.478-.023l-.177-.106c-.288-.172-.58-.252-.818.066-.251.338-.106.618.162.87a1.926 1.926 0 0 0 1.457.516Zm-1.54 7.464c.222.008.513.015.792-.095.445-.175.772-.604.629-.883-.218-.426-.606-.28-.954-.232-.05.007-.095.044-.145.05-.166.02-.355.251-.494-.01-.134-.25.135-.31.252-.436.143-.151.285-.305.443-.438.268-.226.331-.514.291-.848-.055-.458-.275-.588-.658-.365a2.205 2.205 0 0 0-.822.843c-.088.157-.14.432-.386.283-.19-.115-.119-.344-.017-.514.174-.293.278-.605.228-.946-.046-.31-.201-.6-.508-.658-.294-.056-.56.107-.706.4-.301.608-.47 1.267-.701 1.901-.173.475-.123.868.073 1.289.243.52.518 1.022.839 1.495.212.314.496.527.885.548.243.013.5.02.633-.233.139-.264-.053-.462-.2-.645-.095-.118-.264-.197-.2-.384.073-.209.263-.095.401-.12.083-.013.17-.002.324-.002Zm-1.625-7.768c.395.021.78-.062.876-.475.094-.402-.305-.575-.57-.779a.7.7 0 0 0-.28-.118c-.158-.032-.325-.058-.319-.263.007-.204.212-.228.342-.255.409-.087.726-.297.952-.649.277-.43.101-.788-.395-.854-.468-.061-.75.269-1.08.503-.097.07-.193.17-.315.057-.105-.097-.092-.224-.036-.338.106-.218.235-.424.336-.645.24-.524.137-.879-.305-1.09-.411-.197-.805-.005-1.026.486-.077.172-.02.347-.044.518-.02.147.028.363-.186.37-.225.006-.24-.2-.252-.38-.011-.157-.035-.312-.057-.466-.037-.254-.22-.342-.433-.374-.233-.037-.443.006-.567.247-.13.253-.175.492-.105.796.23.99 1 1.753 1.082 2.8.005.064.103.142.174.177.706.343 1.46.533 2.208.732Zm39.688 18.526c.17-.056.479.128.536-.198.049-.277.108-.6-.182-.821-.122-.093-.214-.218-.377-.26-.167-.042-.344-.131-.284-.353.062-.233.272-.165.432-.15.186.016.368.083.554.094.465.028.709-.323.493-.736-.118-.225-.385-.247-.611-.312-.232-.066-.607.165-.681-.16-.078-.345.352-.284.543-.424.341-.249.747-.548.623-.99-.129-.457-.612-.397-1.009-.328a.329.329 0 0 1-.051.006c-.148.001-.328.078-.418-.094-.098-.187.086-.273.183-.386.191-.223.392-.44.567-.676.204-.277.067-.523-.109-.752-.195-.254-.389-.125-.576.01a6.011 6.011 0 0 0-1.656 1.831c-.174.291-.428.55-.388.942.066.657.037 1.347.312 1.95.534 1.172 1.042 1.805 2.099 1.807Zm-13.853 8.649c.392.733.773 1.38 1.454 1.781.265.156.463.179.647-.112.102-.16.245-.292.365-.44.717-.886 1.472-1.744 1.994-2.78.112-.222.238-.42.036-.662-.51-.613-1.043-1.205-1.671-1.69-.318-.247-.708-.407-1.103-.286-.721.22-1.582.882-1.732 1.971.574.067 1.147.138 1.722.198.141.015.288.005.292.203.004.23-.163.215-.322.229-.346.03-.677-.07-1.015-.106-.898-.095-.886-.094-.858.848.009.3.122.409.394.408.444 0 .889-.005 1.332.013.16.007.433-.132.44.182.008.334-.284.232-.465.238-.478.015-.956.005-1.51.005Zm-14.478.452c-.065.226.06.53.148.824.245.815.959 1.188 1.619.862.52-.257 1.068-.448 1.59-.693.693-.326 1.448-.5 2.103-.915.48-.304.774-.832.618-1.249-.369-.984-.919-1.868-1.573-2.677-.212-.262-.5-.353-.808-.093-.238.2-.513.34-.799.459-.282.117-.395.285-.176.584.257.35.431.748.594 1.152.062.154.153.295-.038.402-.204.116-.293-.074-.343-.202a5.469 5.469 0 0 0-.57-1.107c-.082-.12-.071-.452-.367-.238-.2.145-.458.238-.305.604.139.332.388.615.413 1.005.01.146.16.31-.054.394-.263.102-.345-.135-.365-.31-.039-.331-.268-.565-.356-.866-.056-.196-.156-.247-.321-.084-.573.56-.99 1.199-1.01 2.148Zm-27.33 2.663c-.026.519.207.914.544 1.261.409.423.965.57 1.46.836.46.249.629.063.868-.321.925-1.486 1.669-3.086 2.71-4.497.216-.293.45-.573.656-.873.185-.269.246-.492-.121-.723-.77-.484-1.49-1.052-2.256-1.541-.638-.407-1.196-.93-1.864-1.291-.29-.157-.439-.11-.622.168-.466.71-.97 1.392-1.459 2.086-.436.619-.436.62.1 1.103.218.197.423.412.66.582.325.233.38.452.152.816a5.82 5.82 0 0 0-.829 2.394ZM48.11 64.826h-.61c-.855.001-.855.001-.849.88.006.792 0 .798-.746.806-2.245.027-4.113 1.546-4.637 3.772-.132.56-.071.643.485.677.273.017.544.058.816.064 2.854.067 5.706-.017 8.559-.096.282-.008.364-.082.4-.374.229-1.814.125-3.631.088-5.449-.009-.41-.306-.32-.455-.264-.318.12-.833-.29-.951.312-.055.278.046.588.064.884.009.139-.067.24-.21.24-.114 0-.182-.086-.198-.201-.033-.224-.106-.455-.08-.673.058-.492-.14-.618-.59-.597-.7.033-.7.008-.757.74-.012.158-.02.317-.05.47-.032.162-.025.408-.278.34-.204-.054-.185-.26-.156-.443.054-.344.1-.69.155-1.088ZM37.837 51.54a29.483 29.483 0 0 0 3.557-.374c1.137-.186 2.292-.348 3.415.195.341.165.727.27 1.124.314 1.346.145 2.657-.068 3.923-.48.958-.312 1.915-.347 2.884-.266 2.143.177 4.255.053 6.334-.535 1.86-.526 3.706-.652 5.576.013.998.355 2.048.53 3.114.286.825-.189 1.651-.183 2.49-.114.558.046 1.127.065 1.683-.086.134-.036.291-.047.323-.202.034-.167-.131-.235-.24-.304-.436-.275-.891-.514-1.394-.636-.144-.035-.309-.11-.438.025-.18.187-.403.151-.623.171-.703.065-1.396-.08-2.094-.1-1.656-.047-3.314.004-4.97-.11-1.349-.092-2.695.101-4.04.198-1.653.12-3.308.113-4.963.107-1.436-.004-2.865.08-4.297.165-1.326.079-2.656-.082-3.984-.12-1.686-.05-3.375-.064-5.065.031-.762.043-1.584-.043-2.212-.495-.578-.416-.953-.23-1.387.119a3.813 3.813 0 0 0-.7.692c-.336.455-.291.743.134 1.11.553.477 1.202.417 1.85.396Zm27.966 5.29c.745-.032 1.283-.516 1.84-.927.43-.318.84-.626 1.36-.799.72-.239 1.48-.371 2.122-.848.4-.297.385-.57.117-.914a2.281 2.281 0 0 0-.545-.473c-.143-.096-.24-.081-.36.032-1.01.963-2.298 1.135-3.57 1.161-5.263.11-10.527-.097-15.792.253-3.632.241-7.282.264-10.925.166-.661-.018-1.378-.053-1.92-.42-.478-.322-.843-.247-1.296-.102-.566.182-.673.48-.22.862.493.415.995.831 1.67.951.325.058.693.153.916.432.616.77 1.36.763 2.22.537 1.137-.298 2.243-.3 3.387.215 1.342.602 2.734.654 4.138-.072 1.143-.59 2.436-.665 3.618-.135 1.114.498 2.154.505 3.24.04.204-.087.411-.168.612-.263.806-.383 1.596-.3 2.354.118 1.155.637 2.248.608 3.373-.123.75-.487 1.581-.477 2.39-.046.394.21.807.376 1.271.354Zm4.181-1.524c-.257-.003-.478.101-.71.156-.783.187-1.326.774-1.947 1.22-1.006.725-1.994.734-3.067.15-.636-.346-1.342-.312-1.958.093-1.193.785-2.4.825-3.632.151-.764-.417-1.493-.429-2.292-.063-1.286.589-2.569.853-3.964.15-1.064-.537-2.26-.407-3.317.132-1.311.67-2.61.648-3.972.265-.543-.152-1.008-.49-1.583-.565-.907-.118-1.767.121-2.632.295-.705.143-1.275-.023-1.765-.551-.179-.192-.36-.409-.668-.385-.068.316.069.58.103.854.164 1.332 1.172 2.559 2.334 2.842 1.511.369 3.053.58 4.6.633 2.103.072 4.208.055 6.312.103 1.603.038 3.21-.05 4.814-.164 2.49-.178 4.99-.16 7.484-.243 1.243-.042 2.48-.146 3.659-.623.601-.243 1.15-.553 1.477-1.15.555-1.01.866-2.083.724-3.3Zm.115-8.559c.069-.9-.04-1.784-.19-2.667-.125-.729-.384-1.357-.974-1.838-.39-.317-.834-.54-1.227-.843-.657-.507-1.41-.66-2.206-.705-.695-.04-1.34.236-2.015.315-1.368.158-2.601-.287-3.765-.949-1.398-.796-2.83-1.176-4.406-.631-1.2.415-2.341.14-3.484-.308-1.471-.576-2.952-.446-4.293.346a14.456 14.456 0 0 1-6.173 1.984c-1.6.145-2.814 1.117-3.53 2.614-.617 1.292-.43 2.697-.41 4.072.002.126.097.171.16.25.655.803 1.598.9 2.48.877 1.66-.042 3.32-.032 4.978-.022.973.007 1.945.152 2.916.142 1.484-.014 2.967-.15 4.451-.16 1.845-.012 3.689-.014 5.53-.106 1.314-.066 2.626-.275 3.936-.253 1.554.026 3.108.183 4.664.132.945-.03 1.874.177 2.816.117.408-.026.649-.156.703-.633.066-.581.018-1.158.04-1.734ZM85 44.728c.129.085.214.144.3.2.722.459.92 1.186.555 2.043-.307.72-.62.838-1.601.53-.243-.076-.243.008-.275.19-.174 1.017-.37 2.026-.348 3.07.006.288.084.393.308.494.91.412 1.127 1.032.666 1.916-.111.212-.106.37.005.578.387.727.84 1.422 1.419 1.979.518.498 1.06 1.01 1.966.706.963-.323 1.721.484 1.558 1.514-.025.158.006.254.134.356.659.526 1.331 1.026 2.094 1.386.343.162.654.318.798-.245.032-.124.206-.23.337-.304a1.394 1.394 0 0 1 1.937.638c.119.254.239.319.493.328 2.484.098 4.68-.73 6.702-2.145.205-.144.254-.283.236-.54-.071-.98.834-1.858 1.707-1.627.372.099.507-.035.695-.305.66-.946 1.053-2.032 1.563-3.057.121-.243.04-.417-.137-.588-.296-.286-.462-.617-.461-1.064.003-.625.484-.87.853-1.16.288-.226.324-.45.287-.752-.103-.831-.209-1.662-.309-2.493-.037-.305-.125-.53-.49-.524-.314.006-.523-.19-.725-.427a1.467 1.467 0 0 1-.307-1.333c.22-.88-.143-1.505-.681-2.098-.034-.038-.056-.088-.087-.13-.635-.855-.829-.916-1.837-.584-.097.032-.193.073-.293.092-2.142.405-3.677.055-4.687-2.093-.125-.268-.228-.326-.5-.209-.483.21-.97.436-1.506.463-1.154.057-2.004-.552-2.765-1.35-.138-.145-.238-.337-.505-.247-.849.288-1.642.681-2.348 1.244-.122.098-.293.202-.224.425.25.815-.173 1.419-.631 1.988-.338.42-.8.687-1.344.601-.284-.045-.459.023-.623.22-.633.756-1.263 1.515-1.929 2.314Zm-7.917-7.739c.058-.199.795-.41 1.264-.078v-.462c.011-.783.406-1.08 1.114-.817.144.054.175.041.238-.096.346-.751 1.26-.625 1.755-.079.601.662.664 1.443.428 2.256-.178.615-.44 1.204-.645 1.812-.058.172-.17.346.051.548 1.249 1.135 2.359 2.44 3.904 3.202.242.12.364.145.546-.077.341-.415.611-.893 1.034-1.234.192-.156.01-.291-.03-.417-.201-.645-.33-1.264.06-1.906.468-.77 1.069-1 2.025-.64.257.096.4.082.618-.112.755-.673 1.655-1.089 2.605-1.396.276-.09.546-.196.824-.278.147-.044.223-.104.256-.273.19-.97 1.24-1.598 2.272-1.322-.012-.266-.003-.52-.037-.768-.236-1.783.184-3.34 1.675-4.381 1.448-1.01 3.005-1.137 4.648-.358 1.185.562 1.583 1.519 1.73 2.742.207 1.723-.337 3.09-1.667 4.144-.149.117-.279.26-.416.391-.025.023-.041.055-.075.1.748.294 1.44.652 1.676 1.526.032.116.087.248.062.356-.158.67.249 1.045.689 1.382.615.471 1.035 1.11 1.478 1.73.122.17.213.27.482.255 1.203-.069 2.331 1.565 1.635 2.47-.592.771-.325 1.46-.259 2.2.025.276.061.555.103.83.067.446.013.906.586 1.184.509.245.599.869.497 1.438-.122.679-.453 1.23-1.15 1.387-.259.058-.371.151-.441.38-.04.133-.103.259-.16.385-.343.76-.332.852.449 1.028 1.09.245 2.207.256 3.319.215.56-.02 1.117-.14 1.677-.155.342-.009.507-.154.666-.44.495-.892 1.145-1.647 1.985-2.223.391-.268.724-.254 1.043.107.365.414.425.863.162 1.283-.074.116-.154.229-.232.345 1.285.581 1.382 1.027.472 2.101.604.29.821.626.727 1.177-.078.453-.336.716-.853.69.274.402.193.823.148 1.22-.037.319-.308.423-.607.457-1.218.14-1.985-.49-2.578-1.501-.45-.77-.495-1.622-.574-2.466-.029-.316-.096-.332-.384-.308-1.48.123-2.962.252-4.448.05a3.622 3.622 0 0 1-1.175-.344c-.256-.132-.35-.067-.463.168-.165.344-.362.673-.557 1-.23.385-.481.71-.383 1.254.114.64-.694 1.643-1.328 1.826-.238.069-.5.057-.684-.114-.261-.243-.451-.131-.694.025-.49.316-.997.603-1.505.887-.173.097-.294.176-.154.395.562.876.893 1.883 1.473 2.751.126.19.192.317.459.158.671-.401 1.337-.225 1.915.205.65.484 1.189 1.104 1.711 1.73.249.301.299.64.103 1.02-.692 1.347-1.694 2.453-2.639 3.603-.23.28-.565.356-.872.153-1.138-.752-1.944-1.722-2.02-3.201-.059-1.161.219-2.175 1.033-3.004.112-.114.092-.205.017-.315-.604-.893-.971-1.922-1.521-2.846-.121-.203-.212-.298-.458-.175-1.256.63-2.627.692-3.984.778-.445.028-.768.029-1.032.529-.477.9-1.758.731-2.22-.314-.319-.725-1.058-.603-1.527-.997-.13-.11-.155.126-.16.234-.048.947-.014 1.888.217 2.812.022.087.052.16.132.212 1.104.716 1.518 1.943 2.085 3.04.322.624-.084 1.556-.783 1.888-.984.468-2.002.86-3.004 1.288-.22.093-.436.197-.649.306-1.066.548-1.687.147-2.193-.928-.582-1.238-.162-2.687.933-3.63.815-.701 1.726-1.251 2.66-1.762.31-.17.41-.354.327-.748-.203-.956-.279-1.932-.063-2.903.036-.163-.048-.218-.151-.288-.186-.125-.377-.244-.547-.39-.244-.21-.424-.325-.765-.077-.448.325-.926.074-1.317-.223-.384-.29-.663-.677-.553-1.21.046-.222.111-.383-.165-.506-1.244-.553-1.953-1.646-2.603-2.786-.13-.228-.252-.352-.539-.352-.522 0-.97-.173-1.157-.757-.187-.581-.102-1.115.294-1.559.163-.183.272-.35.263-.59-.044-1.183.216-2.33.425-3.48a.567.567 0 0 0-.09-.476 1.478 1.478 0 0 1 .556-2.165c.688-.36.688-.36 1.132-.973-1.712-.73-2.904-2.134-4.227-3.369-.153-.142-.26-.228-.522-.13-1.274.47-2.552.683-3.709-.324-.15-.131-.218-.087-.332.027-.469.468-1.042.406-1.585.239-.632-.194-1.29-.333-1.872-.672-.15-.087-.207-.01-.293.07-.885.822-1.771 1.643-2.655 2.466-.171.16-.276.305-.137.584.474.952.613 1.995.633 3.046.008.428.13.513.524.491.75-.042 1.503-.016 2.255-.082.302-.027.461-.111.537-.417.16-.642.37-1.27.641-1.873.262-.584.77-.947 1.21-.884.483.068.847.545.945 1.26.46-.219.925-.648 1.4-.067.385.47.332 1.13-.146 1.819.399.008.763.11.943.475.123.249.156.555-.004.812-.215.346-.504.614-.896.748-.28.096-.57.11-.9.118.22.478.233.91-.242 1.227-.37.247-1.135.195-1.541-.154-.659-.566-1.03-1.34-1.323-2.14-.155-.423-.36-.527-.776-.492-.733.063-1.47.073-2.206.069-.344-.002-.431.124-.417.46.021.489 0 .982-.028 1.472-.015.255.05.373.31.426.524.106.985.38 1.438.658.262.161.562.352.504.723-.058.374-.367.502-.701.593-.472.128-.95.086-1.44.108.058.4.268.767.155 1.18-.05.18.11.23.213.316.173.141.357.273.509.436.586.629.569 1.334-.19 1.667-.837.368-.888.947-.877 1.718.028 2.01-1.51 3.809-3.484 4.16-1.18.21-2.367.29-3.566.321-1.691.044-3.383.098-5.076.111-.387.004-.336.13-.18.387.514.847 1.02 1.699 1.735 2.465.22-.316.477-.62.66-.965.24-.455.53-.506.963-.292.7.345 1.267.885 1.912 1.31.86.566 1.7 1.164 2.555 1.74.356.24.455.522.244.926-.22.421-.518.78-.8 1.152-1.039 1.373-1.758 2.948-2.666 4.405-.533.856-.547.918-1.482.552a9.509 9.509 0 0 1-.936-.411c-1.044-.544-1.486-1.564-1.199-2.722.16-.647.384-1.27.719-1.843.105-.18.123-.277-.065-.42-.329-.249-.624-.544-.936-.816-.34-.294-.436-.607-.126-.993.195-.243.338-.534.55-.757.308-.324.304-.596.004-.916-.61-.65-1.054-1.422-1.486-2.198-.23-.413-.525-.552-1-.51-2.284.201-4.572.29-6.863.111-.22-.017-.443-.002-.731-.002.142.991.281 1.95.416 2.908.038.27.165.373.443.357.427-.026.856-.005 1.284-.003.621.002.687.073.729.763.095 1.539.144 3.078 0 4.616-.035.366-.05.736-.119 1.095-.07.363-.196.577-.69.515-.755-.094-1.528-.045-2.298.02-1 .082-2.01.078-3.016.075-1.506-.005-3.011-.05-4.517-.057-.404-.002-.589-.115-.579-.57.043-1.91 1.49-3.848 3.35-4.459.556-.183 1.115-.344 1.703-.317.275.012.335-.099.343-.366.038-1.324.046-1.324 1.35-1.32h1.617c-.138-1.007-.282-1.982-.399-2.96-.03-.252-.117-.31-.35-.306-.668.013-1.336-.008-2.004-.006a22.87 22.87 0 0 1-5.529-.646c-1.562-.384-2.395-1.562-2.737-3.187-.043-.204-.066-.412-.1-.618-.056-.32-.185-.543-.51-.699a4.932 4.932 0 0 1-1.311-.905 1.013 1.013 0 0 1-.3-.953c.064-.364.397-.448.681-.56.078-.03.17-.02.252-.041.347-.092.679-.17.469-.693-.094-.235-.033-.517.118-.806-.626-.042-1.207-.1-1.698-.495-.64-.517-.73-1.108-.234-1.762.319-.42.7-.779 1.156-1.022.256-.137.342-.306.332-.569-.02-.524-.05-1.048-.062-1.573-.026-1.064.129-2.12.654-3.028.927-1.6 2.361-2.55 4.173-2.644 2.023-.104 3.787-.852 5.523-1.828 1.516-.854 3.138-1.02 4.778-.352 1.096.445 2.19.608 3.336.218 1.374-.468 2.679-.24 3.946.427.666.35 1.35.671 2.047.947 1.064.42 2.14.234 3.222.01 1.202-.25 2.337-.033 3.356.706.403.291.87.488 1.226.847.21.21.303.05.448-.088.85-.812 1.69-1.634 2.573-2.407.338-.297.404-.59.238-.961-.213-.474-.466-.929-.681-1.402-.173-.38-.329-.775-.328-1.204.003-.96.806-1.46 1.63-1.013.146.08.226.208.415.014.448-.46.958-.52 1.42-.229.468.295.602.704.447 1.367-.006.029.011.064.02.105.576-.066 1.159-.14 1.519.493.104.172-.003 1.046-.472 1.35-.449.29-.382.495.027.738.213-.244.414-.542.81-.54-.153-.373-.427-.71-.188-1.134Zm-23.745-5.972c-1.343.498-2.409 2.141-2.366 3.612.005.164-.003.268.196.27.478.005.956.017 1.434.034.219.008.234-.092.269-.301.14-.843.18-1.699.354-2.538.07-.341.21-.703.113-1.077Zm2.407.023-.288 3.946h.976c.322 0 .727.119.947-.036.255-.18.027-.606.034-.924.002-.052.018-.104.02-.156.06-1.361-.585-2.441-1.689-2.83Zm-1.593 3.906c.085 0 .175-.019.255.003.571.156.666-.166.69-.652.044-.906.129-1.81.205-2.713.066-.774-.046-.89-.798-.922-.422-.019-.66.086-.719.568-.114.93-.299 1.851-.418 2.781-.119.929-.1.932.785.935Zm1.045.377h-5.323c-1.007 0-2.013.003-3.02-.006-.163-.001-.429.097-.42-.215.008-.245.23-.212.397-.211 1.093 0 2.186-.006 3.28.013.297.005.404-.07.427-.395.14-2.049 1.245-3.401 3.047-4.137.922-.376 1.861-.107 2.69.407 1.026.638 1.643 1.546 1.599 2.84-.016.472.003.946.02 1.419.01.29-.096.397-.39.39-.768-.019-1.538-.006-2.307-.006v-.1Zm53.035.53c-.046.309.117.603.255.897.245.519.585.618 1.076.34.687-.39.771-1.75.095-2.143-.203-.119-.41-.448-.682-.297-.431.24-.746.606-.744 1.203Zm.834-1.709c.354-.01.559.209.768.364.591.437.796 1.095.71 1.798-.088.719-.535 1.17-1.243 1.35-.38.097-.706-.007-.923-.283-.711-.902-.936-2.255.313-3.078.127-.083.261-.172.375-.15Zm6.106 31.132c-.9.073-1.8.139-2.698.221-.192.018-.408.097-.429-.19-.018-.25.219-.245.374-.256 1.445-.102 2.89-.195 4.336-.282.126-.008.297 0 .311.194.015.217-.145.25-.307.26-.528.032-1.056.06-1.585.09l-.002-.037Z" fill="#000"/><path d="M75.046 68.093h1.804c.189 0 .376.013.55.1.114.056.217.137.185.277-.034.148-.166.163-.291.142-1.138-.2-2.284-.036-3.425-.09-.354-.017-.712.056-1.068.085-.17.014-.385.05-.41-.186-.026-.251.195-.216.362-.247.798-.15 1.603-.062 2.293-.081Zm-.596 2.527c.907-.044 1.812.01 2.715.096.171.017.38 0 .378.245-.002.284-.236.2-.387.184-1.466-.147-2.936-.087-4.405-.105-.142-.002-.384.104-.377-.197.007-.265.218-.22.382-.222.565-.003 1.13-.001 1.694-.002Zm8.602-44.25c-.304.492-.489 1.075-.764 1.608a20.978 20.978 0 0 0-.88 1.877c-.058.146-.101.373-.344.284-.26-.096-.123-.286-.058-.43a457.596 457.596 0 0 1 1.548-3.335c.074-.158.166-.32.388-.238.095.034.122.11.11.234Zm28.576 41.605c-.228 0-.33.006-.432-.001-.154-.013-.197-.122-.188-.258.009-.136.107-.156.217-.165 1.12-.094 2.239-.198 3.359-.278.151-.01.385.029.396.246.012.24-.184.222-.367.227-1.04.026-2.083.025-2.985.23ZM75.665 27.054c0-.437-.002-.873 0-1.31 0-.176-.003-.394.218-.406.257-.013.201.22.201.385 0 .855.002 1.71-.004 2.565-.001.178.07.455-.195.456-.304 0-.213-.294-.217-.486-.009-.401-.003-.803-.003-1.204Zm-4.739 1.963c.017.142-.047.248-.173.283-.147.042-.191-.069-.247-.194-.344-.778-.548-1.606-.815-2.412-.053-.16-.009-.282.147-.33.15-.046.274.008.31.18.17.818.42 1.609.758 2.37.014.031.014.068.02.103Zm31.959 20.145c.534.003.878-.303.886-.788.012-.684-.416-1.246-.956-1.257-.53-.011-1.114.552-1.121 1.079-.007.518.542.962 1.191.966Zm1.293-1.01c.033.928-.403 1.44-1.259 1.474-.82.034-1.631-.64-1.658-1.376-.027-.747.69-1.527 1.437-1.564.795-.038 1.449.61 1.48 1.466Zm-4.203-3.422c.134-.01.272-.003.403-.031.331-.072.486-.362.514-.64.022-.212.068-.54-.218-.672-.473-.218-.978-.296-1.479-.142-.236.072-.467.233-.508.529-.045.318.145.525.372.691.271.199.586.257.916.265Zm-1.715-.89c-.004-.597.65-1.157 1.356-1.129.301.013.607.07.899.153.655.185.882.498.848 1.106-.031.561-.454 1.128-.975 1.184-.671.072-1.324-.014-1.834-.558a1.069 1.069 0 0 1-.294-.756Zm-7.822 2.356c.656.022 1.078-.383 1.121-1.076.03-.48-.385-.921-.888-.944-.508-.024-1.01.502-1.032 1.078-.025.672.186.921.799.942Zm-1.22-.884c-.09-.927.816-1.596 1.426-1.572.769.03 1.38.634 1.357 1.387-.027.858-.673 1.53-1.482 1.544-.87.013-1.309-.445-1.3-1.359Zm8.726 11.178c.017.307-.027.572.25.703.115.055.226.067.328-.036.338-.346.69-.686.84-1.168.058-.187.166-.49-.073-.55-.256-.066-.567-.32-.828-.04-.297.317-.5.7-.517 1.092Zm-.443.025c.076-.617.322-1.17.8-1.573.421-.353.85-.034 1.238.12.323.127.35.453.288.805-.132.763-.631 1.265-1.151 1.736-.316.285-.97-.037-1.1-.505-.051-.182-.05-.38-.075-.583Zm-7.831-5.506c-.667-.01-.932.227-.948.745-.015.5.376.963.806.957.463-.006.883-.539.82-1.139-.047-.438-.416-.54-.678-.563Zm-.115-.427c.747.002 1.219.423 1.223 1.092.005.79-.562 1.493-1.206 1.496-.688.004-1.26-.614-1.266-1.366-.008-.834.392-1.224 1.249-1.222Zm4.841 2.548c-.304 0-.526.002-.748 0-.138-.002-.302-.001-.306-.19-.004-.205.154-.24.322-.242.579-.003 1.154-.013 1.733-.087 1.28-.164 2.503-.453 3.547-1.289a2.54 2.54 0 0 1 .484-.286c.112-.054.24-.058.298.095.051.132.004.221-.111.305-1.198.87-2.5 1.459-3.98 1.587-.44.038-.875.15-1.239.107Zm3.769-4.958c-.064.212-.215.316-.414.313-.186-.003-.322-.102-.317-.323.005-.243.15-.32.365-.34.26-.024.292.175.365.35Zm-4.094.453c-.011.231-.109.366-.297.39-.175.021-.367-.035-.386-.238a.35.35 0 0 1 .32-.389c.175-.02.318.071.363.237Zm-37.519-2.053c-.027-.121-.044-.236.073-.288a.237.237 0 0 1 .283.059c.115.13.239.255.329.402.093.152.335.293.198.492-.159.23-.325-.069-.463-.068-.348.004-.697.099-1.04.18-1.444.346-2.898.4-4.364.189-.196-.028-.49.017-.435-.285.052-.282.349-.158.528-.133 1.592.23 3.158.093 4.709-.313.146-.038.343.003.182-.235Zm.588-4.102c.143.07.353.07.337.31-.016.213-.194.304-.355.299-.16-.006-.36-.1-.351-.307.008-.2.197-.254.37-.303Zm-6.563-.023c.168.024.329.1.333.343.003.19-.122.22-.273.22-.225 0-.424-.075-.433-.322-.006-.184.183-.221.373-.241Zm15.092 3.61c-.035.184-.143.23-.297.222-.17-.009-.313-.05-.298-.26.011-.15.128-.179.259-.18.168-.002.295.045.336.218Zm-21.701-.403c-.007.16-.087.242-.226.238-.108-.003-.2-.062-.211-.186-.014-.144.068-.237.198-.256.147-.021.203.095.24.204Zm-1.232.647c-.022.148-.11.208-.248.195-.12-.011-.194-.087-.191-.2.004-.132.078-.236.222-.237.15 0 .196.114.217.242Zm23.481-2.515c-.012.172-.114.212-.241.195-.104-.013-.184-.068-.178-.198.007-.144.096-.222.22-.22.127.003.199.1.199.223ZM41.35 45.012c-.026.13-.085.216-.204.209-.137-.008-.227-.099-.212-.24.015-.14.119-.213.255-.188.116.022.157.12.161.219Zm22.68.334c-.132 0-.203-.055-.198-.189.005-.137.051-.25.207-.236.109.01.19.085.203.202.018.163-.088.21-.213.223Zm2.998.607a.204.204 0 0 1-.224.195c-.11-.005-.18-.087-.19-.206-.012-.163.083-.212.222-.207.115.005.194.054.192.218ZM47.977 68.576c.278.242.622.329.86.587.177.194.297.414.216.658-.08.24-.33.249-.554.277-.55.07-1.088-.032-1.626-.112-1.178-.174-2.375-.16-3.545-.404-.162-.034-.373 0-.424-.214-.062-.253.197-.26.323-.332 1.503-.866 3.145-1.37 4.78-1.89.14-.046.305-.009.458-.019.21-.014.383.059.456.258.07.191.004.363-.134.525-.225.265-.53.427-.81.666Zm-5.305-24.167c-.015.186-.134.216-.252.212-.112-.004-.174-.085-.166-.208.008-.137.07-.238.211-.22.123.014.207.098.207.216Zm19.912 22.378c.275-.154.496-.283.723-.402.222-.115.46-.19.663.017.198.203.222.456.132.732-.135.411-.442.699-.67 1.043-.558.842-1.321 1.46-2.08 2.083-.118.096-.258.213-.419.116-.14-.085-.09-.25-.085-.384.05-1.225.214-2.436.428-3.64.018-.102.056-.201.095-.297.134-.323.333-.612.71-.552.368.058.428.405.46.73.017.172.027.345.043.554Zm59.038 18.598c-.086.43.295.712.714.913.436.21.872.083 1.205-.233.573-.542.909-1.226 1.319-1.865.392-.611-.05-.85-.568-.951-1.146-.222-2.677.978-2.67 2.136Zm27.791-1.625c1.099-1.984 2.382-3.72 2.803-5.873.085-.437-.047-.916-.47-1.116-.405-.192-.751.184-1.024.446-.413.398-.756.878-.876 1.398-.402 1.745-1.278 3.133-1.457 4.925-.076.238-.12.733-.176.975-.02.088-.062.255.127.253.165-.002.421-.23.552-.343m-1.889 2.377c-.975.435-1.827.885-2.81 1.029-.845.124-1.668.087-2.228-.6-.265-.325-.475-.243-.782-.096a4.828 4.828 0 0 1-.969.337c-1.017.24-1.662-.213-1.704-1.156-.039-.881.421-1.654.655-2.485-.92-.29-1.321-.054-1.514.837-.205.947-.796 1.794-1.527 2.523-.684.683-1.23.718-1.876.032-.331-.352-.411-.116-.624.04-.605.44-1.221.917-1.914.095-.173-.206-.316-.056-.458.06-.211.172-.411.366-.651.496-.754.41-1.481.061-1.534-.73a5.294 5.294 0 0 1 .296-2.113c.103-.295.19-.582.092-.986-.538.36-.821.797-1.099 1.234-.412.644-.837 1.283-1.441 1.793-.312.262-.657.62-1.152.435-.506-.19-.726-.609-.796-1.092-.027-.19.108-.394-.089-.61-.485.468-.865 1.067-1.618 1.207-.802.149-1.5-.047-2.05-.617-.537-.556-.551-1.193-.307-1.845.428-1.145 1.933-2.123 3.257-2.148.47-.008.864.145 1.223.48.56-.731.476-1.635.846-2.398.22-.457.21-1.305.995-1.11.697.176.099.853.082 1.285-.036.89-.573 1.672-.96 2.473-.482 1.001-.537 2.041-.532 3.099.001.158-.054.365.178.437.221.068.347-.104.469-.223.498-.485.878-1.047 1.218-1.628.346-.591.822-1.079 1.389-1.5.268-.199.519-.415.925-.228.419.192.451.516.445.867-.014.78-.383 1.496-.5 2.258-.053.343-.344.828.097.974.375.125.661-.353.899-.648.49-.606.753-1.312 1.031-2.01.132-.332.302-.725.766-.594.59.168.211.57.093.85-.293.7-.53 1.396-.297 2.22.891-.433 1.309-1.134 1.53-1.943.108-.395.268-.758.48-1.11.132-.217.304-.393.602-.27.271.112.329.325.235.577-.192.512-.425 1.017-.553 1.543-.083.34-.232.844.207 1.008.385.144.624-.3.844-.568.614-.744.957-1.6 1.154-2.498.136-.616.499-.836 1.191-.823 2.14.04 2.14.02 1.46 1.905-.039.108-.087.215-.109.326-.103.506-.624 1.122-.023 1.491.528.325 1.102-.213 1.65-.397.355-.12.293-.371.359-.616.407-1.533 1.307-2.698 3.033-3.235.432-.135.816-.118 1.135.184.192.183.425.405.187.672-.196.222-.432.148-.661-.018-.418-.305-.799-.017-1.108.157-.989.556-1.562 1.412-1.777 2.424-.177.829.34 1.329 1.285 1.268 1.27-.081 2.333-.663 3.365-1.282.201-.121.21-.327.237-.531.293-2.21 1.093-4.318 1.629-6.48.187-.752.612-1.444 1.166-2.038.495-.53 1.1-1.06 1.94-.793.867.274 1.041 1.059 1.014 1.761-.051 1.318-.466 2.574-1.149 3.749-.161.276-.337.548-.489.829-.282.522-.557.99-.093 1.618.314.426.215 1.019.045 1.575-.379 1.233.307 1.847 1.705 1.602.316-.055.665-.17.767.236.093.366-.265.382-.531.458-1.752.503-3.13-.574-2.819-2.203.093-.489.441-1.187-.079-1.402-.438-.18-.715.584-1.05.93-.538.555-.951 1.2-1.299 1.873-.119.228-.251.51-.59.49-.461-.028-.304-.426-.414-.713ZM22.104 85.88c1.05-.494 1.886-1.188 2.339-2.194.1-.224.382-.536-.005-.767-.32-.19-.613.002-.85.17-.241.172-.443.4-.63.624-.52.621-.616 1.398-.854 2.166Zm-17.35-1.173c1.97-.804 3.399-1.927 4.618-3.262.798-.873 1.466-1.838 1.782-2.96.094-.334.167-.68-.197-.931-.333-.23-.588.028-.852.149a3.746 3.746 0 0 0-.636.364c-2.342 1.701-3.353 4.16-4.715 6.64Zm-.404.781c-.593 1.225-1.12 2.246-1.586 3.287-.814 1.818-1.413 3.692-1.721 5.638-.037.232-.105.462.16.611.265.15.487.002.688-.135.402-.273.816-.537 1.107-.921 1.465-1.939 2.104-4.097 2.104-6.427 0-.666-.233-1.266-.752-2.053Zm2.097-.447c1.985-.102 3.283-1.32 4.687-2.36.258-.191.457-.61.833-.388.428.252.093.615-.064.903-.39.71-.79 1.419-1.218 2.112-.307.496-.305 1.005-.26 1.65.693-.409 1.087-.92 1.506-1.406.642-.743 1.3-1.474 2.14-2.046.422-.288.878-.64 1.437-.468.64.197.35.773.456 1.28.443-.372.824-.742 1.262-1.044.465-.32 1.006-.52 1.57-.174.532.326.362.805.246 1.243-.226.855-.451 1.71-.727 2.552-.22.675.01.795.67.54.143-.055.307-.068.452-.12.915-.327 1.832-.548 1.924-1.745a4.085 4.085 0 0 1 1.01-2.348c.157-.177.29-.381.48-.523.6-.447 1.27-.87 2.04-.39.8.5.532 1.195.204 1.841-.561 1.104-1.58 1.827-2.607 2.546-.183.128-.618.168-.363.551.192.29.452.377.8.23.456-.19.917-.37 1.37-.564.255-.11.5-.143.663.097.148.216 0 .39-.208.495-.658.331-1.312.681-2.087.748-.29.025-.655.023-.79-.198-.535-.889-1.159-.49-1.825-.182-.331.154-.707.239-1.071.324-1.166.272-1.772-.273-1.481-1.345.282-1.039.595-2.07.905-3.146-.51-.094-.74.183-1.012.396-1.188.928-2.027 2.099-2.856 3.28-.167.237-.322.69-.756.435-.352-.206-.148-.549.025-.839.48-.799.883-1.63 1.227-2.485.089-.223.175-.423.047-.705-1.076.504-1.762 1.356-2.485 2.167-.475.533-.913 1.1-1.548 1.491-.752.466-1.353.196-1.413-.62-.053-.72 0-1.424.425-2.148-1.465.547-2.84 1.298-4.46 1.155.703 3.16-.072 5.96-1.962 8.551-.356.489-.87.827-1.382 1.156-.495.318-1.075.4-1.595.066-.488-.314-.505-.786-.41-1.303a25.669 25.669 0 0 1 2.492-7.296c.117-.225.199-.465.317-.745-.505.078-.948.186-1.393.197-.214.005-.544-.085-.53-.386.012-.27.23-.371.525-.36 1.338.045 2.015-.597 2.583-1.668 1.175-2.217 2.163-4.565 4.348-6.225a8.527 8.527 0 0 1 1.302-.835c.576-.293 1.163-.339 1.668.074.477.39.588.896.405 1.476-.681 2.163-2.166 3.817-4.034 5.225-.53.4-1.12.737-1.682 1.101-.193.055-.406.08-.515.28.27.085.504.058.715-.1Zm47.981 1.683c.317-.079.442-.283.41-.56-.017-.138.073-.394-.21-.362a.744.744 0 0 0-.666.615c-.035.206.287.218.466.306Zm17.896-4.607c-1.056.535-1.217 1.429-1.636 2.16.637-.596 1.393-1.118 1.636-2.16Zm-15.026 1.681c-.431.325-.767.627-1.155.857-.51.3-.713.652-.572 1.21.142.562-.004 1.103-.575 1.432-.53.306-1.024.053-1.499-.198-.669-.355-.746-.869.092-1.462.777-.55 1.02-1.057.548-1.875l-2.106 2.004c-.546.519-1.128 1.001-1.794 1.392-.414.244-.885.415-1.333.171-.461-.25-.495-.692-.367-1.144.03-.105.004-.223.004-.426-.664.503-1.201 1.037-1.877 1.424-1.283.735-1.66.6-1.938-.75-.022-.11-.097-.209-.167-.354-.744.355-1.309.96-2.126 1.183-.482.132-1.036.372-1.423.021a1.144 1.144 0 0 1-.275-1.353c.044-.1.035-.22.06-.392-.982.585-1.885 1.172-2.84 1.678-.836.444-1.745.946-2.712.307-1.083-.715-1.105-1.723-.717-2.77.45-1.212 1.378-2.012 2.714-2.422.341-.105.686-.099.973.153.215.188.64.326.421.661-.21.322-.539.167-.806-.028-.07-.051-.177-.133-.237-.116-.833.236-1.571.608-1.975 1.346-.373.681-.81 1.375-.32 2.16.373.6.885.713 1.587.408 1.789-.78 3.304-1.87 4.632-3.188.227-.225.403-.637.8-.42.393.217.162.591.034.912-.191.48-.548.887-.689 1.395-.1.36-.378.803-.05 1.03.308.216.78-.091 1.103-.286 1.079-.65 2.103-1.365 2.837-2.36.204-.276.405-.723.837-.467.38.225.12.621-.084.91-.516.724-1.029 1.444-.698 2.426 1.254-.487 2.095-1.388 2.922-2.322.304-.344.505-1.104 1.105-.825.644.3-.03.84-.15 1.255-.162.566-.136 1.123-.162 1.79 1.313-.531 2.111-1.505 3.038-2.325.47-.417.854-.915 1.261-1.387.158-.182.295-.413.585-.352.309.066.522.225.645.548.448 1.174.469 1.166 1.542.283.421-.347.843-.691 1.273-1.027.211-.165.443-.389.745-.201.318.198.226.489.122.771-.299.805-.694 1.582-.774 2.447-.032.342-.198.78.176.936.276.116.585-.246.831-.462 1.129-.994 1.95-2.245 3.204-3.132.947-.67 1.535-.554 2.07.374.45-.305.832-.712 1.428-.8 1.325-.194 2.138.606 1.835 1.784-.14.55-.353 1.093-.327 1.67.028.623.456.908 1.068.627.565-.26 1.113-.534 1.292-1.237.276-1.082.925-2.046 1.553-3 .111-.168.266-.33.442-.442.463-.295.96-.643 1.53-.243.511.357.272.796.066 1.225-.449.936-1.23 1.636-1.976 2.367-.288.282-.9.433-.629.997.28.58.855.597 1.442.562.095-.006.189-.027.282-.03.197-.005.477-.14.455.221-.013.222.032.44-.351.486-.871.108-1.725.148-2.288-.591-.28-.369-.46-.343-.767-.062-.415.38-.956.575-1.533.587-.727.016-1.311-.573-1.371-1.287-.056-.666.15-1.302.303-1.937.088-.364.182-.676-.22-.903-.369-.21-.732-.11-1.065.092-1.059.645-1.66 1.595-2.168 2.62-.218.437-.216 1.346-.983 1.048-.634-.246.044-.905.221-1.329.332-.792.755-1.55.798-2.501-.737.243-1.184.718-1.659 1.187-.785.776-1.422 1.676-2.33 2.35-.433.32-.905.75-1.508.483-.657-.29-.71-.907-.633-1.495.078-.587.215-1.169.353-1.889Zm27.8.835c-.732.584-1.933 1.364-2.662 1.951-.23.184-.464.504-.778.199-.337-.328.016-.57.27-.777.84-.69 1.673-1.388 2.541-2.05.53-.402 1.109-.748 1.543-1.251.184-.214.448-.508.782-.27.3.214.12.52-.04.771-.455.718-.897 1.44-1.086 2.261-.057.246-.208.52.085.706.254.16.483-.036.695-.14.676-.326 1.229-.794 1.748-1.295.648-.625 1.299-1.252 2.068-1.755.957-.626 1.561-.404 1.813.63.03.128.036.261.067.486.745-.56 1.379-1.11 2.184-1.452.942-.399 1.401-.173 1.35.78-.038.735-.224 1.464-.32 2.199-.04.309-.064.693.227.875.338.212.649-.093.922-.268.408-.26.894-.439 1.169-.846.176-.26.428-.4.687-.172.251.221.23.589-.031.767-.7.477-1.372 1.034-2.225 1.261-.733.196-1.275-.054-1.503-.79-.254-.817.05-1.582.165-2.365.036-.246.18-.48.06-.776-1.353.527-2.286 1.405-2.9 2.58-.12.231-.232.468-.367.691-.147.244-.378.43-.692.3-.354-.147-.184-.427-.12-.67.174-.662.354-1.323.501-1.99.052-.238.167-.563-.092-.714-.3-.176-.519.124-.71.289a59.07 59.07 0 0 0-1.742 1.572c-.53.493-1.09.956-1.77 1.27-.523.242-1.07.6-1.666.188-.615-.425-.632-1.01-.414-1.626m23.468-2.072c-1.204.013-2.86 1.509-2.951 2.639-.025.321.187.456.421.601.275.17.523.239.852.033 1.003-.627 1.791-1.418 2.346-2.388.362-.634.145-.893-.668-.885Zm.233 2.797c-.469.415-.915.725-1.366 1.035-.708.486-1.348.357-2.001-.04-.645-.391-.765-.945-.556-1.58.51-1.545 1.63-2.544 3.365-2.917.783-.168 1.482.126 2.1.569.29.208.198.439.084.687-.217.472-.456.94-.621 1.428-.152.454-.116.898.35 1.239.433.316.88.242 1.337.085.683-.233 1.289-.591 1.885-.964.261-.164.596-.38.834-.078.28.356-.089.56-.394.724-.486.262-.966.54-1.472.766-1.744.782-2.514.58-3.545-.954Zm-49.593-5.06c-.273-.003-.46-.127-.474-.34-.02-.331.272-.509.562-.598.29-.09.51.107.498.354-.015.31-.321.454-.587.584Zm28.069-1.393c.265-.01.426.116.443.34.016.218-.105.386-.376.403-.265.017-.416-.117-.442-.343-.026-.234.118-.366.375-.4Z" fill="#000"/><path d="M140.729 80.594c-.034.212-.137.381-.398.38-.291 0-.459-.153-.441-.42.016-.233.201-.334.441-.331.259.003.379.148.398.37ZM14.57 78.987c-.037.304-.215.39-.461.384-.24-.006-.316-.15-.303-.343.013-.183.082-.337.32-.35.278-.013.351.183.444.309Zm36.483 1.769c-.025.208-.143.325-.36.322-.252-.004-.422-.124-.4-.362.016-.18.161-.31.364-.32.27-.014.373.153.396.36Z" fill="#000"/></svg>