<svg width="300" height="300" viewBox="0 0 300 300" fill="none" xmlns="http://www.w3.org/2000/svg">
<path fill-rule="evenodd" clip-rule="evenodd" d="M190.655 17.1405C178.978 7.17261 167.587 -2.55137 153.529 0.606132C139.777 3.6951 133.585 16.2494 127.242 29.1071C121.983 39.7671 116.621 50.6357 106.764 56.4914C98.308 61.5152 87.2526 60.7049 76.3611 59.9065C64.11 59.0085 52.0655 58.1257 44.1568 65.5779C35.9367 73.3236 37.2913 84.6067 38.6815 96.1864C39.7285 104.907 40.7957 113.796 37.8083 121.468C34.4182 130.174 26.6082 137.598 18.9614 144.866C8.17623 155.117 -2.28459 165.059 0.436648 177.86C3.45618 192.062 16.5927 194.278 30.9974 196.706C43.1769 198.76 56.2632 200.966 64.9075 210.7C72.3431 219.074 73.2804 228.543 74.2956 238.798C75.3916 249.871 76.5783 261.858 86.1348 274.37C100.28 292.888 128.914 300.375 153.529 299.986C198.498 299.273 233.519 270.74 266.884 231.558C300.249 192.376 305.968 157.287 294.796 116.109C281.087 65.5779 264.339 54.9456 212.77 32.6814C204.861 29.2668 197.705 23.1592 190.655 17.1405ZM96.0276 22.3388C96.0276 33.7222 88.4444 42.9501 79.089 42.9501C69.7343 42.9501 62.1509 33.7222 62.1509 22.3388C62.1509 10.9555 69.7343 1.72757 79.089 1.72757C88.4444 1.72757 96.0276 10.9555 96.0276 22.3388Z" fill="black"/>
</svg>
