<svg width="300" height="300" viewBox="0 0 300 300" fill="none" xmlns="http://www.w3.org/2000/svg">
<path fill-rule="evenodd" clip-rule="evenodd" d="M137.039 0.30855C177.886 4.90095 177.586 49.6457 210.629 66.4703C235.201 78.9812 290.498 62.5832 298.657 82.5988C309.095 108.209 255.483 113.186 248.426 145.721C244.936 161.813 276.431 168.871 276.431 191.276C276.431 213.682 223.213 246.539 202.933 261.716C163.175 291.465 120.148 300 84.0132 300C47.8785 300 4.36401 278.134 4.36401 248.371C4.36401 218.609 39.064 206.067 39.9361 184.42C40.5161 170.005 9.88521 162.998 4.36401 149.067C-2.09525 132.768 -1.28168 115.219 6.12468 99.1039C19.355 70.3171 86.035 -5.42599 137.039 0.30855Z" fill="black"/>
</svg>
