<svg width="249" height="216" viewBox="0 0 249 216" fill="none" xmlns="http://www.w3.org/2000/svg">
<g filter="url(#filter0_d_1095_1227)">
<path fill-rule="evenodd" clip-rule="evenodd" d="M153.024 11.9632C143.682 5.05809 134.57 -1.67808 123.323 0.509246C112.321 2.64909 107.368 11.346 102.294 20.2529C98.0861 27.6375 93.7971 35.1666 85.9113 39.2231C79.1464 42.7033 70.3021 42.1419 61.5888 41.5889C51.788 40.9668 42.1524 40.3552 35.8254 45.5176C29.2494 50.8834 30.3331 58.6996 31.4452 66.7213C32.2828 72.7624 33.1366 78.9202 30.7466 84.2346C28.0345 90.266 21.7866 95.4086 15.6691 100.443C7.04098 107.544 -1.32767 114.432 0.849319 123.299C3.26494 133.138 13.7741 134.673 25.2979 136.355C35.0415 137.778 45.5105 139.306 52.426 146.049C58.3745 151.85 59.1244 158.41 59.9364 165.514C60.8133 173.184 61.7626 181.488 69.4079 190.156C80.7244 202.984 103.631 208.17 123.323 207.901C159.298 207.407 187.315 187.641 214.007 160.498C240.699 133.355 245.274 109.048 236.337 80.5221C225.369 45.5176 211.971 38.1522 170.716 22.729C164.388 20.3636 158.664 16.1326 153.024 11.9632ZM77.322 15.5643C77.322 23.45 71.2555 29.8425 63.7712 29.8425C56.2875 29.8425 50.2207 23.45 50.2207 15.5643C50.2207 7.67865 56.2875 1.2861 63.7712 1.2861C71.2555 1.2861 77.322 7.67865 77.322 15.5643Z" fill="black"/>
</g>
<defs>
<filter id="filter0_d_1095_1227" x="0.5" y="0.0893555" width="248" height="215.821" filterUnits="userSpaceOnUse" color-interpolation-filters="sRGB">
<feFlood flood-opacity="0" result="BackgroundImageFix"/>
<feColorMatrix in="SourceAlpha" type="matrix" values="0 0 0 0 0 0 0 0 0 0 0 0 0 0 0 0 0 0 127 0" result="hardAlpha"/>
<feOffset dx="4" dy="4"/>
<feGaussianBlur stdDeviation="2"/>
<feComposite in2="hardAlpha" operator="out"/>
<feColorMatrix type="matrix" values="0 0 0 0 0 0 0 0 0 0 0 0 0 0 0 0 0 0 0.25 0"/>
<feBlend mode="normal" in2="BackgroundImageFix" result="effect1_dropShadow_1095_1227"/>
<feBlend mode="normal" in="SourceGraphic" in2="effect1_dropShadow_1095_1227" result="shape"/>
</filter>
</defs>
</svg>
