<svg width="259" height="248" viewBox="0 0 259 248" fill="none" xmlns="http://www.w3.org/2000/svg">
<g filter="url(#filter0_d_1095_1231)">
<path fill-rule="evenodd" clip-rule="evenodd" d="M114.716 0.24684C148.704 3.92076 148.454 39.7166 175.949 53.1763C196.395 63.185 242.407 50.0666 249.197 66.079C257.882 86.567 213.272 90.5486 207.4 116.577C204.495 129.45 230.702 135.096 230.702 153.021C230.702 170.945 186.42 197.232 169.545 209.373C136.463 233.172 100.661 240 70.5932 240C40.5258 240 4.31778 222.507 4.31778 198.697C4.31778 174.887 33.1913 164.854 33.917 147.536C34.3996 136.004 8.91193 130.399 4.31778 119.254C-1.05692 106.215 -0.379948 92.1754 5.78282 79.2831C16.7917 56.2537 72.2755 -4.3408 114.716 0.24684Z" fill="black"/>
</g>
<defs>
<filter id="filter0_d_1095_1231" x="0.686523" y="0" width="257.627" height="248" filterUnits="userSpaceOnUse" color-interpolation-filters="sRGB">
<feFlood flood-opacity="0" result="BackgroundImageFix"/>
<feColorMatrix in="SourceAlpha" type="matrix" values="0 0 0 0 0 0 0 0 0 0 0 0 0 0 0 0 0 0 127 0" result="hardAlpha"/>
<feOffset dx="4" dy="4"/>
<feGaussianBlur stdDeviation="2"/>
<feComposite in2="hardAlpha" operator="out"/>
<feColorMatrix type="matrix" values="0 0 0 0 0 0 0 0 0 0 0 0 0 0 0 0 0 0 0.25 0"/>
<feBlend mode="normal" in2="BackgroundImageFix" result="effect1_dropShadow_1095_1231"/>
<feBlend mode="normal" in="SourceGraphic" in2="effect1_dropShadow_1095_1231" result="shape"/>
</filter>
</defs>
</svg>
