<svg width="28" height="28" viewBox="0 0 28 28" fill="none" xmlns="http://www.w3.org/2000/svg">
<path d="M14.0195 9.48828C16.4805 9.48828 18.5117 11.5195 18.5117 13.9805C18.5117 16.4805 16.4805 18.4727 14.0195 18.4727C11.5195 18.4727 9.52734 16.4805 9.52734 13.9805C9.52734 11.5195 11.5195 9.48828 14.0195 9.48828ZM14.0195 16.9102C15.6211 16.9102 16.9102 15.6211 16.9102 13.9805C16.9102 12.3789 15.6211 11.0898 14.0195 11.0898C12.3789 11.0898 11.0898 12.3789 11.0898 13.9805C11.0898 15.6211 12.418 16.9102 14.0195 16.9102ZM19.7227 9.33203C19.7227 8.74609 19.2539 8.27734 18.668 8.27734C18.082 8.27734 17.6133 8.74609 17.6133 9.33203C17.6133 9.91797 18.082 10.3867 18.668 10.3867C19.2539 10.3867 19.7227 9.91797 19.7227 9.33203ZM22.6914 10.3867C22.7695 11.832 22.7695 16.168 22.6914 17.6133C22.6133 19.0195 22.3008 20.2305 21.2852 21.2852C20.2695 22.3008 19.0195 22.6133 17.6133 22.6914C16.168 22.7695 11.832 22.7695 10.3867 22.6914C8.98047 22.6133 7.76953 22.3008 6.71484 21.2852C5.69922 20.2305 5.38672 19.0195 5.30859 17.6133C5.23047 16.168 5.23047 11.832 5.30859 10.3867C5.38672 8.98047 5.69922 7.73047 6.71484 6.71484C7.76953 5.69922 8.98047 5.38672 10.3867 5.30859C11.832 5.23047 16.168 5.23047 17.6133 5.30859C19.0195 5.38672 20.2695 5.69922 21.2852 6.71484C22.3008 7.73047 22.6133 8.98047 22.6914 10.3867ZM20.8164 19.1367C21.2852 18.0039 21.168 15.2695 21.168 13.9805C21.168 12.7305 21.2852 9.99609 20.8164 8.82422C20.5039 8.08203 19.918 7.45703 19.1758 7.18359C18.0039 6.71484 15.2695 6.83203 14.0195 6.83203C12.7305 6.83203 9.99609 6.71484 8.86328 7.18359C8.08203 7.49609 7.49609 8.08203 7.18359 8.82422C6.71484 9.99609 6.83203 12.7305 6.83203 13.9805C6.83203 15.2695 6.71484 18.0039 7.18359 19.1367C7.49609 19.918 8.08203 20.5039 8.86328 20.8164C9.99609 21.2852 12.7305 21.168 14.0195 21.168C15.2695 21.168 18.0039 21.2852 19.1758 20.8164C19.918 20.5039 20.543 19.918 20.8164 19.1367Z" fill="black"/>
</svg>
