<svg width="34" height="32" viewBox="0 0 34 32" fill="none" xmlns="http://www.w3.org/2000/svg">
<path d="M6.375 8.85713C6.375 8.0982 7.03906 7.42856 7.89286 7.42856H26.1071C26.9135 7.42856 27.625 8.0982 27.625 8.85713C27.625 9.6607 26.9135 10.2857 26.1071 10.2857H7.89286C7.03906 10.2857 6.375 9.6607 6.375 8.85713ZM6.375 16C6.375 15.2411 7.03906 14.5714 7.89286 14.5714H26.1071C26.9135 14.5714 27.625 15.2411 27.625 16C27.625 16.8036 26.9135 17.4286 26.1071 17.4286H7.89286C7.03906 17.4286 6.375 16.8036 6.375 16ZM26.1071 24.5714H7.89286C7.03906 24.5714 6.375 23.9464 6.375 23.1428C6.375 22.3839 7.03906 21.7143 7.89286 21.7143H26.1071C26.9135 21.7143 27.625 22.3839 27.625 23.1428C27.625 23.9464 26.9135 24.5714 26.1071 24.5714Z" fill="black"/>
</svg>
